<?xml version="1.0" encoding="utf-8"?>
<!-- Generator: Adobe Illustrator 22.0.0, SVG Export Plug-In . SVG Version: 6.00 Build 0)  -->
<svg version="1.1" id="Layer_1" xmlns="http://www.w3.org/2000/svg" xmlns:xlink="http://www.w3.org/1999/xlink" x="0px" y="0px"
	 width="476.8px" height="430.8px" viewBox="0 0 476.8 430.8" style="enable-background:new 0 0 476.8 430.8;" xml:space="preserve"
	>
<style type="text/css">
	.st0{fill:#252525;}
	.st1{fill:#FFFFFF;}
</style>
<g>
	<g>
		<g>
			<path class="st0" d="M312,84.2C311.9,84.2,311.9,84.1,312,84.2c-0.1-0.1-0.1-0.2,0-0.2C312,84,312.1,84,312,84.2
				C312.1,84.1,312,84.2,312,84.2z"/>
			<path class="st0" d="M294.6,84.2c-0.1,0-0.1-0.1-0.1-0.1c0-0.1,0.1-0.1,0.1-0.1c0.1,0,0.1,0.1,0.1,0.1
				C294.8,84.2,294.7,84.2,294.6,84.2z"/>
			<path class="st0" d="M277.3,84.3c-0.1,0-0.2-0.1-0.2-0.2c0-0.1,0.1-0.2,0.2-0.2c0.1,0,0.2,0.1,0.2,0.2
				C277.5,84.2,277.4,84.3,277.3,84.3z"/>
			<path class="st0" d="M260,84.3c-0.1,0-0.2-0.1-0.2-0.2c0-0.1,0.1-0.2,0.2-0.2c0.1,0,0.2,0.1,0.2,0.2
				C260.2,84.2,260.1,84.3,260,84.3z"/>
			<path class="st0" d="M242.7,84.4c-0.2,0-0.3-0.1-0.3-0.3c0-0.2,0.1-0.3,0.3-0.3c0.2,0,0.3,0.1,0.3,0.3
				C242.9,84.3,242.8,84.4,242.7,84.4z"/>
			<path class="st0" d="M225.3,84.3c-0.1,0-0.2-0.1-0.2-0.2c0-0.1,0.1-0.2,0.2-0.2c0.1,0,0.2,0.1,0.2,0.2
				C225.6,84.2,225.5,84.3,225.3,84.3z"/>
			<path class="st0" d="M208,84.3c-0.1,0-0.2-0.1-0.2-0.2c0-0.1,0.1-0.2,0.2-0.2c0.1,0,0.2,0.1,0.2,0.2
				C208.2,84.2,208.1,84.3,208,84.3z"/>
			<path class="st0" d="M190.7,84.3c-0.1,0-0.2-0.1-0.2-0.2c0-0.1,0.1-0.2,0.2-0.2c0.1,0,0.2,0.1,0.2,0.2
				C190.9,84.2,190.8,84.3,190.7,84.3z"/>
			<path class="st0" d="M173.3,84.2C173.3,84.2,173.2,84.1,173.3,84.2c-0.1-0.1-0.1-0.2,0-0.2S173.4,84,173.3,84.2
				C173.4,84.1,173.4,84.2,173.3,84.2z"/>
			<path class="st0" d="M156,84.1C156,84.1,156,84.1,156,84.1C156,84.1,156,84,156,84.1C156,84,156.1,84.1,156,84.1
				C156.1,84.1,156,84.1,156,84.1z"/>
			<path class="st0" d="M372.6,101.5C372.6,101.5,372.6,101.5,372.6,101.5C372.6,101.4,372.6,101.4,372.6,101.5
				C372.7,101.4,372.7,101.4,372.6,101.5C372.7,101.5,372.7,101.5,372.6,101.5z"/>
			<path class="st0" d="M355.3,101.6c-0.1,0-0.2-0.1-0.2-0.2c0-0.1,0.1-0.2,0.2-0.2c0.1,0,0.2,0.1,0.2,0.2
				C355.5,101.5,355.4,101.6,355.3,101.6z"/>
			<path class="st0" d="M338,101.8c-0.2,0-0.3-0.1-0.3-0.3c0-0.2,0.1-0.3,0.3-0.3c0.2,0,0.3,0.2,0.3,0.3
				C338.3,101.6,338.2,101.8,338,101.8z"/>
			<path class="st0" d="M320.6,101.9c-0.3,0-0.5-0.2-0.5-0.5c0-0.3,0.2-0.5,0.5-0.5c0.3,0,0.5,0.2,0.5,0.5
				C321.1,101.7,320.9,101.9,320.6,101.9z"/>
			<path class="st0" d="M303.3,102c-0.3,0-0.6-0.3-0.6-0.6c0-0.3,0.3-0.6,0.6-0.6c0.3,0,0.6,0.3,0.6,0.6
				C303.9,101.8,303.7,102,303.3,102z"/>
			<path class="st0" d="M286,102.2c-0.4,0-0.8-0.3-0.8-0.8c0-0.4,0.3-0.8,0.8-0.8c0.4,0,0.8,0.3,0.8,0.8
				C286.8,101.8,286.4,102.2,286,102.2z"/>
			<path class="st0" d="M268.7,102.3c-0.5,0-0.9-0.4-0.9-0.9c0-0.5,0.4-0.9,0.9-0.9s0.9,0.4,0.9,0.9
				C269.5,101.9,269.1,102.3,268.7,102.3z"/>
			<path class="st0" d="M251.3,102.3c-0.5,0-0.9-0.4-0.9-0.9c0-0.5,0.4-0.9,0.9-0.9c0.5,0,0.9,0.4,0.9,0.9
				C252.2,101.9,251.8,102.3,251.3,102.3z"/>
			<circle class="st0" cx="234" cy="101.4" r="0.9"/>
			<path class="st0" d="M216.7,102.2c-0.5,0-0.8-0.4-0.8-0.8c0-0.5,0.4-0.8,0.8-0.8c0.5,0,0.8,0.4,0.8,0.8
				C217.5,101.9,217.1,102.2,216.7,102.2z"/>
			<path class="st0" d="M199.3,102.1c-0.4,0-0.7-0.3-0.7-0.7c0-0.4,0.3-0.7,0.7-0.7c0.4,0,0.7,0.3,0.7,0.7
				C200.1,101.8,199.7,102.1,199.3,102.1z"/>
			<path class="st0" d="M182,102c-0.3,0-0.6-0.3-0.6-0.6c0-0.3,0.3-0.6,0.6-0.6c0.3,0,0.6,0.3,0.6,0.6
				C182.6,101.7,182.3,102,182,102z"/>
			<circle class="st0" cx="164.7" cy="101.4" r="0.4"/>
			<path class="st0" d="M147.3,101.7c-0.2,0-0.3-0.1-0.3-0.3c0-0.2,0.1-0.3,0.3-0.3c0.2,0,0.3,0.1,0.3,0.3
				C147.6,101.6,147.5,101.7,147.3,101.7z"/>
			<path class="st0" d="M130,101.6c-0.1,0-0.1-0.1-0.1-0.1c0-0.1,0.1-0.1,0.1-0.1c0.1,0,0.1,0.1,0.1,0.1
				C130.2,101.5,130.1,101.6,130,101.6z"/>
			<path class="st0" d="M398.6,118.8C398.6,118.8,398.6,118.8,398.6,118.8C398.6,118.7,398.6,118.7,398.6,118.8
				C398.7,118.7,398.7,118.7,398.6,118.8C398.7,118.8,398.7,118.8,398.6,118.8z"/>
			<path class="st0" d="M381.3,118.9c-0.1,0-0.2-0.1-0.2-0.2c0-0.1,0.1-0.2,0.2-0.2c0.1,0,0.2,0.1,0.2,0.2
				C381.5,118.9,381.4,118.9,381.3,118.9z"/>
			<path class="st0" d="M364,119.1c-0.2,0-0.4-0.2-0.4-0.4c0-0.2,0.2-0.4,0.4-0.4c0.2,0,0.4,0.2,0.4,0.4
				C364.4,119,364.2,119.1,364,119.1z"/>
			<path class="st0" d="M346.6,119.4c-0.3,0-0.6-0.3-0.6-0.6c0-0.3,0.3-0.6,0.6-0.6c0.3,0,0.6,0.3,0.6,0.6
				C347.3,119.1,347,119.4,346.6,119.4z"/>
			<path class="st0" d="M329.3,119.7c-0.5,0-0.9-0.4-0.9-0.9c0-0.5,0.4-0.9,0.9-0.9c0.5,0,0.9,0.4,0.9,0.9
				C330.2,119.3,329.8,119.7,329.3,119.7z"/>
			<path class="st0" d="M312,119.9c-0.6,0-1.2-0.5-1.2-1.2c0-0.6,0.5-1.2,1.2-1.2c0.6,0,1.2,0.5,1.2,1.2
				C313.1,119.4,312.6,119.9,312,119.9z"/>
			<path class="st0" d="M294.6,120.1c-0.8,0-1.4-0.6-1.4-1.4c0-0.8,0.6-1.4,1.4-1.4s1.4,0.6,1.4,1.4
				C296,119.5,295.4,120.1,294.6,120.1z"/>
			<path class="st0" d="M277.3,120.3c-0.9,0-1.6-0.7-1.6-1.6c0-0.9,0.7-1.6,1.6-1.6s1.6,0.7,1.6,1.6
				C278.9,119.6,278.2,120.3,277.3,120.3z"/>
			<path class="st0" d="M260,120.5c-1,0-1.7-0.8-1.7-1.7c0-1,0.8-1.7,1.7-1.7c1,0,1.7,0.8,1.7,1.7
				C261.7,119.7,260.9,120.5,260,120.5z"/>
			<path class="st0" d="M242.7,120.5c-1,0-1.8-0.8-1.8-1.8c0-1,0.8-1.8,1.8-1.8c1,0,1.8,0.8,1.8,1.8
				C244.4,119.7,243.6,120.5,242.7,120.5z"/>
			<path class="st0" d="M225.3,120.5c-1,0-1.7-0.8-1.7-1.7c0-1,0.8-1.7,1.7-1.7c1,0,1.7,0.8,1.7,1.7
				C227.1,119.7,226.3,120.5,225.3,120.5z"/>
			<path class="st0" d="M208,120.4c-0.9,0-1.7-0.8-1.7-1.7c0-0.9,0.8-1.7,1.7-1.7c0.9,0,1.7,0.8,1.7,1.7
				C209.7,119.7,208.9,120.4,208,120.4z"/>
			<path class="st0" d="M190.7,120.2c-0.8,0-1.5-0.7-1.5-1.5c0-0.8,0.7-1.5,1.5-1.5c0.8,0,1.5,0.7,1.5,1.5
				C192.2,119.6,191.5,120.2,190.7,120.2z"/>
			<path class="st0" d="M173.3,120.1c-0.7,0-1.3-0.6-1.3-1.3c0-0.7,0.6-1.3,1.3-1.3s1.3,0.6,1.3,1.3
				C174.6,119.5,174.1,120.1,173.3,120.1z"/>
			<path class="st0" d="M156,119.8c-0.6,0-1.1-0.5-1.1-1.1c0-0.6,0.5-1.1,1.1-1.1c0.6,0,1.1,0.5,1.1,1.1
				C157.1,119.3,156.6,119.8,156,119.8z"/>
			<path class="st0" d="M138.7,119.5c-0.4,0-0.8-0.3-0.8-0.8c0-0.4,0.3-0.8,0.8-0.8c0.4,0,0.8,0.3,0.8,0.8
				C139.5,119.2,139.1,119.5,138.7,119.5z"/>
			<path class="st0" d="M121.4,119.3c-0.3,0-0.5-0.2-0.5-0.5c0-0.3,0.2-0.5,0.5-0.5c0.3,0,0.5,0.2,0.5,0.5
				C121.9,119,121.6,119.3,121.4,119.3z"/>
			<path class="st0" d="M104,119c-0.2,0-0.3-0.1-0.3-0.3c0-0.2,0.1-0.3,0.3-0.3c0.2,0,0.3,0.1,0.3,0.3
				C104.3,118.9,104.2,119,104,119z"/>
			<path class="st0" d="M86.7,118.8C86.6,118.8,86.6,118.8,86.7,118.8c-0.1-0.1-0.1-0.2,0-0.2S86.8,118.7,86.7,118.8
				C86.8,118.8,86.7,118.8,86.7,118.8z"/>
			<path class="st0" d="M424.6,136.1C424.6,136.1,424.6,136.1,424.6,136.1C424.6,136.1,424.6,136,424.6,136.1
				C424.6,136,424.7,136.1,424.6,136.1C424.7,136.1,424.6,136.1,424.6,136.1z"/>
			<path class="st0" d="M407.3,136.4c-0.2,0-0.3-0.1-0.3-0.3c0-0.2,0.1-0.3,0.3-0.3c0.2,0,0.3,0.1,0.3,0.3
				C407.6,136.2,407.5,136.4,407.3,136.4z"/>
			<path class="st0" d="M390,136.7c-0.3,0-0.6-0.3-0.6-0.6c0-0.3,0.3-0.6,0.6-0.6s0.6,0.3,0.6,0.6
				C390.5,136.4,390.3,136.7,390,136.7z"/>
			<path class="st0" d="M372.6,137c-0.5,0-0.9-0.4-0.9-0.9c0-0.5,0.4-0.9,0.9-0.9c0.5,0,0.9,0.4,0.9,0.9
				C373.5,136.6,373.1,137,372.6,137z"/>
			<path class="st0" d="M355.3,137.4c-0.7,0-1.3-0.6-1.3-1.3c0-0.7,0.6-1.3,1.3-1.3c0.7,0,1.3,0.6,1.3,1.3
				C356.6,136.8,356,137.4,355.3,137.4z"/>
			<path class="st0" d="M338,137.8c-0.9,0-1.7-0.8-1.7-1.7c0-0.9,0.8-1.7,1.7-1.7c0.9,0,1.7,0.8,1.7,1.7
				C339.7,137,338.9,137.8,338,137.8z"/>
			<path class="st0" d="M320.6,138.1c-1.1,0-2.1-0.9-2.1-2.1c0-1.1,0.9-2.1,2.1-2.1c1.1,0,2.1,0.9,2.1,2.1
				C322.7,137.2,321.8,138.1,320.6,138.1z"/>
			<path class="st0" d="M303.3,138.4c-1.3,0-2.4-1.1-2.4-2.4c0-1.3,1.1-2.4,2.4-2.4c1.3,0,2.4,1.1,2.4,2.4
				C305.7,137.4,304.6,138.4,303.3,138.4z"/>
			<path class="st0" d="M286,138.7c-1.5,0-2.6-1.2-2.6-2.6c0-1.5,1.2-2.6,2.6-2.6c1.5,0,2.6,1.2,2.6,2.6
				C288.6,137.5,287.4,138.7,286,138.7z"/>
			<path class="st0" d="M268.7,138.9c-1.5,0-2.8-1.2-2.8-2.8c0-1.5,1.2-2.8,2.8-2.8c1.5,0,2.8,1.2,2.8,2.8
				C271.4,137.6,270.2,138.9,268.7,138.9z"/>
			<path class="st0" d="M251.3,139c-1.6,0-2.9-1.3-2.9-2.9c0-1.6,1.3-2.9,2.9-2.9c1.6,0,2.9,1.3,2.9,2.9
				C254.2,137.7,252.9,139,251.3,139z"/>
			<path class="st0" d="M234,139c-1.6,0-2.9-1.3-2.9-2.9c0-1.6,1.3-2.9,2.9-2.9c1.6,0,2.9,1.3,2.9,2.9
				C236.9,137.7,235.6,139,234,139z"/>
			<path class="st0" d="M216.7,138.8c-1.5,0-2.7-1.2-2.7-2.7c0-1.5,1.2-2.7,2.7-2.7s2.7,1.2,2.7,2.7
				C219.4,137.6,218.2,138.8,216.7,138.8z"/>
			<path class="st0" d="M199.3,138.6c-1.4,0-2.5-1.1-2.5-2.5c0-1.4,1.1-2.5,2.5-2.5c1.4,0,2.5,1.1,2.5,2.5
				C201.9,137.5,200.7,138.6,199.3,138.6z"/>
			<path class="st0" d="M182,138.3c-1.2,0-2.2-1-2.2-2.2c0-1.2,1-2.2,2.2-2.2c1.2,0,2.2,1,2.2,2.2
				C184.2,137.3,183.2,138.3,182,138.3z"/>
			<path class="st0" d="M164.7,138c-1,0-1.9-0.8-1.9-1.9c0-1,0.8-1.9,1.9-1.9s1.9,0.8,1.9,1.9C166.6,137.1,165.7,138,164.7,138z"/>
			<path class="st0" d="M147.3,137.6c-0.8,0-1.5-0.7-1.5-1.5c0-0.8,0.7-1.5,1.5-1.5c0.8,0,1.5,0.7,1.5,1.5
				C148.8,136.9,148.2,137.6,147.3,137.6z"/>
			<path class="st0" d="M130,137.2c-0.6,0-1.1-0.5-1.1-1.1c0-0.6,0.5-1.1,1.1-1.1c0.6,0,1.1,0.5,1.1,1.1
				C131.1,136.7,130.6,137.2,130,137.2z"/>
			<path class="st0" d="M112.7,136.9c-0.4,0-0.8-0.3-0.8-0.8c0-0.4,0.3-0.8,0.8-0.8c0.4,0,0.8,0.3,0.8,0.8
				C113.5,136.5,113.1,136.9,112.7,136.9z"/>
			<path class="st0" d="M95.4,136.5c-0.2,0-0.4-0.2-0.4-0.4s0.2-0.4,0.4-0.4c0.2,0,0.4,0.2,0.4,0.4S95.6,136.5,95.4,136.5z"/>
			<path class="st0" d="M78,136.3c-0.1,0-0.2-0.1-0.2-0.2c0-0.1,0.1-0.2,0.2-0.2c0.1,0,0.2,0.1,0.2,0.2
				C78.2,136.2,78.1,136.3,78,136.3z"/>
			<path class="st0" d="M433.3,153.5C433.2,153.5,433.2,153.5,433.3,153.5c-0.1-0.1-0.1-0.2,0-0.2
				C433.3,153.3,433.4,153.4,433.3,153.5C433.4,153.5,433.3,153.5,433.3,153.5z"/>
			<path class="st0" d="M416,153.7c-0.2,0-0.3-0.1-0.3-0.3s0.2-0.3,0.3-0.3c0.2,0,0.3,0.2,0.3,0.3S416.1,153.7,416,153.7z"/>
			<path class="st0" d="M398.6,154.1c-0.4,0-0.7-0.3-0.7-0.7c0-0.4,0.3-0.7,0.7-0.7c0.4,0,0.7,0.3,0.7,0.7
				C399.3,153.8,399,154.1,398.6,154.1z"/>
			<path class="st0" d="M381.3,154.5c-0.6,0-1.1-0.5-1.1-1.1c0-0.6,0.5-1.1,1.1-1.1c0.6,0,1.1,0.5,1.1,1.1
				C382.4,154,381.9,154.5,381.3,154.5z"/>
			<path class="st0" d="M364,155c-0.9,0-1.6-0.7-1.6-1.6c0-0.9,0.7-1.6,1.6-1.6c0.9,0,1.6,0.7,1.6,1.6
				C365.6,154.3,364.8,155,364,155z"/>
			<circle class="st0" cx="346.6" cy="153.4" r="2.1"/>
			<path class="st0" d="M329.3,156c-1.4,0-2.6-1.2-2.6-2.6s1.2-2.6,2.6-2.6c1.4,0,2.6,1.2,2.6,2.6S330.7,156,329.3,156z"/>
			<path class="st0" d="M312,156.5c-1.7,0-3.1-1.4-3.1-3.1c0-1.7,1.4-3.1,3.1-3.1c1.7,0,3.1,1.4,3.1,3.1
				C315.1,155.1,313.7,156.5,312,156.5z"/>
			<path class="st0" d="M294.6,156.9c-1.9,0-3.5-1.6-3.5-3.5c0-1.9,1.6-3.5,3.5-3.5s3.5,1.6,3.5,3.5
				C298.2,155.3,296.6,156.9,294.6,156.9z"/>
			<path class="st0" d="M277.3,157.3c-2.2,0-3.9-1.7-3.9-3.9c0-2.2,1.7-3.9,3.9-3.9c2.1,0,3.9,1.7,3.9,3.9
				C281.2,155.6,279.5,157.3,277.3,157.3z"/>
			<path class="st0" d="M260,157.5c-2.3,0-4.1-1.9-4.1-4.1c0-2.3,1.8-4.1,4.1-4.1c2.3,0,4.1,1.9,4.1,4.1
				C264.1,155.7,262.3,157.5,260,157.5z"/>
			<path class="st0" d="M242.7,157.6c-2.3,0-4.2-1.9-4.2-4.2c0-2.3,1.9-4.2,4.2-4.2c2.3,0,4.2,1.9,4.2,4.2
				C246.9,155.7,245,157.6,242.7,157.6z"/>
			<path class="st0" d="M225.3,157.6c-2.3,0-4.2-1.9-4.2-4.2c0-2.3,1.9-4.2,4.2-4.2c2.3,0,4.2,1.9,4.2,4.2
				C229.5,155.7,227.6,157.6,225.3,157.6z"/>
			<path class="st0" d="M208,157.4c-2.2,0-4-1.8-4-4c0-2.2,1.8-4,4-4c2.2,0,4,1.8,4,4C212,155.6,210.2,157.4,208,157.4z"/>
			<path class="st0" d="M190.7,157.2c-2.1,0-3.7-1.7-3.7-3.7c0-2.1,1.7-3.7,3.7-3.7c2.1,0,3.8,1.7,3.8,3.7
				C194.4,155.5,192.7,157.2,190.7,157.2z"/>
			<path class="st0" d="M173.3,156.7c-1.8,0-3.3-1.5-3.3-3.3c0-1.8,1.5-3.3,3.3-3.3c1.8,0,3.3,1.5,3.3,3.3
				C176.7,155.2,175.2,156.7,173.3,156.7z"/>
			<path class="st0" d="M156,156.3c-1.6,0-2.9-1.3-2.9-2.9c0-1.6,1.3-2.9,2.9-2.9c1.6,0,2.9,1.3,2.9,2.9
				C158.9,155,157.6,156.3,156,156.3z"/>
			<path class="st0" d="M138.7,155.8c-1.3,0-2.4-1.1-2.4-2.4c0-1.3,1.1-2.4,2.4-2.4c1.3,0,2.4,1.1,2.4,2.4
				C141,154.7,140,155.8,138.7,155.8z"/>
			<path class="st0" d="M121.4,155.3c-1,0-1.9-0.8-1.9-1.9c0-1,0.8-1.9,1.9-1.9c1,0,1.9,0.8,1.9,1.9
				C123.2,154.4,122.4,155.3,121.4,155.3z"/>
			<path class="st0" d="M104,154.8c-0.7,0-1.3-0.6-1.3-1.3c0-0.7,0.6-1.3,1.3-1.3c0.7,0,1.3,0.6,1.3,1.3
				C105.4,154.2,104.8,154.8,104,154.8z"/>
			<path class="st0" d="M86.7,154.3c-0.5,0-0.9-0.4-0.9-0.9c0-0.5,0.4-0.9,0.9-0.9c0.5,0,0.9,0.4,0.9,0.9
				C87.6,153.9,87.2,154.3,86.7,154.3z"/>
			<path class="st0" d="M69.4,153.9c-0.3,0-0.5-0.2-0.5-0.5c0-0.3,0.2-0.5,0.5-0.5c0.3,0,0.5,0.2,0.5,0.5
				C69.8,153.7,69.6,153.9,69.4,153.9z"/>
			<path class="st0" d="M52,153.6c-0.1,0-0.2-0.1-0.2-0.2c0-0.1,0.1-0.2,0.2-0.2s0.2,0.1,0.2,0.2C52.2,153.5,52.1,153.6,52,153.6z"
				/>
			<path class="st0" d="M459.3,170.8C459.3,170.8,459.2,170.8,459.3,170.8C459.2,170.7,459.3,170.7,459.3,170.8
				C459.3,170.7,459.3,170.7,459.3,170.8C459.3,170.8,459.3,170.8,459.3,170.8z"/>
			<path class="st0" d="M442,171c-0.2,0-0.3-0.1-0.3-0.3c0-0.2,0.1-0.3,0.3-0.3c0.2,0,0.3,0.1,0.3,0.3
				C442.2,170.9,442.1,171,442,171z"/>
			<path class="st0" d="M424.6,171.4c-0.3,0-0.6-0.3-0.6-0.6c0-0.3,0.3-0.6,0.6-0.6c0.3,0,0.6,0.3,0.6,0.6
				C425.2,171.1,425,171.4,424.6,171.4z"/>
			<circle class="st0" cx="407.3" cy="170.7" r="1.1"/>
			<circle class="st0" cx="390" cy="170.7" r="1.7"/>
			<path class="st0" d="M372.6,173c-1.3,0-2.3-1-2.3-2.3c0-1.3,1-2.3,2.3-2.3c1.3,0,2.3,1,2.3,2.3C374.9,172,373.9,173,372.6,173z"
				/>
			<path class="st0" d="M355.3,173.7c-1.6,0-3-1.3-3-3c0-1.6,1.3-3,3-3c1.6,0,3,1.3,3,3C358.3,172.4,356.9,173.7,355.3,173.7z"/>
			<path class="st0" d="M338,174.3c-2,0-3.6-1.6-3.6-3.6c0-2,1.6-3.6,3.6-3.6c2,0,3.6,1.6,3.6,3.6C341.6,172.7,340,174.3,338,174.3z
				"/>
			<path class="st0" d="M320.6,175c-2.3,0-4.2-1.9-4.2-4.2c0-2.3,1.9-4.2,4.2-4.2c2.3,0,4.2,1.9,4.2,4.2
				C324.9,173.1,323,175,320.6,175z"/>
			<path class="st0" d="M303.3,175.5c-2.7,0-4.8-2.2-4.8-4.8c0-2.7,2.2-4.8,4.8-4.8c2.7,0,4.8,2.2,4.8,4.8
				C308.1,173.4,306,175.5,303.3,175.5z"/>
			<path class="st0" d="M286,176c-2.9,0-5.3-2.4-5.3-5.3s2.4-5.3,5.3-5.3c2.9,0,5.3,2.4,5.3,5.3S288.9,176,286,176z"/>
			<path class="st0" d="M268.7,176.4c-3.1,0-5.6-2.5-5.6-5.6s2.5-5.6,5.6-5.6c3.1,0,5.6,2.5,5.6,5.6S271.8,176.4,268.7,176.4z"/>
			<path class="st0" d="M251.3,176.5c-3.2,0-5.8-2.6-5.8-5.8c0-3.2,2.6-5.8,5.8-5.8c3.2,0,5.8,2.6,5.8,5.8
				C257.1,173.9,254.5,176.5,251.3,176.5z"/>
			<circle class="st0" cx="234" cy="170.7" r="5.7"/>
			<path class="st0" d="M216.7,176.2c-3,0-5.5-2.5-5.5-5.5c0-3,2.5-5.5,5.5-5.5s5.5,2.5,5.5,5.5
				C222.1,173.8,219.7,176.2,216.7,176.2z"/>
			<circle class="st0" cx="199.3" cy="170.7" r="5.1"/>
			<path class="st0" d="M182,175.3c-2.5,0-4.6-2-4.6-4.6c0-2.5,2-4.6,4.6-4.6c2.5,0,4.6,2,4.6,4.6
				C186.6,173.3,184.5,175.3,182,175.3z"/>
			<path class="st0" d="M164.7,174.7c-2.2,0-3.9-1.8-3.9-3.9c0-2.2,1.8-3.9,3.9-3.9c2.2,0,3.9,1.8,3.9,3.9
				C168.6,172.9,166.9,174.7,164.7,174.7z"/>
			<path class="st0" d="M147.3,174.1c-1.8,0-3.3-1.5-3.3-3.3c0-1.8,1.5-3.3,3.3-3.3c1.8,0,3.3,1.5,3.3,3.3
				C150.7,172.6,149.2,174.1,147.3,174.1z"/>
			<path class="st0" d="M130,173.4c-1.5,0-2.6-1.2-2.6-2.6c0-1.5,1.2-2.6,2.6-2.6c1.5,0,2.6,1.2,2.6,2.6
				C132.7,172.2,131.5,173.4,130,173.4z"/>
			<path class="st0" d="M112.7,172.8c-1.1,0-2-0.9-2-2c0-1.1,0.9-2,2-2c1.1,0,2,0.9,2,2C114.7,171.9,113.8,172.8,112.7,172.8z"/>
			<path class="st0" d="M95.4,172.1c-0.8,0-1.4-0.6-1.4-1.4s0.6-1.4,1.4-1.4c0.8,0,1.4,0.6,1.4,1.4S96.1,172.1,95.4,172.1z"/>
			<path class="st0" d="M78,171.7c-0.5,0-0.9-0.4-0.9-0.9c0-0.5,0.4-0.9,0.9-0.9c0.5,0,0.9,0.4,0.9,0.9
				C78.9,171.2,78.5,171.7,78,171.7z"/>
			<path class="st0" d="M60.7,171.2c-0.3,0-0.5-0.2-0.5-0.5c0-0.3,0.2-0.5,0.5-0.5c0.3,0,0.5,0.2,0.5,0.5
				C61.2,171,61,171.2,60.7,171.2z"/>
			<path class="st0" d="M43.4,170.9c-0.1,0-0.1-0.1-0.1-0.1c0-0.1,0.1-0.1,0.1-0.1c0.1,0,0.1,0.1,0.1,0.1
				C43.5,170.8,43.4,170.9,43.4,170.9z"/>
			<path class="st0" d="M450.6,188.3c-0.1,0-0.2-0.1-0.2-0.2c0-0.1,0.1-0.2,0.2-0.2c0.1,0,0.2,0.1,0.2,0.2
				C450.8,188.2,450.7,188.3,450.6,188.3z"/>
			<path class="st0" d="M433.3,188.6c-0.3,0-0.5-0.2-0.5-0.5c0-0.3,0.2-0.5,0.5-0.5c0.3,0,0.5,0.2,0.5,0.5
				C433.8,188.4,433.6,188.6,433.3,188.6z"/>
			<path class="st0" d="M416,189.1c-0.6,0-1-0.5-1-1c0-0.6,0.5-1,1-1c0.6,0,1,0.5,1,1C417,188.6,416.5,189.1,416,189.1z"/>
			<circle class="st0" cx="398.6" cy="188.1" r="1.6"/>
			<path class="st0" d="M381.3,190.3c-1.3,0-2.3-1-2.3-2.3s1-2.3,2.3-2.3c1.2,0,2.3,1,2.3,2.3S382.5,190.3,381.3,190.3z"/>
			<path class="st0" d="M364,191.1c-1.7,0-3-1.4-3-3s1.4-3,3-3c1.7,0,3,1.4,3,3S365.6,191.1,364,191.1z"/>
			<path class="st0" d="M346.6,191.9c-2.1,0-3.8-1.7-3.8-3.8c0-2.1,1.7-3.8,3.8-3.8c2.1,0,3.8,1.7,3.8,3.8
				C350.5,190.2,348.8,191.9,346.6,191.9z"/>
			<path class="st0" d="M329.3,192.7c-2.6,0-4.7-2.1-4.7-4.7c0-2.6,2.1-4.7,4.7-4.7c2.6,0,4.7,2.1,4.7,4.7
				C334,190.6,331.9,192.7,329.3,192.7z"/>
			<path class="st0" d="M312,193.5c-3,0-5.5-2.5-5.5-5.5c0-3,2.5-5.5,5.5-5.5c3,0,5.5,2.5,5.5,5.5C317.5,191.1,315,193.5,312,193.5z
				"/>
			<path class="st0" d="M294.6,194.3c-3.4,0-6.2-2.8-6.2-6.2c0-3.5,2.8-6.2,6.2-6.2c3.5,0,6.2,2.8,6.2,6.2
				C300.9,191.5,298.1,194.3,294.6,194.3z"/>
			<path class="st0" d="M277.3,194.9c-3.8,0-6.9-3.1-6.9-6.9c0-3.8,3.1-6.9,6.9-6.9c3.8,0,6.9,3.1,6.9,6.9
				C284.2,191.9,281.1,194.9,277.3,194.9z"/>
			<path class="st0" d="M260,195.4c-4,0-7.3-3.3-7.3-7.3c0-4,3.3-7.3,7.3-7.3c4,0,7.3,3.3,7.3,7.3C267.3,192.1,264,195.4,260,195.4z
				"/>
			<path class="st0" d="M242.7,195.6c-4.1,0-7.5-3.4-7.5-7.5c0-4.1,3.4-7.5,7.5-7.5c4.1,0,7.5,3.4,7.5,7.5
				C250.2,192.2,246.8,195.6,242.7,195.6z"/>
			<path class="st0" d="M225.3,195.5c-4.1,0-7.4-3.3-7.4-7.4s3.3-7.4,7.4-7.4c4.1,0,7.4,3.3,7.4,7.4S229.4,195.5,225.3,195.5z"/>
			<path class="st0" d="M208,195.2c-3.9,0-7.1-3.2-7.1-7.1c0-3.9,3.2-7.1,7.1-7.1c3.9,0,7.1,3.2,7.1,7.1
				C215.1,192,211.9,195.2,208,195.2z"/>
			<path class="st0" d="M190.7,194.7c-3.6,0-6.6-2.9-6.6-6.6s2.9-6.6,6.6-6.6c3.6,0,6.6,2.9,6.6,6.6S194.3,194.7,190.7,194.7z"/>
			<path class="st0" d="M173.3,194c-3.3,0-5.9-2.6-5.9-5.9c0-3.3,2.6-5.9,5.9-5.9c3.3,0,5.9,2.6,5.9,5.9
				C179.3,191.3,176.6,194,173.3,194z"/>
			<path class="st0" d="M156,193.2c-2.8,0-5.1-2.3-5.1-5.1c0-2.8,2.3-5.1,5.1-5.1s5.1,2.3,5.1,5.1
				C161.1,190.9,158.8,193.2,156,193.2z"/>
			<path class="st0" d="M138.7,192.3c-2.4,0-4.3-1.9-4.3-4.3c0-2.4,1.9-4.3,4.3-4.3c2.4,0,4.3,1.9,4.3,4.3
				C143,190.4,141,192.3,138.7,192.3z"/>
			<path class="st0" d="M121.4,191.5c-1.9,0-3.5-1.5-3.5-3.5c0-1.9,1.6-3.5,3.5-3.5c1.9,0,3.5,1.5,3.5,3.5
				C124.8,190,123.3,191.5,121.4,191.5z"/>
			<path class="st0" d="M104,190.8c-1.5,0-2.7-1.2-2.7-2.7s1.2-2.7,2.7-2.7c1.5,0,2.7,1.2,2.7,2.7S105.5,190.8,104,190.8z"/>
			<path class="st0" d="M86.7,190c-1.1,0-2-0.9-2-2c0-1.1,0.9-2,2-2c1.1,0,2,0.9,2,2C88.7,189.2,87.8,190,86.7,190z"/>
			<path class="st0" d="M69.4,189.4c-0.7,0-1.3-0.6-1.3-1.3c0-0.7,0.6-1.3,1.3-1.3c0.7,0,1.3,0.6,1.3,1.3
				C70.7,188.8,70.1,189.4,69.4,189.4z"/>
			<path class="st0" d="M52,188.8c-0.4,0-0.8-0.3-0.8-0.8c0-0.4,0.3-0.8,0.8-0.8s0.8,0.3,0.8,0.8C52.8,188.5,52.5,188.8,52,188.8z"
				/>
			<path class="st0" d="M34.7,188.4c-0.2,0-0.3-0.1-0.3-0.3c0-0.2,0.1-0.3,0.3-0.3c0.2,0,0.3,0.2,0.3,0.3
				C35,188.3,34.9,188.4,34.7,188.4z"/>
			<path class="st0" d="M17.4,188.1C17.4,188.1,17.3,188.1,17.4,188.1C17.3,188,17.4,188,17.4,188.1C17.4,188,17.4,188,17.4,188.1
				C17.4,188.1,17.4,188.1,17.4,188.1z"/>
			<path class="st0" d="M476.6,205.4C476.6,205.4,476.6,205.4,476.6,205.4C476.6,205.4,476.6,205.4,476.6,205.4
				C476.6,205.4,476.7,205.4,476.6,205.4C476.7,205.4,476.6,205.4,476.6,205.4z"/>
			<path class="st0" d="M459.3,205.7c-0.2,0-0.3-0.2-0.3-0.3c0-0.2,0.1-0.3,0.3-0.3c0.2,0,0.3,0.1,0.3,0.3
				C459.6,205.6,459.5,205.7,459.3,205.7z"/>
			<path class="st0" d="M442,206.2c-0.4,0-0.8-0.3-0.8-0.8c0-0.4,0.3-0.8,0.8-0.8c0.4,0,0.8,0.3,0.8,0.8
				C442.7,205.8,442.4,206.2,442,206.2z"/>
			<path class="st0" d="M424.6,206.7c-0.7,0-1.3-0.6-1.3-1.3c0-0.7,0.6-1.3,1.3-1.3c0.7,0,1.3,0.6,1.3,1.3
				C426,206.1,425.4,206.7,424.6,206.7z"/>
			<path class="st0" d="M407.3,207.4c-1.1,0-2-0.9-2-2c0-1.1,0.9-2,2-2s2,0.9,2,2C409.3,206.5,408.4,207.4,407.3,207.4z"/>
			<path class="st0" d="M390,208.2c-1.6,0-2.8-1.3-2.8-2.8c0-1.6,1.3-2.8,2.8-2.8c1.6,0,2.8,1.3,2.8,2.8
				C392.8,207,391.5,208.2,390,208.2z"/>
			<path class="st0" d="M372.6,209.1c-2,0-3.7-1.7-3.7-3.7c0-2,1.7-3.7,3.7-3.7c2,0,3.7,1.7,3.7,3.7
				C376.3,207.4,374.7,209.1,372.6,209.1z"/>
			<path class="st0" d="M355.3,210.1c-2.6,0-4.7-2.1-4.7-4.7c0-2.6,2.1-4.7,4.7-4.7c2.6,0,4.7,2.1,4.7,4.7
				C360,208,357.9,210.1,355.3,210.1z"/>
			<path class="st0" d="M338,211.1c-3.1,0-5.7-2.5-5.7-5.7c0-3.1,2.5-5.7,5.7-5.7c3.1,0,5.7,2.5,5.7,5.7
				C343.6,208.5,341.1,211.1,338,211.1z"/>
			<path class="st0" d="M320.6,212.1c-3.7,0-6.7-3-6.7-6.7c0-3.7,3-6.7,6.7-6.7c3.7,0,6.7,3,6.7,6.7
				C327.3,209.1,324.3,212.1,320.6,212.1z"/>
			<path class="st0" d="M303.3,213c-4.2,0-7.6-3.4-7.6-7.6c0-4.2,3.4-7.6,7.6-7.6c4.2,0,7.6,3.4,7.6,7.6
				C311,209.6,307.5,213,303.3,213z"/>
			<path class="st0" d="M286,213.9c-4.7,0-8.5-3.8-8.5-8.5c0-4.7,3.8-8.5,8.5-8.5s8.5,3.8,8.5,8.5
				C294.5,210.1,290.7,213.9,286,213.9z"/>
			<path class="st0" d="M268.7,214.3c-4.9,0-8.9-4-8.9-8.9c0-4.9,4-8.9,8.9-8.9c4.9,0,8.9,4,8.9,8.9
				C277.6,210.3,273.6,214.3,268.7,214.3z"/>
			<path class="st0" d="M251.3,214.3c-4.9,0-8.9-4-8.9-8.9c0-4.9,4-8.9,8.9-8.9c4.9,0,8.9,4,8.9,8.9
				C260.3,210.3,256.3,214.3,251.3,214.3z"/>
			<path class="st0" d="M234,214.3c-4.9,0-8.9-4-8.9-8.9c0-4.9,4-8.9,8.9-8.9c4.9,0,8.9,4,8.9,8.9
				C242.9,210.3,238.9,214.3,234,214.3z"/>
			<path class="st0" d="M216.7,214.3c-4.9,0-8.9-4-8.9-8.9c0-4.9,4-8.9,8.9-8.9c4.9,0,8.9,4,8.9,8.9
				C225.6,210.3,221.6,214.3,216.7,214.3z"/>
			<path class="st0" d="M199.3,213.6c-4.5,0-8.2-3.7-8.2-8.2c0-4.5,3.7-8.2,8.2-8.2c4.5,0,8.2,3.7,8.2,8.2
				C207.5,209.9,203.8,213.6,199.3,213.6z"/>
			<path class="st0" d="M182,212.6c-4,0-7.2-3.2-7.2-7.2c0-4,3.2-7.2,7.2-7.2c4,0,7.2,3.2,7.2,7.2C189.2,209.4,186,212.6,182,212.6z
				"/>
			<path class="st0" d="M164.7,211.6c-3.5,0-6.2-2.8-6.2-6.2c0-3.4,2.8-6.2,6.2-6.2c3.5,0,6.2,2.8,6.2,6.2
				C170.9,208.9,168.1,211.6,164.7,211.6z"/>
			<path class="st0" d="M147.3,210.6c-2.9,0-5.2-2.3-5.2-5.2c0-2.9,2.3-5.2,5.2-5.2c2.9,0,5.2,2.3,5.2,5.2
				C152.6,208.3,150.2,210.6,147.3,210.6z"/>
			<path class="st0" d="M130,209.6c-2.3,0-4.2-1.9-4.2-4.2c0-2.3,1.9-4.2,4.2-4.2c2.3,0,4.2,1.9,4.2,4.2
				C134.2,207.7,132.4,209.6,130,209.6z"/>
			<path class="st0" d="M112.7,208.7c-1.8,0-3.3-1.5-3.3-3.3c0-1.8,1.5-3.3,3.3-3.3c1.8,0,3.3,1.5,3.3,3.3
				C116,207.2,114.5,208.7,112.7,208.7z"/>
			<path class="st0" d="M95.4,207.9c-1.4,0-2.5-1.1-2.5-2.5c0-1.4,1.1-2.4,2.5-2.4c1.4,0,2.5,1.1,2.5,2.4
				C97.8,206.8,96.7,207.9,95.4,207.9z"/>
			<path class="st0" d="M78,207.1c-0.9,0-1.7-0.8-1.7-1.7c0-0.9,0.8-1.7,1.7-1.7c0.9,0,1.7,0.8,1.7,1.7
				C79.7,206.3,79,207.1,78,207.1z"/>
			<path class="st0" d="M60.7,206.5c-0.6,0-1.1-0.5-1.1-1.1c0-0.6,0.5-1.1,1.1-1.1c0.6,0,1.1,0.5,1.1,1.1
				C61.8,206,61.3,206.5,60.7,206.5z"/>
			<path class="st0" d="M43.4,205.9c-0.3,0-0.5-0.2-0.5-0.5c0-0.3,0.2-0.5,0.5-0.5c0.3,0,0.5,0.2,0.5,0.5
				C43.9,205.7,43.7,205.9,43.4,205.9z"/>
			<path class="st0" d="M26,205.6c-0.1,0-0.2-0.1-0.2-0.2c0-0.1,0.1-0.2,0.2-0.2c0.1,0,0.2,0.1,0.2,0.2
				C26.2,205.5,26.1,205.6,26,205.6z"/>
			<circle class="st0" cx="467.9" cy="222.7" r="0.1"/>
			<path class="st0" d="M450.6,223.2c-0.2,0-0.4-0.2-0.4-0.4s0.2-0.4,0.4-0.4c0.2,0,0.4,0.2,0.4,0.4S450.9,223.2,450.6,223.2z"/>
			<path class="st0" d="M433.3,223.7c-0.5,0-1-0.4-1-1c0-0.5,0.4-1,1-1c0.5,0,1,0.4,1,1C434.2,223.3,433.8,223.7,433.3,223.7z"/>
			<circle class="st0" cx="416" cy="222.7" r="1.6"/>
			<circle class="st0" cx="398.6" cy="222.7" r="2.4"/>
			<path class="st0" d="M381.3,226c-1.8,0-3.3-1.5-3.3-3.3c0-1.8,1.5-3.3,3.3-3.3c1.8,0,3.3,1.5,3.3,3.3
				C384.6,224.5,383.1,226,381.3,226z"/>
			<path class="st0" d="M364,227c-2.4,0-4.3-1.9-4.3-4.3c0-2.4,1.9-4.3,4.3-4.3c2.4,0,4.3,1.9,4.3,4.3
				C368.2,225.1,366.3,227,364,227z"/>
			<path class="st0" d="M346.6,228.1c-3,0-5.4-2.4-5.4-5.4c0-3,2.4-5.4,5.4-5.4c3,0,5.4,2.4,5.4,5.4
				C352,225.7,349.6,228.1,346.6,228.1z"/>
			<path class="st0" d="M329.3,229.3c-3.6,0-6.5-2.9-6.5-6.5c0-3.6,2.9-6.5,6.5-6.5c3.6,0,6.5,2.9,6.5,6.5
				C335.8,226.3,332.9,229.3,329.3,229.3z"/>
			<path class="st0" d="M312,230.5c-4.3,0-7.7-3.5-7.7-7.7c0-4.3,3.5-7.7,7.7-7.7c4.3,0,7.7,3.5,7.7,7.7
				C319.7,227,316.3,230.5,312,230.5z"/>
			<path class="st0" d="M294.6,231.7c-4.9,0-8.9-4-8.9-8.9c0-4.9,4-8.9,8.9-8.9c4.9,0,8.9,4,8.9,8.9
				C303.6,227.7,299.6,231.7,294.6,231.7z"/>
			<path class="st0" d="M277.3,231.7c-4.9,0-8.9-4-8.9-8.9c0-4.9,4-8.9,8.9-8.9c4.9,0,8.9,4,8.9,8.9
				C286.3,227.7,282.3,231.7,277.3,231.7z"/>
			<path class="st0" d="M260,231.7c-4.9,0-8.9-4-8.9-8.9c0-4.9,4-8.9,8.9-8.9c4.9,0,8.9,4,8.9,8.9
				C268.9,227.7,264.9,231.7,260,231.7z"/>
			<path class="st0" d="M242.7,231.7c-4.9,0-8.9-4-8.9-8.9c0-4.9,4-8.9,8.9-8.9c4.9,0,8.9,4,8.9,8.9
				C251.6,227.7,247.6,231.7,242.7,231.7z"/>
			<path class="st0" d="M225.3,231.7c-4.9,0-8.9-4-8.9-8.9c0-4.9,4-8.9,8.9-8.9c4.9,0,8.9,4,8.9,8.9
				C234.3,227.7,230.3,231.7,225.3,231.7z"/>
			<path class="st0" d="M208,231.7c-4.9,0-8.9-4-8.9-8.9c0-4.9,4-8.9,8.9-8.9c4.9,0,8.9,4,8.9,8.9
				C216.9,227.7,212.9,231.7,208,231.7z"/>
			<path class="st0" d="M190.7,231.7c-4.9,0-8.9-4-8.9-8.9c0-4.9,4-8.9,8.9-8.9c4.9,0,8.9,4,8.9,8.9
				C199.6,227.7,195.6,231.7,190.7,231.7z"/>
			<path class="st0" d="M173.3,231.1c-4.6,0-8.4-3.8-8.4-8.4c0-4.6,3.8-8.4,8.4-8.4c4.6,0,8.4,3.8,8.4,8.4
				C181.8,227.4,178,231.1,173.3,231.1z"/>
			<path class="st0" d="M156,229.9c-4,0-7.2-3.2-7.2-7.2c0-4,3.2-7.2,7.2-7.2c4,0,7.2,3.2,7.2,7.2C163.2,226.7,160,229.9,156,229.9z
				"/>
			<path class="st0" d="M138.7,228.7c-3.3,0-6-2.7-6-6c0-3.3,2.7-6,6-6c3.3,0,6,2.7,6,6C144.7,226,142,228.7,138.7,228.7z"/>
			<path class="st0" d="M121.4,227.6c-2.7,0-4.9-2.2-4.9-4.9s2.2-4.9,4.9-4.9c2.7,0,4.9,2.2,4.9,4.9S124,227.6,121.4,227.6z"/>
			<circle class="st0" cx="104" cy="222.7" r="3.8"/>
			<path class="st0" d="M86.7,225.6c-1.6,0-2.8-1.3-2.8-2.8c0-1.6,1.3-2.8,2.8-2.8c1.6,0,2.8,1.3,2.8,2.8
				C89.5,224.3,88.3,225.6,86.7,225.6z"/>
			<path class="st0" d="M69.4,224.7c-1.1,0-2-0.9-2-2c0-1.1,0.9-2,2-2c1.1,0,2,0.9,2,2C71.4,223.8,70.5,224.7,69.4,224.7z"/>
			<path class="st0" d="M52,224c-0.7,0-1.3-0.6-1.3-1.3c0-0.7,0.6-1.3,1.3-1.3s1.3,0.6,1.3,1.3C53.3,223.4,52.8,224,52,224z"/>
			<path class="st0" d="M34.7,223.5c-0.4,0-0.7-0.3-0.7-0.7c0-0.4,0.3-0.7,0.7-0.7c0.4,0,0.7,0.3,0.7,0.7
				C35.4,223.1,35.1,223.5,34.7,223.5z"/>
			<path class="st0" d="M17.4,223c-0.2,0-0.3-0.1-0.3-0.3c0-0.2,0.1-0.3,0.3-0.3c0.2,0,0.3,0.1,0.3,0.3
				C17.7,222.9,17.5,223,17.4,223z"/>
			<path class="st0" d="M0,222.8C0,222.8,0,222.8,0,222.8C0,222.7,0,222.7,0,222.8C0.1,222.7,0.1,222.7,0,222.8
				C0.1,222.8,0.1,222.8,0,222.8z"/>
			<path class="st0" d="M476.6,240.2c-0.1,0-0.1-0.1-0.1-0.1c0-0.1,0.1-0.1,0.1-0.1c0.1,0,0.1,0.1,0.1,0.1
				C476.8,240.1,476.7,240.2,476.6,240.2z"/>
			<path class="st0" d="M459.3,240.6c-0.3,0-0.5-0.2-0.5-0.5c0-0.3,0.2-0.5,0.5-0.5c0.3,0,0.5,0.2,0.5,0.5
				C459.8,240.4,459.6,240.6,459.3,240.6z"/>
			<path class="st0" d="M442,241.1c-0.6,0-1.1-0.5-1.1-1.1c0-0.6,0.5-1.1,1.1-1.1c0.6,0,1.1,0.5,1.1,1.1
				C443,240.6,442.5,241.1,442,241.1z"/>
			<path class="st0" d="M424.6,241.8c-1,0-1.8-0.8-1.8-1.8c0-1,0.8-1.8,1.8-1.8c1,0,1.8,0.8,1.8,1.8
				C426.4,241,425.6,241.8,424.6,241.8z"/>
			<path class="st0" d="M407.3,242.7c-1.4,0-2.6-1.2-2.6-2.6c0-1.4,1.2-2.6,2.6-2.6c1.4,0,2.6,1.2,2.6,2.6
				C409.9,241.5,408.7,242.7,407.3,242.7z"/>
			<path class="st0" d="M390,243.6c-2,0-3.6-1.6-3.6-3.6c0-2,1.6-3.6,3.6-3.6s3.6,1.6,3.6,3.6C393.5,242,391.9,243.6,390,243.6z"/>
			<path class="st0" d="M372.6,244.7c-2.5,0-4.6-2.1-4.6-4.6c0-2.5,2.1-4.6,4.6-4.6c2.6,0,4.6,2.1,4.6,4.6
				C377.2,242.6,375.2,244.7,372.6,244.7z"/>
			<path class="st0" d="M355.3,245.9c-3.2,0-5.8-2.6-5.8-5.8c0-3.2,2.6-5.8,5.8-5.8c3.2,0,5.8,2.6,5.8,5.8
				C361.1,243.3,358.5,245.9,355.3,245.9z"/>
			<path class="st0" d="M338,247.1c-3.9,0-7.1-3.2-7.1-7.1c0-3.9,3.2-7.1,7.1-7.1s7.1,3.2,7.1,7.1C345,244,341.9,247.1,338,247.1z"
				/>
			<path class="st0" d="M320.6,248.5c-4.7,0-8.5-3.8-8.5-8.5c0-4.7,3.8-8.5,8.5-8.5c4.7,0,8.5,3.8,8.5,8.5
				C329.1,244.7,325.3,248.5,320.6,248.5z"/>
			<path class="st0" d="M303.3,249c-4.9,0-8.9-4-8.9-8.9c0-4.9,4-8.9,8.9-8.9c4.9,0,8.9,4,8.9,8.9C312.3,245,308.3,249,303.3,249z"
				/>
			<path class="st0" d="M286,249c-4.9,0-8.9-4-8.9-8.9c0-4.9,4-8.9,8.9-8.9c4.9,0,8.9,4,8.9,8.9C294.9,245,290.9,249,286,249z"/>
			<path class="st0" d="M268.7,249c-4.9,0-8.9-4-8.9-8.9c0-4.9,4-8.9,8.9-8.9c4.9,0,8.9,4,8.9,8.9C277.6,245,273.6,249,268.7,249z"
				/>
			<path class="st0" d="M251.3,249c-4.9,0-8.9-4-8.9-8.9c0-4.9,4-8.9,8.9-8.9c4.9,0,8.9,4,8.9,8.9C260.3,245,256.3,249,251.3,249z"
				/>
			<path class="st0" d="M234,249c-4.9,0-8.9-4-8.9-8.9c0-4.9,4-8.9,8.9-8.9c4.9,0,8.9,4,8.9,8.9C242.9,245,238.9,249,234,249z"/>
			<path class="st0" d="M216.7,249c-4.9,0-8.9-4-8.9-8.9c0-4.9,4-8.9,8.9-8.9c4.9,0,8.9,4,8.9,8.9C225.6,245,221.6,249,216.7,249z"
				/>
			<path class="st0" d="M199.3,249c-4.9,0-8.9-4-8.9-8.9c0-4.9,4-8.9,8.9-8.9c4.9,0,8.9,4,8.9,8.9C208.3,245,204.3,249,199.3,249z"
				/>
			<path class="st0" d="M182,249c-4.9,0-8.9-4-8.9-8.9c0-4.9,4-8.9,8.9-8.9c4.9,0,8.9,4,8.9,8.9C190.9,245,186.9,249,182,249z"/>
			<path class="st0" d="M164.7,247.9c-4.3,0-7.8-3.5-7.8-7.8c0-4.3,3.5-7.8,7.8-7.8s7.8,3.5,7.8,7.8
				C172.5,244.4,169,247.9,164.7,247.9z"/>
			<path class="st0" d="M147.3,246.5c-3.6,0-6.5-2.9-6.5-6.5c0-3.6,2.9-6.5,6.5-6.5s6.5,2.9,6.5,6.5
				C153.8,243.6,150.9,246.5,147.3,246.5z"/>
			<path class="st0" d="M130,245.3c-2.9,0-5.3-2.4-5.3-5.3c0-2.9,2.4-5.3,5.3-5.3c2.9,0,5.3,2.4,5.3,5.3
				C135.3,243,132.9,245.3,130,245.3z"/>
			<path class="st0" d="M112.7,244.2c-2.3,0-4.1-1.8-4.1-4.1c0-2.3,1.8-4.1,4.1-4.1s4.1,1.8,4.1,4.1
				C116.8,242.3,115,244.2,112.7,244.2z"/>
			<path class="st0" d="M95.4,243.2c-1.7,0-3.1-1.4-3.1-3.1c0-1.7,1.4-3.1,3.1-3.1c1.7,0,3.1,1.4,3.1,3.1
				C98.5,241.8,97.1,243.2,95.4,243.2z"/>
			<path class="st0" d="M78,242.3c-1.2,0-2.2-1-2.2-2.2c0-1.2,1-2.2,2.2-2.2c1.2,0,2.2,1,2.2,2.2C80.2,241.3,79.3,242.3,78,242.3z"
				/>
			<path class="st0" d="M60.7,241.5c-0.8,0-1.4-0.6-1.4-1.4c0-0.8,0.6-1.4,1.4-1.4c0.8,0,1.4,0.6,1.4,1.4
				C62.1,240.9,61.5,241.5,60.7,241.5z"/>
			<path class="st0" d="M43.4,240.9c-0.5,0-0.8-0.4-0.8-0.8c0-0.5,0.4-0.8,0.8-0.8c0.5,0,0.8,0.4,0.8,0.8
				C44.2,240.5,43.8,240.9,43.4,240.9z"/>
			<path class="st0" d="M26,240.4c-0.2,0-0.3-0.2-0.3-0.3c0-0.2,0.2-0.3,0.3-0.3c0.2,0,0.3,0.2,0.3,0.3
				C26.4,240.2,26.2,240.4,26,240.4z"/>
			<path class="st0" d="M8.7,240.1C8.7,240.1,8.7,240.1,8.7,240.1C8.7,240,8.7,240,8.7,240.1C8.7,240,8.8,240,8.7,240.1
				C8.8,240.1,8.7,240.1,8.7,240.1z"/>
			<path class="st0" d="M467.9,257.6c-0.1,0-0.2-0.1-0.2-0.2c0-0.1,0.1-0.2,0.2-0.2c0.1,0,0.2,0.1,0.2,0.2
				C468.1,257.5,468,257.6,467.9,257.6z"/>
			<path class="st0" d="M450.6,257.9c-0.3,0-0.5-0.2-0.5-0.5c0-0.3,0.2-0.5,0.5-0.5c0.3,0,0.5,0.2,0.5,0.5
				C451.1,257.7,450.9,257.9,450.6,257.9z"/>
			<path class="st0" d="M433.3,258.5c-0.6,0-1.1-0.5-1.1-1.1c0-0.6,0.5-1.1,1.1-1.1c0.6,0,1.1,0.5,1.1,1.1
				C434.4,258,433.9,258.5,433.3,258.5z"/>
			<path class="st0" d="M416,259.2c-1,0-1.8-0.8-1.8-1.8c0-1,0.8-1.8,1.8-1.8c1,0,1.8,0.8,1.8,1.8C417.8,258.4,417,259.2,416,259.2z
				"/>
			<path class="st0" d="M398.6,260c-1.5,0-2.6-1.2-2.6-2.6s1.2-2.6,2.6-2.6s2.6,1.2,2.6,2.6S400.1,260,398.6,260z"/>
			<path class="st0" d="M381.3,261c-2,0-3.6-1.6-3.6-3.6c0-2,1.6-3.6,3.6-3.6c2,0,3.6,1.6,3.6,3.6C384.9,259.4,383.3,261,381.3,261z
				"/>
			<path class="st0" d="M364,262.1c-2.6,0-4.7-2.1-4.7-4.7c0-2.6,2.1-4.7,4.7-4.7c2.6,0,4.7,2.1,4.7,4.7
				C368.7,260,366.6,262.1,364,262.1z"/>
			<path class="st0" d="M346.6,263.3c-3.3,0-5.9-2.6-5.9-5.9c0-3.3,2.6-5.9,5.9-5.9c3.3,0,5.9,2.6,5.9,5.9
				C352.5,260.7,349.9,263.3,346.6,263.3z"/>
			<path class="st0" d="M329.3,264.6c-4,0-7.3-3.2-7.3-7.3c0-4,3.2-7.3,7.3-7.3c4,0,7.3,3.2,7.3,7.3
				C336.6,261.4,333.3,264.6,329.3,264.6z"/>
			<path class="st0" d="M312,266.1c-4.8,0-8.7-3.9-8.7-8.7s3.9-8.7,8.7-8.7c4.8,0,8.7,3.9,8.7,8.7S316.8,266.1,312,266.1z"/>
			<path class="st0" d="M294.6,266.3c-4.9,0-8.9-4-8.9-8.9c0-4.9,4-8.9,8.9-8.9c4.9,0,8.9,4,8.9,8.9
				C303.6,262.3,299.6,266.3,294.6,266.3z"/>
			<path class="st0" d="M277.3,266.3c-4.9,0-8.9-4-8.9-8.9c0-4.9,4-8.9,8.9-8.9c4.9,0,8.9,4,8.9,8.9
				C286.3,262.3,282.3,266.3,277.3,266.3z"/>
			<path class="st0" d="M260,266.3c-4.9,0-8.9-4-8.9-8.9c0-4.9,4-8.9,8.9-8.9c4.9,0,8.9,4,8.9,8.9
				C268.9,262.3,264.9,266.3,260,266.3z"/>
			<path class="st0" d="M242.7,266.3c-4.9,0-8.9-4-8.9-8.9c0-4.9,4-8.9,8.9-8.9c4.9,0,8.9,4,8.9,8.9
				C251.6,262.3,247.6,266.3,242.7,266.3z"/>
			<path class="st0" d="M225.3,266.3c-4.9,0-8.9-4-8.9-8.9c0-4.9,4-8.9,8.9-8.9c4.9,0,8.9,4,8.9,8.9
				C234.3,262.3,230.3,266.3,225.3,266.3z"/>
			<path class="st0" d="M208,266.3c-4.9,0-8.9-4-8.9-8.9c0-4.9,4-8.9,8.9-8.9c4.9,0,8.9,4,8.9,8.9
				C216.9,262.3,212.9,266.3,208,266.3z"/>
			<path class="st0" d="M190.7,266.3c-4.9,0-8.9-4-8.9-8.9c0-4.9,4-8.9,8.9-8.9c4.9,0,8.9,4,8.9,8.9
				C199.6,262.3,195.6,266.3,190.7,266.3z"/>
			<path class="st0" d="M173.3,266.3c-4.9,0-8.9-4-8.9-8.9c0-4.9,4-8.9,8.9-8.9c4.9,0,8.9,4,8.9,8.9
				C182.3,262.3,178.3,266.3,173.3,266.3z"/>
			<path class="st0" d="M156,265.4c-4.4,0-8-3.6-8-8c0-4.4,3.6-8,8-8s8,3.6,8,8C164,261.8,160.4,265.4,156,265.4z"/>
			<path class="st0" d="M138.7,264c-3.7,0-6.6-3-6.6-6.6c0-3.7,3-6.6,6.6-6.6c3.7,0,6.6,3,6.6,6.6C145.3,261.1,142.3,264,138.7,264z
				"/>
			<path class="st0" d="M121.4,262.8c-3,0-5.4-2.4-5.4-5.4c0-3,2.4-5.4,5.4-5.4c3,0,5.4,2.4,5.4,5.4
				C126.7,260.4,124.3,262.8,121.4,262.8z"/>
			<path class="st0" d="M104,261.6c-2.3,0-4.2-1.9-4.2-4.2c0-2.3,1.9-4.2,4.2-4.2c2.3,0,4.2,1.9,4.2,4.2
				C108.3,259.7,106.4,261.6,104,261.6z"/>
			
				<ellipse transform="matrix(0.1602 -0.9871 0.9871 0.1602 -181.2577 301.7365)" class="st0" cx="86.7" cy="257.4" rx="3.2" ry="3.2"/>
			<path class="st0" d="M69.4,259.6c-1.2,0-2.3-1-2.3-2.3c0-1.2,1-2.3,2.3-2.3c1.3,0,2.3,1,2.3,2.3
				C71.6,258.6,70.6,259.6,69.4,259.6z"/>
			<path class="st0" d="M52,258.9c-0.8,0-1.5-0.7-1.5-1.5c0-0.8,0.7-1.5,1.5-1.5s1.5,0.7,1.5,1.5C53.5,258.2,52.9,258.9,52,258.9z"
				/>
			<path class="st0" d="M34.7,258.3c-0.5,0-0.9-0.4-0.9-0.9s0.4-0.9,0.9-0.9s0.9,0.4,0.9,0.9S35.2,258.3,34.7,258.3z"/>
			<path class="st0" d="M17.4,257.8c-0.2,0-0.4-0.2-0.4-0.4c0-0.2,0.2-0.4,0.4-0.4c0.2,0,0.4,0.2,0.4,0.4
				C17.8,257.6,17.6,257.8,17.4,257.8z"/>
			<path class="st0" d="M0,257.4C0,257.4,0,257.4,0,257.4C0,257.4,0,257.3,0,257.4C0.1,257.3,0.1,257.4,0,257.4
				C0.1,257.4,0.1,257.4,0,257.4z"/>
			<path class="st0" d="M476.6,274.9c-0.1,0-0.1-0.1-0.1-0.1c0-0.1,0.1-0.1,0.1-0.1c0.1,0,0.1,0.1,0.1,0.1
				C476.8,274.8,476.7,274.9,476.6,274.9z"/>
			<path class="st0" d="M459.3,275.2c-0.3,0-0.5-0.2-0.5-0.5c0-0.3,0.2-0.5,0.5-0.5c0.3,0,0.5,0.2,0.5,0.5
				C459.8,275,459.6,275.2,459.3,275.2z"/>
			<path class="st0" d="M442,275.8c-0.6,0-1.1-0.5-1.1-1.1c0-0.6,0.5-1.1,1.1-1.1c0.6,0,1.1,0.5,1.1,1.1
				C443,275.3,442.5,275.8,442,275.8z"/>
			<path class="st0" d="M424.6,276.4c-1,0-1.7-0.8-1.7-1.7c0-1,0.8-1.7,1.7-1.7c1,0,1.7,0.8,1.7,1.7
				C426.4,275.7,425.6,276.4,424.6,276.4z"/>
			<path class="st0" d="M407.3,277.3c-1.4,0-2.5-1.1-2.5-2.5c0-1.4,1.1-2.5,2.5-2.5c1.4,0,2.5,1.1,2.5,2.5
				C409.8,276.1,408.7,277.3,407.3,277.3z"/>
			<path class="st0" d="M390,278.2c-1.9,0-3.5-1.6-3.5-3.5c0-1.9,1.6-3.5,3.5-3.5s3.5,1.6,3.5,3.5
				C393.5,276.7,391.9,278.2,390,278.2z"/>
			<path class="st0" d="M372.6,279.3c-2.5,0-4.6-2-4.6-4.6c0-2.5,2-4.6,4.6-4.6c2.5,0,4.6,2,4.6,4.6
				C377.2,277.2,375.2,279.3,372.6,279.3z"/>
			<path class="st0" d="M355.3,280.4c-3.2,0-5.7-2.6-5.7-5.7c0-3.2,2.6-5.7,5.7-5.7c3.2,0,5.7,2.6,5.7,5.7
				C361,277.9,358.5,280.4,355.3,280.4z"/>
			<path class="st0" d="M338,281.7c-3.9,0-7-3.1-7-7c0-3.8,3.1-7,7-7c3.9,0,7,3.1,7,7C344.9,278.6,341.8,281.7,338,281.7z"/>
			<path class="st0" d="M320.6,283c-4.6,0-8.3-3.7-8.3-8.3c0-4.6,3.7-8.3,8.3-8.3c4.6,0,8.3,3.7,8.3,8.3
				C329,279.3,325.2,283,320.6,283z"/>
			<path class="st0" d="M303.3,283.7c-4.9,0-8.9-4-8.9-8.9c0-4.9,4-8.9,8.9-8.9c4.9,0,8.9,4,8.9,8.9
				C312.3,279.7,308.3,283.7,303.3,283.7z"/>
			<path class="st0" d="M286,283.7c-4.9,0-8.9-4-8.9-8.9c0-4.9,4-8.9,8.9-8.9c4.9,0,8.9,4,8.9,8.9
				C294.9,279.7,290.9,283.7,286,283.7z"/>
			<path class="st0" d="M268.7,283.7c-4.9,0-8.9-4-8.9-8.9c0-4.9,4-8.9,8.9-8.9c4.9,0,8.9,4,8.9,8.9
				C277.6,279.7,273.6,283.7,268.7,283.7z"/>
			<path class="st0" d="M251.3,283.7c-4.9,0-8.9-4-8.9-8.9c0-4.9,4-8.9,8.9-8.9c4.9,0,8.9,4,8.9,8.9
				C260.3,279.7,256.3,283.7,251.3,283.7z"/>
			<path class="st0" d="M234,283.7c-4.9,0-8.9-4-8.9-8.9c0-4.9,4-8.9,8.9-8.9c4.9,0,8.9,4,8.9,8.9
				C242.9,279.7,238.9,283.7,234,283.7z"/>
			<path class="st0" d="M216.7,283.7c-4.9,0-8.9-4-8.9-8.9c0-4.9,4-8.9,8.9-8.9c4.9,0,8.9,4,8.9,8.9
				C225.6,279.7,221.6,283.7,216.7,283.7z"/>
			<path class="st0" d="M199.3,283.7c-4.9,0-8.9-4-8.9-8.9c0-4.9,4-8.9,8.9-8.9c4.9,0,8.9,4,8.9,8.9
				C208.3,279.7,204.3,283.7,199.3,283.7z"/>
			<path class="st0" d="M182,283.7c-4.9,0-8.9-4-8.9-8.9c0-4.9,4-8.9,8.9-8.9c4.9,0,8.9,4,8.9,8.9
				C190.9,279.7,186.9,283.7,182,283.7z"/>
			<path class="st0" d="M164.7,282.4c-4.2,0-7.7-3.4-7.7-7.7c0-4.2,3.4-7.7,7.7-7.7s7.7,3.4,7.7,7.7
				C172.4,279,168.9,282.4,164.7,282.4z"/>
			<path class="st0" d="M147.3,281.1c-3.5,0-6.4-2.9-6.4-6.4c0-3.5,2.9-6.4,6.4-6.4c3.5,0,6.4,2.9,6.4,6.4
				C153.7,278.2,150.9,281.1,147.3,281.1z"/>
			<path class="st0" d="M130,279.9c-2.9,0-5.2-2.3-5.2-5.2s2.3-5.2,5.2-5.2c2.9,0,5.2,2.3,5.2,5.2S132.9,279.9,130,279.9z"/>
			<path class="st0" d="M112.7,278.8c-2.3,0-4.1-1.8-4.1-4.1c0-2.3,1.8-4.1,4.1-4.1c2.3,0,4.1,1.8,4.1,4.1
				C116.8,277,114.9,278.8,112.7,278.8z"/>
			<path class="st0" d="M95.4,277.8c-1.7,0-3.1-1.4-3.1-3.1c0-1.7,1.4-3.1,3.1-3.1c1.7,0,3.1,1.4,3.1,3.1
				C98.4,276.4,97.1,277.8,95.4,277.8z"/>
			<path class="st0" d="M78,276.9c-1.2,0-2.2-1-2.2-2.2c0-1.2,1-2.2,2.2-2.2c1.2,0,2.2,1,2.2,2.2C80.2,275.9,79.2,276.9,78,276.9z"
				/>
			<path class="st0" d="M60.7,276.1c-0.8,0-1.4-0.6-1.4-1.4c0-0.8,0.6-1.4,1.4-1.4c0.8,0,1.4,0.6,1.4,1.4
				C62.1,275.5,61.5,276.1,60.7,276.1z"/>
			<path class="st0" d="M43.4,275.5c-0.4,0-0.8-0.3-0.8-0.8c0-0.4,0.3-0.8,0.8-0.8c0.4,0,0.8,0.3,0.8,0.8
				C44.1,275.1,43.8,275.5,43.4,275.5z"/>
			<path class="st0" d="M26,275.1c-0.2,0-0.3-0.1-0.3-0.3s0.2-0.3,0.3-0.3c0.2,0,0.3,0.2,0.3,0.3S26.2,275.1,26,275.1z"/>
			<path class="st0" d="M8.7,274.8C8.7,274.8,8.7,274.7,8.7,274.8C8.7,274.7,8.7,274.7,8.7,274.8C8.7,274.7,8.8,274.7,8.7,274.8
				C8.8,274.7,8.7,274.8,8.7,274.8z"/>
			<path class="st0" d="M467.9,292.1C467.9,292.1,467.8,292.1,467.9,292.1c-0.1-0.1-0.1-0.2,0-0.2C468,292,468,292,467.9,292.1
				C468,292.1,468,292.1,467.9,292.1z"/>
			<path class="st0" d="M450.6,292.5c-0.2,0-0.4-0.2-0.4-0.4c0-0.2,0.2-0.4,0.4-0.4c0.2,0,0.4,0.2,0.4,0.4
				C451,292.3,450.9,292.5,450.6,292.5z"/>
			<path class="st0" d="M433.3,293c-0.5,0-0.9-0.4-0.9-0.9c0-0.5,0.4-0.9,0.9-0.9c0.5,0,0.9,0.4,0.9,0.9
				C434.2,292.6,433.8,293,433.3,293z"/>
			<path class="st0" d="M416,293.6c-0.8,0-1.5-0.7-1.5-1.5s0.7-1.5,1.5-1.5c0.8,0,1.5,0.7,1.5,1.5S416.8,293.6,416,293.6z"/>
			<circle class="st0" cx="398.6" cy="292" r="2.3"/>
			<path class="st0" d="M381.3,295.2c-1.8,0-3.2-1.4-3.2-3.2c0-1.8,1.4-3.2,3.2-3.2c1.8,0,3.2,1.4,3.2,3.2
				C384.5,293.8,383,295.2,381.3,295.2z"/>
			<path class="st0" d="M364,296.2c-2.3,0-4.1-1.9-4.1-4.1c0-2.3,1.8-4.1,4.1-4.1c2.3,0,4.1,1.9,4.1,4.1
				C368.1,294.3,366.3,296.2,364,296.2z"/>
			<path class="st0" d="M346.6,297.2c-2.9,0-5.2-2.3-5.2-5.2s2.3-5.2,5.2-5.2s5.2,2.3,5.2,5.2S349.5,297.2,346.6,297.2z"/>
			<path class="st0" d="M329.3,298.4c-3.5,0-6.3-2.8-6.3-6.3c0-3.5,2.8-6.3,6.3-6.3c3.5,0,6.3,2.8,6.3,6.3
				C335.7,295.6,332.8,298.4,329.3,298.4z"/>
			<path class="st0" d="M312,299.5c-4.1,0-7.5-3.4-7.5-7.5c0-4.1,3.4-7.5,7.5-7.5c4.1,0,7.5,3.4,7.5,7.5
				C319.5,296.2,316.1,299.5,312,299.5z"/>
			<path class="st0" d="M294.6,300.7c-4.8,0-8.6-3.9-8.6-8.7c0-4.8,3.9-8.6,8.6-8.6s8.7,3.9,8.7,8.6
				C303.3,296.8,299.4,300.7,294.6,300.7z"/>
			<path class="st0" d="M277.3,301c-4.9,0-8.9-4-8.9-8.9c0-4.9,4-8.9,8.9-8.9c4.9,0,8.9,4,8.9,8.9C286.3,297,282.3,301,277.3,301z"
				/>
			<path class="st0" d="M260,301c-4.9,0-8.9-4-8.9-8.9c0-4.9,4-8.9,8.9-8.9c4.9,0,8.9,4,8.9,8.9C268.9,297,264.9,301,260,301z"/>
			<path class="st0" d="M242.7,301c-4.9,0-8.9-4-8.9-8.9c0-4.9,4-8.9,8.9-8.9c4.9,0,8.9,4,8.9,8.9C251.6,297,247.6,301,242.7,301z"
				/>
			<path class="st0" d="M225.3,301c-4.9,0-8.9-4-8.9-8.9c0-4.9,4-8.9,8.9-8.9c4.9,0,8.9,4,8.9,8.9C234.3,297,230.3,301,225.3,301z"
				/>
			<path class="st0" d="M208,301c-4.9,0-8.9-4-8.9-8.9c0-4.9,4-8.9,8.9-8.9c4.9,0,8.9,4,8.9,8.9C216.9,297,212.9,301,208,301z"/>
			<path class="st0" d="M190.7,301c-4.9,0-8.9-4-8.9-8.9c0-4.9,4-8.9,8.9-8.9c4.9,0,8.9,4,8.9,8.9C199.6,297,195.6,301,190.7,301z"
				/>
			<path class="st0" d="M173.3,300.2c-4.5,0-8.1-3.6-8.1-8.1s3.6-8.1,8.1-8.1c4.5,0,8.1,3.6,8.1,8.1S177.8,300.2,173.3,300.2z"/>
			<circle class="st0" cx="156" cy="292" r="7"/>
			<path class="st0" d="M138.7,297.9c-3.2,0-5.8-2.6-5.8-5.8c0-3.2,2.6-5.8,5.8-5.8c3.2,0,5.8,2.6,5.8,5.8
				C144.5,295.3,141.9,297.9,138.7,297.9z"/>
			<path class="st0" d="M121.4,296.8c-2.6,0-4.7-2.1-4.7-4.7c0-2.6,2.1-4.7,4.7-4.7c2.6,0,4.7,2.1,4.7,4.7
				C126.1,294.6,124,296.8,121.4,296.8z"/>
			<path class="st0" d="M104,295.7c-2,0-3.7-1.7-3.7-3.7c0-2,1.7-3.7,3.7-3.7c2,0,3.7,1.7,3.7,3.7
				C107.7,294.1,106.1,295.7,104,295.7z"/>
			<path class="st0" d="M86.7,294.8c-1.5,0-2.7-1.2-2.7-2.7c0-1.5,1.2-2.7,2.7-2.7c1.5,0,2.7,1.2,2.7,2.7
				C89.4,293.6,88.2,294.8,86.7,294.8z"/>
			<path class="st0" d="M69.4,294c-1.1,0-1.9-0.9-1.9-1.9s0.9-1.9,1.9-1.9c1.1,0,1.9,0.9,1.9,1.9S70.4,294,69.4,294z"/>
			<path class="st0" d="M52,293.3c-0.7,0-1.3-0.6-1.3-1.3c0-0.7,0.6-1.2,1.3-1.2s1.3,0.6,1.3,1.2C53.3,292.7,52.7,293.3,52,293.3z"
				/>
			<path class="st0" d="M34.7,292.7c-0.4,0-0.7-0.3-0.7-0.7c0-0.4,0.3-0.7,0.7-0.7s0.7,0.3,0.7,0.7
				C35.4,292.4,35.1,292.7,34.7,292.7z"/>
			<circle class="st0" cx="17.4" cy="292" r="0.2"/>
			<path class="st0" d="M476.6,309.4C476.6,309.4,476.6,309.4,476.6,309.4C476.6,309.4,476.6,309.3,476.6,309.4
				C476.6,309.3,476.7,309.4,476.6,309.4C476.7,309.4,476.6,309.4,476.6,309.4z"/>
			<path class="st0" d="M459.3,309.7c-0.2,0-0.3-0.1-0.3-0.3c0-0.2,0.1-0.3,0.3-0.3c0.2,0,0.3,0.1,0.3,0.3
				C459.6,309.5,459.4,309.7,459.3,309.7z"/>
			<path class="st0" d="M442,310.1c-0.4,0-0.7-0.3-0.7-0.7c0-0.4,0.3-0.7,0.7-0.7c0.4,0,0.7,0.3,0.7,0.7
				C442.6,309.8,442.3,310.1,442,310.1z"/>
			<path class="st0" d="M424.6,310.6c-0.7,0-1.2-0.6-1.2-1.2c0-0.7,0.6-1.3,1.2-1.3c0.7,0,1.3,0.6,1.3,1.3
				C425.9,310.1,425.3,310.6,424.6,310.6z"/>
			<path class="st0" d="M407.3,311.3c-1.1,0-1.9-0.9-1.9-1.9c0-1.1,0.9-1.9,1.9-1.9s1.9,0.9,1.9,1.9
				C409.2,310.4,408.4,311.3,407.3,311.3z"/>
			<path class="st0" d="M390,312.1c-1.5,0-2.7-1.2-2.7-2.7c0-1.5,1.2-2.7,2.7-2.7c1.5,0,2.7,1.2,2.7,2.7
				C392.7,310.9,391.4,312.1,390,312.1z"/>
			<path class="st0" d="M372.6,312.9c-2,0-3.6-1.6-3.6-3.6c0-2,1.6-3.6,3.6-3.6c2,0,3.6,1.6,3.6,3.6
				C376.2,311.3,374.6,312.9,372.6,312.9z"/>
			<path class="st0" d="M355.3,313.8c-2.5,0-4.5-2-4.5-4.5c0-2.5,2-4.5,4.5-4.5c2.5,0,4.5,2,4.5,4.5
				C359.8,311.8,357.8,313.8,355.3,313.8z"/>
			<path class="st0" d="M338,314.8c-3,0-5.4-2.4-5.4-5.4c0-3,2.4-5.4,5.4-5.4c3,0,5.4,2.4,5.4,5.4C343.4,312.4,341,314.8,338,314.8z
				"/>
			<path class="st0" d="M320.6,315.8c-3.5,0-6.4-2.9-6.4-6.4c0-3.5,2.9-6.4,6.4-6.4c3.5,0,6.4,2.9,6.4,6.4
				C327,312.9,324.2,315.8,320.6,315.8z"/>
			<path class="st0" d="M303.3,316.7c-4,0-7.3-3.3-7.3-7.3c0-4,3.3-7.3,7.3-7.3c4,0,7.3,3.3,7.3,7.3
				C310.6,313.4,307.4,316.7,303.3,316.7z"/>
			<path class="st0" d="M286,317.5c-4.5,0-8.1-3.6-8.1-8.1c0-4.5,3.6-8.1,8.1-8.1s8.1,3.6,8.1,8.1
				C294.1,313.8,290.4,317.5,286,317.5z"/>
			<path class="st0" d="M268.7,318c-4.8,0-8.7-3.9-8.7-8.6c0-4.8,3.9-8.7,8.7-8.7c4.8,0,8.7,3.9,8.7,8.7
				C277.3,314.2,273.4,318,268.7,318z"/>
			<path class="st0" d="M251.3,318.3c-4.9,0-8.9-4-8.9-8.9c0-4.9,4-8.9,8.9-8.9c4.9,0,8.9,4,8.9,8.9
				C260.3,314.3,256.3,318.3,251.3,318.3z"/>
			<path class="st0" d="M234,318.2c-4.9,0-8.8-4-8.8-8.8c0-4.9,4-8.8,8.8-8.8s8.8,4,8.8,8.8C242.8,314.3,238.9,318.2,234,318.2z"/>
			<path class="st0" d="M216.7,317.8c-4.6,0-8.4-3.8-8.4-8.4c0-4.6,3.8-8.4,8.4-8.4c4.6,0,8.4,3.8,8.4,8.4
				C225.1,314,221.3,317.8,216.7,317.8z"/>
			<path class="st0" d="M199.3,317.1c-4.3,0-7.7-3.5-7.7-7.7c0-4.3,3.5-7.7,7.7-7.7c4.3,0,7.7,3.5,7.7,7.7
				C207.1,313.7,203.6,317.1,199.3,317.1z"/>
			<path class="st0" d="M182,316.2c-3.8,0-6.9-3.1-6.9-6.9c0-3.8,3.1-6.9,6.9-6.9c3.8,0,6.9,3.1,6.9,6.9
				C188.9,313.2,185.8,316.2,182,316.2z"/>
			<path class="st0" d="M164.7,315.3c-3.3,0-6-2.7-6-6c0-3.3,2.7-6,6-6s6,2.7,6,6C170.6,312.7,168,315.3,164.7,315.3z"/>
			<path class="st0" d="M147.3,314.4c-2.8,0-5-2.2-5-5c0-2.8,2.2-5,5-5c2.8,0,5,2.2,5,5C152.3,312.1,150.1,314.4,147.3,314.4z"/>
			<path class="st0" d="M130,313.4c-2.2,0-4-1.8-4-4c0-2.2,1.8-4,4-4c2.2,0,4,1.8,4,4C134.1,311.6,132.2,313.4,130,313.4z"/>
			<circle class="st0" cx="112.7" cy="309.4" r="3.2"/>
			<path class="st0" d="M95.4,311.7c-1.3,0-2.3-1-2.3-2.3c0-1.3,1-2.3,2.3-2.3c1.3,0,2.3,1,2.3,2.3
				C97.7,310.7,96.6,311.7,95.4,311.7z"/>
			<circle class="st0" cx="78" cy="309.4" r="1.6"/>
			<path class="st0" d="M60.7,310.3c-0.5,0-1-0.4-1-1c0-0.5,0.4-1,1-1c0.5,0,1,0.4,1,1C61.7,309.9,61.2,310.3,60.7,310.3z"/>
			<path class="st0" d="M43.4,309.9c-0.3,0-0.5-0.2-0.5-0.5c0-0.3,0.2-0.5,0.5-0.5c0.3,0,0.5,0.2,0.5,0.5
				C43.9,309.6,43.6,309.9,43.4,309.9z"/>
			<path class="st0" d="M26,309.5c-0.1,0-0.1-0.1-0.1-0.1c0-0.1,0.1-0.1,0.1-0.1c0.1,0,0.1,0.1,0.1,0.1
				C26.2,309.5,26.1,309.5,26,309.5z"/>
			<path class="st0" d="M450.6,326.9c-0.1,0-0.1-0.1-0.1-0.1c0-0.1,0.1-0.1,0.1-0.1c0.1,0,0.1,0.1,0.1,0.1
				C450.8,326.8,450.7,326.9,450.6,326.9z"/>
			<path class="st0" d="M433.3,327.1c-0.2,0-0.4-0.2-0.4-0.4c0-0.2,0.2-0.4,0.4-0.4c0.2,0,0.4,0.2,0.4,0.4
				C433.7,326.9,433.5,327.1,433.3,327.1z"/>
			<path class="st0" d="M416,327.6c-0.5,0-0.9-0.4-0.9-0.9c0-0.5,0.4-0.9,0.9-0.9c0.5,0,0.9,0.4,0.9,0.9
				C416.9,327.2,416.5,327.6,416,327.6z"/>
			<path class="st0" d="M398.6,328.2c-0.8,0-1.5-0.7-1.5-1.5c0-0.8,0.7-1.5,1.5-1.5s1.5,0.7,1.5,1.5
				C400.1,327.5,399.4,328.2,398.6,328.2z"/>
			<path class="st0" d="M381.3,328.8c-1.2,0-2.1-0.9-2.1-2.1c0-1.2,0.9-2.1,2.1-2.1c1.2,0,2.1,0.9,2.1,2.1
				C383.4,327.9,382.5,328.8,381.3,328.8z"/>
			<path class="st0" d="M364,329.5c-1.6,0-2.8-1.3-2.8-2.8c0-1.6,1.3-2.8,2.8-2.8c1.6,0,2.8,1.3,2.8,2.8
				C366.8,328.3,365.5,329.5,364,329.5z"/>
			<path class="st0" d="M346.6,330.3c-2,0-3.6-1.6-3.6-3.6c0-2,1.6-3.6,3.6-3.6c2,0,3.6,1.6,3.6,3.6
				C350.2,328.7,348.6,330.3,346.6,330.3z"/>
			<path class="st0" d="M329.3,331.1c-2.4,0-4.4-2-4.4-4.4c0-2.4,2-4.4,4.4-4.4c2.4,0,4.4,2,4.4,4.4
				C333.7,329.1,331.7,331.1,329.3,331.1z"/>
			<path class="st0" d="M312,331.9c-2.8,0-5.1-2.3-5.1-5.1c0-2.8,2.3-5.1,5.1-5.1c2.8,0,5.1,2.3,5.1,5.1
				C317.1,329.5,314.8,331.9,312,331.9z"/>
			<path class="st0" d="M294.6,332.6c-3.2,0-5.9-2.6-5.9-5.9c0-3.2,2.6-5.9,5.9-5.9c3.2,0,5.9,2.6,5.9,5.9
				C300.5,329.9,297.9,332.6,294.6,332.6z"/>
			<path class="st0" d="M277.3,333.1c-3.6,0-6.4-2.9-6.4-6.4c0-3.6,2.9-6.4,6.4-6.4s6.4,2.9,6.4,6.4
				C283.8,330.3,280.9,333.1,277.3,333.1z"/>
			<path class="st0" d="M260,333.6c-3.8,0-6.9-3.1-6.9-6.9c0-3.8,3.1-6.9,6.9-6.9c3.8,0,6.9,3.1,6.9,6.9
				C266.9,330.5,263.8,333.6,260,333.6z"/>
			<path class="st0" d="M242.7,333.8c-3.9,0-7.1-3.2-7.1-7.1c0-3.9,3.2-7.1,7.1-7.1c3.9,0,7.1,3.2,7.1,7.1
				C249.7,330.6,246.6,333.8,242.7,333.8z"/>
			<path class="st0" d="M225.3,333.7c-3.9,0-7-3.1-7-7c0-3.9,3.1-7,7-7c3.9,0,7,3.1,7,7C232.3,330.6,229.2,333.7,225.3,333.7z"/>
			<path class="st0" d="M208,333.4c-3.7,0-6.7-3-6.7-6.7c0-3.7,3-6.7,6.7-6.7s6.7,3,6.7,6.7C214.7,330.4,211.7,333.4,208,333.4z"/>
			<path class="st0" d="M190.7,332.9c-3.4,0-6.2-2.8-6.2-6.2c0-3.4,2.8-6.2,6.2-6.2c3.4,0,6.2,2.8,6.2,6.2
				C196.9,330.1,194.1,332.9,190.7,332.9z"/>
			<circle class="st0" cx="173.3" cy="326.7" r="5.6"/>
			<path class="st0" d="M156,331.5c-2.7,0-4.8-2.2-4.8-4.8c0-2.7,2.1-4.8,4.8-4.8c2.7,0,4.8,2.2,4.8,4.8
				C160.8,329.4,158.7,331.5,156,331.5z"/>
			<path class="st0" d="M138.7,330.7c-2.2,0-4-1.8-4-4c0-2.2,1.8-4,4-4c2.2,0,4,1.8,4,4C142.7,328.9,140.9,330.7,138.7,330.7z"/>
			<path class="st0" d="M121.4,330c-1.8,0-3.3-1.5-3.3-3.3c0-1.8,1.5-3.3,3.3-3.3c1.8,0,3.3,1.5,3.3,3.3
				C124.6,328.5,123.2,330,121.4,330z"/>
			<path class="st0" d="M104,329.2c-1.4,0-2.5-1.1-2.5-2.5c0-1.4,1.1-2.5,2.5-2.5c1.4,0,2.5,1.1,2.5,2.5
				C106.5,328.1,105.4,329.2,104,329.2z"/>
			<path class="st0" d="M86.7,328.5c-1,0-1.8-0.8-1.8-1.8c0-1,0.8-1.8,1.8-1.8c1,0,1.8,0.8,1.8,1.8
				C88.5,327.7,87.7,328.5,86.7,328.5z"/>
			<path class="st0" d="M69.4,327.9c-0.7,0-1.2-0.5-1.2-1.2c0-0.7,0.5-1.2,1.2-1.2c0.7,0,1.2,0.5,1.2,1.2
				C70.6,327.4,70,327.9,69.4,327.9z"/>
			<path class="st0" d="M52,327.4c-0.4,0-0.7-0.3-0.7-0.7c0-0.4,0.3-0.7,0.7-0.7s0.7,0.3,0.7,0.7C52.7,327.1,52.4,327.4,52,327.4z"
				/>
			<path class="st0" d="M34.7,327c-0.2,0-0.3-0.1-0.3-0.3c0-0.2,0.1-0.3,0.3-0.3c0.2,0,0.3,0.1,0.3,0.3C35,326.9,34.9,327,34.7,327z
				"/>
			<path class="st0" d="M17.4,326.8C17.4,326.8,17.3,326.7,17.4,326.8C17.3,326.7,17.4,326.7,17.4,326.8
				C17.4,326.7,17.4,326.7,17.4,326.8C17.4,326.7,17.4,326.8,17.4,326.8z"/>
			<path class="st0" d="M442,344.2c-0.1,0-0.2-0.1-0.2-0.2c0-0.1,0.1-0.2,0.2-0.2c0.1,0,0.2,0.1,0.2,0.2
				C442.1,344.1,442.1,344.2,442,344.2z"/>
			<path class="st0" d="M424.6,344.6c-0.3,0-0.5-0.2-0.5-0.5s0.2-0.5,0.5-0.5c0.3,0,0.5,0.2,0.5,0.5S424.9,344.6,424.6,344.6z"/>
			<circle class="st0" cx="407.3" cy="344" r="1"/>
			<path class="st0" d="M390,345.6c-0.8,0-1.5-0.7-1.5-1.5c0-0.8,0.7-1.5,1.5-1.5c0.8,0,1.5,0.7,1.5,1.5
				C391.5,344.9,390.8,345.6,390,345.6z"/>
			<path class="st0" d="M372.6,346.2c-1.2,0-2.1-0.9-2.1-2.1s0.9-2.1,2.1-2.1c1.2,0,2.1,0.9,2.1,2.1S373.8,346.2,372.6,346.2z"/>
			<path class="st0" d="M355.3,346.8c-1.5,0-2.7-1.2-2.7-2.7s1.2-2.7,2.7-2.7s2.7,1.2,2.7,2.7S356.8,346.8,355.3,346.8z"/>
			<path class="st0" d="M338,347.4c-1.9,0-3.4-1.5-3.4-3.4c0-1.9,1.5-3.4,3.4-3.4c1.9,0,3.4,1.5,3.4,3.4
				C341.3,345.9,339.8,347.4,338,347.4z"/>
			<path class="st0" d="M320.6,348c-2.2,0-3.9-1.8-3.9-3.9s1.8-3.9,3.9-3.9c2.2,0,3.9,1.8,3.9,3.9S322.8,348,320.6,348z"/>
			<path class="st0" d="M303.3,348.5c-2.5,0-4.5-2-4.5-4.5s2-4.5,4.5-4.5c2.5,0,4.5,2,4.5,4.5S305.8,348.5,303.3,348.5z"/>
			<path class="st0" d="M286,348.9c-2.7,0-4.9-2.2-4.9-4.9s2.2-4.9,4.9-4.9c2.7,0,4.9,2.2,4.9,4.9S288.7,348.9,286,348.9z"/>
			<circle class="st0" cx="268.7" cy="344" r="5.2"/>
			<path class="st0" d="M251.3,349.4c-3,0-5.4-2.4-5.4-5.4c0-3,2.4-5.4,5.4-5.4c3,0,5.4,2.4,5.4,5.4
				C256.7,347,254.3,349.4,251.3,349.4z"/>
			<circle class="st0" cx="234" cy="344" r="5.3"/>
			<circle class="st0" cx="216.7" cy="344" r="5.1"/>
			<path class="st0" d="M199.3,348.8c-2.6,0-4.8-2.1-4.8-4.8c0-2.6,2.1-4.8,4.8-4.8c2.6,0,4.8,2.1,4.8,4.8
				C204.1,346.7,202,348.8,199.3,348.8z"/>
			<circle class="st0" cx="182" cy="344" r="4.2"/>
			<circle class="st0" cx="164.7" cy="344" r="3.7"/>
			<path class="st0" d="M147.3,347.1c-1.7,0-3.1-1.4-3.1-3.1c0-1.7,1.4-3.1,3.1-3.1c1.7,0,3.1,1.4,3.1,3.1
				C150.4,345.7,149,347.1,147.3,347.1z"/>
			<path class="st0" d="M130,346.5c-1.4,0-2.4-1.1-2.4-2.5c0-1.4,1.1-2.5,2.4-2.5c1.4,0,2.5,1.1,2.5,2.5
				C132.5,345.4,131.4,346.5,130,346.5z"/>
			<circle class="st0" cx="112.7" cy="344" r="1.8"/>
			<circle class="st0" cx="95.4" cy="344" r="1.2"/>
			<path class="st0" d="M78,344.8c-0.4,0-0.8-0.3-0.8-0.8c0-0.4,0.3-0.8,0.8-0.8c0.4,0,0.8,0.3,0.8,0.8
				C78.8,344.5,78.5,344.8,78,344.8z"/>
			<path class="st0" d="M60.7,344.4c-0.2,0-0.4-0.2-0.4-0.4s0.2-0.4,0.4-0.4c0.2,0,0.4,0.2,0.4,0.4S60.9,344.4,60.7,344.4z"/>
			<circle class="st0" cx="43.4" cy="344" r="0.1"/>
			<path class="st0" d="M433.3,361.4C433.3,361.4,433.2,361.4,433.3,361.4C433.2,361.3,433.3,361.3,433.3,361.4
				C433.3,361.3,433.3,361.3,433.3,361.4C433.3,361.4,433.3,361.4,433.3,361.4z"/>
			<path class="st0" d="M416,361.6c-0.1,0-0.2-0.1-0.2-0.2c0-0.1,0.1-0.2,0.2-0.2c0.1,0,0.2,0.1,0.2,0.2
				C416.2,361.5,416.1,361.6,416,361.6z"/>
			<path class="st0" d="M398.6,361.9c-0.3,0-0.5-0.2-0.5-0.5c0-0.3,0.2-0.5,0.5-0.5s0.5,0.2,0.5,0.5
				C399.2,361.7,398.9,361.9,398.6,361.9z"/>
			<path class="st0" d="M381.3,362.3c-0.5,0-1-0.4-1-1c0-0.5,0.4-1,1-1c0.5,0,1,0.4,1,1C382.3,361.9,381.8,362.3,381.3,362.3z"/>
			<path class="st0" d="M364,362.8c-0.8,0-1.4-0.6-1.4-1.4c0-0.8,0.6-1.4,1.4-1.4c0.8,0,1.4,0.6,1.4,1.4
				C365.4,362.1,364.7,362.8,364,362.8z"/>
			<path class="st0" d="M346.6,363.2c-1,0-1.9-0.8-1.9-1.9c0-1,0.8-1.9,1.9-1.9s1.9,0.8,1.9,1.9
				C348.5,362.4,347.7,363.2,346.6,363.2z"/>
			<path class="st0" d="M329.3,363.7c-1.3,0-2.4-1.1-2.4-2.4c0-1.3,1.1-2.4,2.4-2.4c1.3,0,2.4,1.1,2.4,2.4
				C331.7,362.7,330.6,363.7,329.3,363.7z"/>
			<path class="st0" d="M312,364.2c-1.5,0-2.8-1.2-2.8-2.8c0-1.5,1.2-2.8,2.8-2.8c1.5,0,2.8,1.2,2.8,2.8
				C314.8,362.9,313.5,364.2,312,364.2z"/>
			<path class="st0" d="M294.6,364.6c-1.8,0-3.2-1.4-3.2-3.2c0-1.8,1.4-3.2,3.2-3.2c1.8,0,3.2,1.4,3.2,3.2
				C297.9,363.1,296.4,364.6,294.6,364.6z"/>
			<path class="st0" d="M277.3,364.9c-2,0-3.6-1.6-3.6-3.6c0-2,1.6-3.6,3.6-3.6s3.6,1.6,3.6,3.6
				C280.9,363.3,279.3,364.9,277.3,364.9z"/>
			<path class="st0" d="M260,365.1c-2.1,0-3.8-1.7-3.8-3.7c0-2.1,1.7-3.7,3.8-3.7c2.1,0,3.7,1.7,3.7,3.7
				C263.7,363.4,262.1,365.1,260,365.1z"/>
			<path class="st0" d="M242.7,365.2c-2.1,0-3.8-1.7-3.8-3.8c0-2.1,1.7-3.8,3.8-3.8c2.1,0,3.8,1.7,3.8,3.8
				C246.5,363.5,244.8,365.2,242.7,365.2z"/>
			<path class="st0" d="M225.3,365.2c-2.1,0-3.8-1.7-3.8-3.8c0-2.1,1.7-3.8,3.8-3.8s3.8,1.7,3.8,3.8
				C229.2,363.5,227.5,365.2,225.3,365.2z"/>
			<path class="st0" d="M208,365c-2,0-3.7-1.6-3.7-3.7c0-2,1.6-3.7,3.7-3.7c2,0,3.7,1.6,3.7,3.7C211.7,363.4,210,365,208,365z"/>
			<path class="st0" d="M190.7,364.8c-1.9,0-3.4-1.5-3.4-3.4c0-1.9,1.5-3.4,3.4-3.4c1.9,0,3.4,1.5,3.4,3.4
				C194.1,363.3,192.6,364.8,190.7,364.8z"/>
			<path class="st0" d="M173.3,364.4c-1.7,0-3-1.4-3-3c0-1.7,1.4-3,3-3s3,1.4,3,3C176.4,363,175,364.4,173.3,364.4z"/>
			<path class="st0" d="M156,364c-1.4,0-2.6-1.2-2.6-2.6c0-1.4,1.2-2.6,2.6-2.6c1.4,0,2.6,1.2,2.6,2.6
				C158.6,362.8,157.4,364,156,364z"/>
			<path class="st0" d="M138.7,363.5c-1.2,0-2.2-1-2.2-2.2c0-1.2,1-2.2,2.2-2.2s2.2,1,2.2,2.2C140.8,362.6,139.9,363.5,138.7,363.5z
				"/>
			<path class="st0" d="M121.4,363c-0.9,0-1.7-0.8-1.7-1.7c0-0.9,0.8-1.7,1.7-1.7c0.9,0,1.7,0.8,1.7,1.7
				C123,362.3,122.3,363,121.4,363z"/>
			<path class="st0" d="M104,362.6c-0.7,0-1.2-0.5-1.2-1.2c0-0.7,0.5-1.2,1.2-1.2c0.7,0,1.2,0.5,1.2,1.2
				C105.2,362,104.7,362.6,104,362.6z"/>
			<path class="st0" d="M86.7,362.1c-0.4,0-0.8-0.3-0.8-0.8c0-0.4,0.3-0.8,0.8-0.8c0.4,0,0.8,0.3,0.8,0.8
				C87.5,361.8,87.1,362.1,86.7,362.1z"/>
			<path class="st0" d="M69.4,361.8c-0.2,0-0.4-0.2-0.4-0.4c0-0.2,0.2-0.4,0.4-0.4c0.2,0,0.4,0.2,0.4,0.4
				C69.7,361.6,69.6,361.8,69.4,361.8z"/>
			<path class="st0" d="M52,361.5c-0.1,0-0.1-0.1-0.1-0.1c0-0.1,0.1-0.1,0.1-0.1s0.1,0.1,0.1,0.1C52.2,361.4,52.1,361.5,52,361.5z"
				/>
			<path class="st0" d="M424.6,378.7C424.6,378.7,424.6,378.7,424.6,378.7C424.6,378.7,424.6,378.6,424.6,378.7
				C424.6,378.6,424.7,378.7,424.6,378.7C424.7,378.7,424.6,378.7,424.6,378.7z"/>
			<path class="st0" d="M407.3,378.9c-0.1,0-0.2-0.1-0.2-0.2c0-0.1,0.1-0.2,0.2-0.2c0.1,0,0.2,0.1,0.2,0.2
				C407.5,378.8,407.4,378.9,407.3,378.9z"/>
			<path class="st0" d="M390,379.2c-0.3,0-0.5-0.2-0.5-0.5c0-0.3,0.2-0.5,0.5-0.5c0.3,0,0.5,0.2,0.5,0.5
				C390.4,379,390.2,379.2,390,379.2z"/>
			<path class="st0" d="M372.6,379.5c-0.4,0-0.8-0.3-0.8-0.8c0-0.4,0.3-0.8,0.8-0.8c0.4,0,0.8,0.3,0.8,0.8
				C373.4,379.1,373.1,379.5,372.6,379.5z"/>
			<path class="st0" d="M355.3,379.8c-0.6,0-1.1-0.5-1.1-1.1c0-0.6,0.5-1.1,1.1-1.1c0.6,0,1.1,0.5,1.1,1.1
				C356.4,379.3,355.9,379.8,355.3,379.8z"/>
			<path class="st0" d="M338,380.2c-0.8,0-1.5-0.7-1.5-1.5c0-0.8,0.7-1.5,1.5-1.5c0.8,0,1.5,0.7,1.5,1.5
				C339.5,379.5,338.8,380.2,338,380.2z"/>
			<path class="st0" d="M320.6,380.5c-1,0-1.8-0.8-1.8-1.8c0-1,0.8-1.8,1.8-1.8c1,0,1.8,0.8,1.8,1.8
				C322.5,379.7,321.7,380.5,320.6,380.5z"/>
			<path class="st0" d="M303.3,380.8c-1.2,0-2.1-0.9-2.1-2.1c0-1.2,0.9-2.1,2.1-2.1s2.1,0.9,2.1,2.1
				C305.4,379.9,304.5,380.8,303.3,380.8z"/>
			<path class="st0" d="M286,381.1c-1.3,0-2.4-1.1-2.4-2.4c0-1.3,1.1-2.4,2.4-2.4c1.3,0,2.4,1.1,2.4,2.4
				C288.3,380,287.3,381.1,286,381.1z"/>
			<path class="st0" d="M268.7,381.2c-1.4,0-2.5-1.1-2.5-2.5c0-1.4,1.1-2.5,2.5-2.5c1.4,0,2.5,1.1,2.5,2.5
				C271.2,380.1,270,381.2,268.7,381.2z"/>
			<path class="st0" d="M251.3,381.2c-1.4,0-2.5-1.1-2.5-2.5c0-1.4,1.1-2.5,2.5-2.5c1.4,0,2.5,1.1,2.5,2.5
				C253.9,380.1,252.7,381.2,251.3,381.2z"/>
			<path class="st0" d="M234,381.2c-1.4,0-2.5-1.1-2.5-2.5c0-1.4,1.1-2.5,2.5-2.5c1.4,0,2.5,1.1,2.5,2.5
				C236.5,380.1,235.4,381.2,234,381.2z"/>
			<path class="st0" d="M216.7,381.1c-1.4,0-2.5-1.1-2.5-2.5c0-1.4,1.1-2.5,2.5-2.5c1.4,0,2.5,1.1,2.5,2.5
				C219.1,380.1,218,381.1,216.7,381.1z"/>
			<path class="st0" d="M199.3,381c-1.3,0-2.3-1-2.3-2.3c0-1.2,1-2.3,2.3-2.3c1.2,0,2.3,1,2.3,2.3C201.6,379.9,200.6,381,199.3,381z
				"/>
			<path class="st0" d="M182,380.7c-1.1,0-2-0.9-2-2c0-1.1,0.9-2,2-2c1.1,0,2,0.9,2,2C184,379.8,183.1,380.7,182,380.7z"/>
			<path class="st0" d="M164.7,380.4c-0.9,0-1.7-0.8-1.7-1.7c0-0.9,0.8-1.7,1.7-1.7c0.9,0,1.7,0.8,1.7,1.7
				C166.4,379.6,165.6,380.4,164.7,380.4z"/>
			<path class="st0" d="M147.3,380c-0.7,0-1.3-0.6-1.3-1.3c0-0.7,0.6-1.3,1.3-1.3c0.7,0,1.3,0.6,1.3,1.3
				C148.6,379.4,148.1,380,147.3,380z"/>
			<path class="st0" d="M130,379.7c-0.5,0-1-0.4-1-1c0-0.5,0.4-1,1-1c0.5,0,1,0.4,1,1C131,379.2,130.6,379.7,130,379.7z"/>
			<path class="st0" d="M112.7,379.3c-0.3,0-0.6-0.3-0.6-0.6c0-0.3,0.3-0.6,0.6-0.6c0.3,0,0.6,0.3,0.6,0.6
				C113.3,379,113,379.3,112.7,379.3z"/>
			<path class="st0" d="M95.4,379c-0.2,0-0.3-0.2-0.3-0.3c0-0.2,0.1-0.3,0.3-0.3c0.2,0,0.3,0.1,0.3,0.3
				C95.7,378.9,95.5,379,95.4,379z"/>
			<path class="st0" d="M78,378.8C78,378.8,77.9,378.7,78,378.8c-0.1-0.1-0.1-0.2,0-0.2C78.1,378.6,78.1,378.6,78,378.8
				C78.1,378.7,78.1,378.8,78,378.8z"/>
			<path class="st0" d="M381.3,396.1C381.2,396.1,381.2,396.1,381.3,396.1c-0.1-0.1-0.1-0.2,0-0.2
				C381.4,395.9,381.4,396,381.3,396.1C381.4,396.1,381.4,396.1,381.3,396.1z"/>
			<path class="st0" d="M364,396.3c-0.2,0-0.3-0.1-0.3-0.3c0-0.2,0.1-0.3,0.3-0.3c0.2,0,0.3,0.1,0.3,0.3
				C364.3,396.2,364.1,396.3,364,396.3z"/>
			<path class="st0" d="M346.6,396.6c-0.3,0-0.5-0.2-0.5-0.5c0-0.3,0.2-0.5,0.5-0.5c0.3,0,0.5,0.2,0.5,0.5
				C347.2,396.3,346.9,396.6,346.6,396.6z"/>
			<path class="st0" d="M329.3,396.7c-0.4,0-0.7-0.3-0.7-0.7c0-0.4,0.3-0.7,0.7-0.7c0.4,0,0.7,0.3,0.7,0.7
				C330,396.4,329.7,396.7,329.3,396.7z"/>
			<path class="st0" d="M312,397c-0.5,0-1-0.4-1-1c0-0.5,0.4-1,1-1c0.5,0,1,0.4,1,1C312.9,396.6,312.5,397,312,397z"/>
			<path class="st0" d="M294.6,397.2c-0.6,0-1.2-0.5-1.2-1.2c0-0.6,0.5-1.2,1.2-1.2c0.6,0,1.2,0.5,1.2,1.2
				C295.8,396.7,295.3,397.2,294.6,397.2z"/>
			<path class="st0" d="M277.3,397.4c-0.7,0-1.3-0.6-1.3-1.3c0-0.7,0.6-1.3,1.3-1.3s1.3,0.6,1.3,1.3
				C278.7,396.8,278.1,397.4,277.3,397.4z"/>
			<path class="st0" d="M260,397.5c-0.8,0-1.4-0.6-1.4-1.4c0-0.8,0.6-1.4,1.4-1.4c0.8,0,1.4,0.6,1.4,1.4
				C261.4,396.8,260.8,397.5,260,397.5z"/>
			<path class="st0" d="M242.7,397.6c-0.8,0-1.5-0.7-1.5-1.5c0-0.9,0.7-1.5,1.5-1.5c0.9,0,1.5,0.7,1.5,1.5
				C244.2,396.9,243.5,397.6,242.7,397.6z"/>
			<path class="st0" d="M225.3,397.5c-0.8,0-1.5-0.7-1.5-1.5c0-0.8,0.7-1.5,1.5-1.5s1.5,0.7,1.5,1.5
				C226.8,396.8,226.2,397.5,225.3,397.5z"/>
			<path class="st0" d="M208,397.4c-0.8,0-1.4-0.6-1.4-1.4c0-0.8,0.6-1.4,1.4-1.4s1.4,0.6,1.4,1.4
				C209.4,396.8,208.8,397.4,208,397.4z"/>
			<path class="st0" d="M190.7,397.3c-0.7,0-1.3-0.6-1.3-1.3c0-0.7,0.6-1.3,1.3-1.3c0.7,0,1.3,0.6,1.3,1.3
				C192,396.7,191.4,397.3,190.7,397.3z"/>
			<path class="st0" d="M173.3,397.1c-0.6,0-1.1-0.5-1.1-1.1c0-0.6,0.5-1.1,1.1-1.1c0.6,0,1.1,0.5,1.1,1.1
				C174.4,396.6,174,397.1,173.3,397.1z"/>
			<path class="st0" d="M156,396.9c-0.5,0-0.9-0.4-0.9-0.9c0-0.5,0.4-0.9,0.9-0.9s0.9,0.4,0.9,0.9
				C156.9,396.5,156.5,396.9,156,396.9z"/>
			<path class="st0" d="M138.7,396.7c-0.3,0-0.6-0.3-0.6-0.6c0-0.3,0.3-0.6,0.6-0.6c0.3,0,0.6,0.3,0.6,0.6
				C139.3,396.4,139,396.7,138.7,396.7z"/>
			<path class="st0" d="M121.4,396.4c-0.2,0-0.4-0.2-0.4-0.4s0.2-0.4,0.4-0.4c0.2,0,0.4,0.2,0.4,0.4S121.6,396.4,121.4,396.4z"/>
			<path class="st0" d="M104,396.2c-0.1,0-0.2-0.1-0.2-0.2c0-0.1,0.1-0.2,0.2-0.2c0.1,0,0.2,0.1,0.2,0.2
				C104.2,396.1,104.1,396.2,104,396.2z"/>
			<path class="st0" d="M86.7,396.1C86.7,396.1,86.6,396.1,86.7,396.1C86.6,396,86.7,396,86.7,396.1C86.7,396,86.7,396,86.7,396.1
				C86.7,396.1,86.7,396.1,86.7,396.1z"/>
			<path class="st0" d="M355.3,413.5C355.2,413.5,355.2,413.4,355.3,413.5c-0.1-0.1-0.1-0.2,0-0.2
				C355.4,413.3,355.4,413.3,355.3,413.5C355.4,413.4,355.4,413.5,355.3,413.5z"/>
			<circle class="st0" cx="338" cy="413.4" r="0.2"/>
			<path class="st0" d="M320.6,413.7c-0.2,0-0.3-0.2-0.3-0.3s0.2-0.3,0.3-0.3c0.2,0,0.3,0.1,0.3,0.3S320.8,413.7,320.6,413.7z"/>
			<circle class="st0" cx="303.3" cy="413.4" r="0.5"/>
			<path class="st0" d="M286,413.9c-0.3,0-0.6-0.3-0.6-0.6c0-0.3,0.3-0.6,0.6-0.6s0.6,0.3,0.6,0.6
				C286.6,413.7,286.3,413.9,286,413.9z"/>
			<path class="st0" d="M268.7,414c-0.4,0-0.7-0.3-0.7-0.7c0-0.4,0.3-0.7,0.7-0.7c0.4,0,0.7,0.3,0.7,0.7
				C269.3,413.7,269,414,268.7,414z"/>
			<path class="st0" d="M251.3,414c-0.4,0-0.7-0.3-0.7-0.7c0-0.4,0.3-0.7,0.7-0.7c0.4,0,0.7,0.3,0.7,0.7
				C252,413.7,251.7,414,251.3,414z"/>
			<path class="st0" d="M234,414c-0.4,0-0.7-0.3-0.7-0.7c0-0.4,0.3-0.7,0.7-0.7c0.4,0,0.7,0.3,0.7,0.7
				C234.7,413.7,234.4,414,234,414z"/>
			<path class="st0" d="M216.7,414c-0.3,0-0.6-0.3-0.6-0.6c0-0.3,0.3-0.6,0.6-0.6s0.6,0.3,0.6,0.6C217.3,413.7,217,414,216.7,414z"
				/>
			<path class="st0" d="M199.3,413.9c-0.3,0-0.5-0.2-0.5-0.5c0-0.3,0.2-0.5,0.5-0.5c0.3,0,0.5,0.2,0.5,0.5
				C199.9,413.6,199.6,413.9,199.3,413.9z"/>
			<path class="st0" d="M182,413.8c-0.2,0-0.4-0.2-0.4-0.4c0-0.2,0.2-0.4,0.4-0.4c0.2,0,0.4,0.2,0.4,0.4
				C182.4,413.6,182.2,413.8,182,413.8z"/>
			<path class="st0" d="M164.7,413.6c-0.2,0-0.3-0.1-0.3-0.3c0-0.2,0.1-0.3,0.3-0.3c0.2,0,0.3,0.1,0.3,0.3
				C165,413.5,164.8,413.6,164.7,413.6z"/>
			<path class="st0" d="M147.3,413.5c-0.1,0-0.2-0.1-0.2-0.2c0-0.1,0.1-0.2,0.2-0.2c0.1,0,0.2,0.1,0.2,0.2
				C147.5,413.5,147.5,413.5,147.3,413.5z"/>
			<path class="st0" d="M130,413.4C130,413.4,130,413.4,130,413.4C130,413.3,130,413.3,130,413.4C130,413.3,130.1,413.3,130,413.4
				C130.1,413.4,130,413.4,130,413.4z"/>
			<path class="st0" d="M294.6,430.7C294.6,430.7,294.6,430.7,294.6,430.7C294.6,430.7,294.6,430.6,294.6,430.7
				C294.7,430.6,294.7,430.7,294.6,430.7C294.7,430.7,294.7,430.7,294.6,430.7z"/>
			<path class="st0" d="M277.3,430.8C277.3,430.8,277.2,430.7,277.3,430.8c-0.1-0.1-0.1-0.2,0-0.2
				C277.4,430.6,277.4,430.6,277.3,430.8C277.4,430.7,277.4,430.8,277.3,430.8z"/>
			<path class="st0" d="M260,430.8c-0.1,0-0.1-0.1-0.1-0.1c0-0.1,0.1-0.1,0.1-0.1c0.1,0,0.1,0.1,0.1,0.1
				C260.1,430.8,260.1,430.8,260,430.8z"/>
			<path class="st0" d="M242.7,430.8c-0.1,0-0.1-0.1-0.1-0.1c0-0.1,0.1-0.1,0.1-0.1c0.1,0,0.1,0.1,0.1,0.1
				C242.8,430.8,242.7,430.8,242.7,430.8z"/>
			<path class="st0" d="M225.3,430.8c-0.1,0-0.1-0.1-0.1-0.1c0-0.1,0.1-0.1,0.1-0.1c0.1,0,0.1,0.1,0.1,0.1
				C225.5,430.8,225.4,430.8,225.3,430.8z"/>
			<path class="st0" d="M208,430.8c-0.1,0-0.1-0.1-0.1-0.1c0-0.1,0.1-0.1,0.1-0.1c0.1,0,0.1,0.1,0.1,0.1
				C208.1,430.8,208.1,430.8,208,430.8z"/>
			<path class="st0" d="M190.7,430.8C190.6,430.8,190.6,430.7,190.7,430.8c-0.1-0.1-0.1-0.2,0-0.2
				C190.7,430.6,190.8,430.6,190.7,430.8C190.8,430.7,190.7,430.8,190.7,430.8z"/>
			<path class="st0" d="M173.3,430.7C173.3,430.7,173.3,430.7,173.3,430.7C173.3,430.7,173.3,430.6,173.3,430.7
				C173.4,430.6,173.4,430.7,173.3,430.7C173.4,430.7,173.4,430.7,173.3,430.7z"/>
		</g>
		<g>
			<g>
				<path class="st0" d="M272.3,310.8c-50.9-1.9-96-12.9-130.7-31.9l-70.1,28.6l21.6-68.3c-23.3-29.2-30.6-64-19.9-96.4
					C85.5,105.4,131.6,83,196.4,83c74.7,0,168.9,31.4,204.5,91.4c17.2,29,19.4,55.1,6.6,77.7c-25,43.9-101.4,58.7-132.4,58.7
					C274.1,310.8,273.2,310.8,272.3,310.8z M92.4,149.1c-8.9,27.1-1.7,56.7,19.6,81.2l3.7,4.3l-12,37.8l39.3-16l4.3,2.5
					c32.4,18.9,75.9,29.9,125.6,31.7c0.6,0,1.3,0,2.1,0c29.5,0,95.5-14.6,114.8-48.5c9.1-16,7-34.8-6.4-57.4
					c-31.7-53.5-118.2-81.5-187.1-81.5C140.8,103.3,101.9,120.4,92.4,149.1z"/>
			</g>
			<path class="st1" d="M99.6,232.1c-24.3-27.9-31.5-60.9-21.6-91c28-85.2,252.4-62.5,309.4,33.6c57,96.1-85.5,122.4-119.5,121.1
				c-55.3-2-98.7-14.6-130.4-33.1l-54.6,22.3L99.6,232.1z"/>
		</g>
	</g>
	<g>
		<path class="st0" d="M105.8,145.8l3.1-10.7l-5.2-1.5l-3.1,10.7l-4.4-1.3l4.3-14.5l14,4.1l-4.3,14.5L105.8,145.8z"/>
		<path class="st0" d="M113.9,140.3c1.3-4.5,5.7-6.5,10.1-5.2c4.5,1.3,7.1,5.4,5.7,9.8c-1.3,4.5-5.7,6.5-10.1,5.2
			C115.1,148.8,112.6,144.7,113.9,140.3z M125.3,143.6c0.6-2-0.3-4-2.4-4.7c-2.1-0.6-4,0.6-4.5,2.6s0.3,4,2.4,4.7
			C122.9,146.9,124.7,145.6,125.3,143.6z"/>
		<path class="st0" d="M142.1,156.4l2.6-8.7l-5.8,7.8l-2-0.6l-0.7-9.7l-2.6,8.7l-4.4-1.3l4.3-14.5l6.1,1.8l0.5,7.7l4.6-6.2l6.1,1.8
			l-4.3,14.5L142.1,156.4z"/>
		<path class="st0" d="M150.1,150.9c1.3-4.5,5.7-6.5,10.1-5.2c4.5,1.3,7.1,5.4,5.7,9.8c-1.3,4.5-5.7,6.5-10.1,5.2
			C151.4,159.4,148.8,155.4,150.1,150.9z M161.6,154.2c0.6-2-0.3-4-2.4-4.7c-2.1-0.6-4,0.6-4.5,2.6c-0.6,2,0.3,4,2.4,4.7
			C159.1,157.5,161,156.3,161.6,154.2z"/>
		<path class="st0" d="M165.5,163.3l4.3-14.5l11,3.2l-1.1,3.8l-6.6-1.9l-3.1,10.7L165.5,163.3z"/>
		<path class="st0" d="M178.4,167l4.3-14.5l4.4,1.3l-2.3,7.8l7.3-6.3l4.5,1.3l-4.3,14.5l-4.4-1.3l2.4-8.2l-7.8,6.7L178.4,167z"/>
		<path class="st0" d="M213.1,177.2l2.6-8.7l-5.8,7.8l-2-0.6l-0.7-9.7l-2.6,8.7l-4.4-1.3l4.3-14.5l6.1,1.8l0.5,7.7l4.6-6.2l6.1,1.8
			l-4.3,14.5L213.1,177.2z"/>
		<path class="st0" d="M229.5,182l1.6-5.6l-5.2-1.5l-1.6,5.6l-4.4-1.3l4.3-14.5l4.4,1.3l-1.5,5.1l5.2,1.5l1.5-5.1l4.4,1.3l-4.3,14.5
			L229.5,182z"/>
		<path class="st0" d="M236.2,184l4.3-14.5l11,3.2l-1.1,3.8l-6.6-1.9l-0.4,1.4l6.5,1.9l-1.1,3.8l-6.5-1.9l-0.5,1.6l6.6,1.9l-1.1,3.8
			L236.2,184z"/>
		<path class="st0" d="M249.4,185.6c0.4-1.3,1.7-2,3-1.7c1.3,0.4,2,1.7,1.6,3c-0.4,1.2-1.7,2-3,1.6
			C249.8,188.2,249.1,186.8,249.4,185.6z M250.9,182.4l2.1-9.3l4.7,1.4l-3.2,9L250.9,182.4z"/>
		<path class="st0" d="M260.3,191l4.1-4.4c-1-0.9-2.1-2.7-1.3-5.2c0.8-2.7,3.3-4.5,6.7-3.5l7.8,2.3l-4.3,14.5l-4.4-1.3l1.3-4.6
			l-1.6-0.5l-3.3,4L260.3,191z M271.3,185.1l0.7-2.3l-2.7-0.8c-0.7-0.2-1.5-0.1-1.8,0.7c-0.2,0.8,0.4,1.4,1.1,1.6L271.3,185.1z"/>
		<path class="st0" d="M290.8,200l3.1-10.7l-5.2-1.5l-3.1,10.7l-4.4-1.3l4.3-14.5l14,4.1l-4.3,14.5L290.8,200z"/>
		<path class="st0" d="M298.9,194.5c1.3-4.5,5.7-6.5,10.1-5.2c4.5,1.3,7.1,5.4,5.7,9.8c-1.3,4.5-5.7,6.5-10.1,5.2
			C300.2,203,297.6,198.9,298.9,194.5z M310.3,197.8c0.6-2-0.3-4-2.4-4.7s-4,0.6-4.5,2.6s0.3,4,2.4,4.7S309.7,199.8,310.3,197.8z"/>
		<path class="st0" d="M316.9,207.6l3.1-10.7l-3.9-1.1l1.1-3.8l12.2,3.6l-1.1,3.8l-3.9-1.1l-3.1,10.7L316.9,207.6z"/>
		<path class="st0" d="M326.8,210.5L331,196l11,3.2l-1.1,3.8l-6.6-1.9l-0.4,1.4l6.5,1.9l-1.1,3.8l-6.5-1.9l-0.5,1.6l6.6,1.9
			l-1.1,3.8L326.8,210.5z"/>
		<path class="st0" d="M339.7,214.3l4.3-14.5l7.8,2.3c3.4,1,4.6,3.8,3.8,6.5c-0.8,2.7-3.3,4.4-6.7,3.4l-3.4-1l-1.3,4.6L339.7,214.3z
			 M351.1,207.2c0.2-0.8-0.3-1.3-1-1.5l-2.8-0.8l-0.7,2.3l2.8,0.8C350.1,208.2,350.8,208,351.1,207.2z"/>
		<path class="st0" d="M353.6,218.3l4.1-4.4c-1-0.9-2.1-2.7-1.3-5.2c0.8-2.7,3.3-4.5,6.7-3.5l7.8,2.3l-4.3,14.5l-4.4-1.3l1.3-4.6
			l-1.6-0.5l-3.3,4L353.6,218.3z M364.6,212.4l0.7-2.3l-2.7-0.8c-0.7-0.2-1.5-0.1-1.8,0.7c-0.2,0.8,0.4,1.4,1.1,1.6L364.6,212.4z"/>
		<path class="st0" d="M369.3,219c1.2,0.4,2.4-0.2,3.6-2.9l3-7.1l11.3,3.3l-4.3,14.5l-4.4-1.3l3.1-10.7l-3-0.9l-1.6,3.7
			c-2.4,5.5-5.6,6.1-9,5.1L369.3,219z"/>
		<path class="st0" d="M136.4,175.3c1.3-4.5,5.6-6.5,10.2-5.2c3.8,1.1,5.1,3.9,5.4,6.2l-4.3,0.7c0-1.2-0.9-2.6-2.2-2.9
			c-2.1-0.6-4,0.6-4.6,2.6c-0.6,2,0.4,4.1,2.5,4.7c1.3,0.4,2.7-0.3,3.4-1.3l3.3,2.9c-1.4,1.7-4,3.4-7.8,2.3
			C137.7,183.8,135.1,179.7,136.4,175.3z"/>
		<path class="st0" d="M150.3,187.2l4.3-14.5l8.8,2.6c3,0.9,3.7,3.3,3.2,5c-0.5,1.8-2,2.7-3.5,2.6c1.5,0.7,2.3,2.5,1.7,4.4
			c-0.6,2-2.5,3.5-5.4,2.7L150.3,187.2z M160.6,185.2c0.2-0.5-0.1-1.1-0.7-1.2l-3.5-1l-0.5,1.9l3.5,1
			C159.9,186,160.4,185.8,160.6,185.2z M161.9,179.7c0.1-0.5-0.2-0.9-0.6-1.1l-3.4-1l-0.5,1.7l3.4,1
			C161.2,180.4,161.7,180.2,161.9,179.7z"/>
		<path class="st0" d="M166.8,184.2c1.3-4.5,5.7-6.5,10.1-5.2c4.5,1.3,7.1,5.4,5.7,9.8c-1.3,4.5-5.7,6.5-10.1,5.2
			C168.1,192.7,165.5,188.6,166.8,184.2z M178.2,187.5c0.6-2-0.3-4-2.4-4.7c-2.1-0.6-4,0.6-4.5,2.6c-0.6,2,0.3,4,2.4,4.7
			C175.8,190.7,177.6,189.5,178.2,187.5z"/>
		<path class="st0" d="M182.1,196.5l4.3-14.5l4.4,1.3l-2.3,7.8l7.3-6.3l4.5,1.3l-4.3,14.5l-4.4-1.3l2.4-8.2l-7.8,6.7L182.1,196.5z
			 M193.5,183.5c-1.5-0.5-2.7-1.6-3.3-3l2-0.9c0.3,0.8,0.9,1.5,1.8,1.8c0.9,0.3,1.8,0.1,2.5-0.5l1.2,1.8
			C196.7,183.6,195.1,184,193.5,183.5z"/>
		<path class="st0" d="M216.9,206.7l2.6-8.7l-5.8,7.8l-2-0.6l-0.7-9.7l-2.6,8.7l-4.4-1.3l4.3-14.5l6.1,1.8l0.5,7.7l4.6-6.2l6.1,1.8
			l-4.3,14.5L216.9,206.7z"/>
		<path class="st0" d="M225,201.2c1.3-4.5,5.7-6.5,10.1-5.2c4.5,1.3,7.1,5.4,5.7,9.8c-1.3,4.5-5.7,6.5-10.1,5.2
			C226.2,209.7,223.7,205.7,225,201.2z M236.4,204.5c0.6-2-0.3-4-2.4-4.7c-2.1-0.6-4,0.6-4.6,2.6c-0.6,2,0.3,4,2.4,4.7
			C234,207.8,235.8,206.6,236.4,204.5z"/>
		<path class="st0" d="M248.8,216L247,210l-1.1,0.9l-1.2,4l-4.4-1.3l4.3-14.5l4.4,1.3l-1.6,5.4l5.4-4.3l5.4,1.6l-7.5,5.1l3.5,9.5
			L248.8,216z"/>
		<path class="st0" d="M264.6,220.7l0-1.9l-5.2-1.5l-1,1.5l-5-1.5l9.6-13l5.5,1.6l1.1,16.1L264.6,220.7z M264.5,209.5l-2.8,4.3
			l2.9,0.8L264.5,209.5z"/>
		<path class="st0" d="M280,225.2l3.1-10.7l-5.2-1.5l-3.1,10.7l-4.4-1.3l4.3-14.5l14,4.1l-4.3,14.5L280,225.2z"/>
		<path class="st0" d="M289.6,230.5c-1.7-2.7-2.1-7.2-1-10.8c1-3.5,3.8-7.1,6.7-8.5l1.9,2.6c-2.3,2.1-3.5,4.2-4.4,7.1
			c-0.8,2.9-0.9,5.4-0.1,8.3L289.6,230.5z"/>
		<path class="st0" d="M297.1,232.8c-1.7-2.7-2.1-7.2-1-10.8c1-3.5,3.8-7.1,6.7-8.5l1.9,2.6c-2.3,2.1-3.5,4.2-4.4,7.1
			c-0.8,2.9-0.9,5.4-0.1,8.3L297.1,232.8z"/>
		<path class="st0" d="M304.6,235c-1.7-2.7-2.1-7.2-1-10.8c1-3.5,3.8-7.1,6.7-8.5l1.9,2.6c-2.3,2.1-3.5,4.2-4.4,7.1
			c-0.8,2.9-0.9,5.4-0.1,8.3L304.6,235z"/>
		<path class="st0" d="M309.6,232.7l2.8-2.9c0.7,0.8,1.4,1.3,2.4,1.6c1.9,0.5,3.5-0.2,3.9-1.6c0,0,0,0,0-0.1c-1,0.7-2.5,0.9-3.8,0.5
			c-2.6-0.8-4.6-3.2-3.7-6.3c0.9-3.2,4.1-4.5,7.6-3.5c4.8,1.4,6,5.3,4.7,9.5c-1.4,4.9-5.3,6.6-9.8,5.3
			C312.1,234.8,310.5,233.8,309.6,232.7z M319.6,227c0.2-1-0.2-2.1-1.7-2.5c-1.1-0.3-2,0-2.2,0.6c-0.3,0.9,0.8,1.6,1.7,1.9
			C318.2,227.2,318.9,227.3,319.6,227z"/>
		<path class="st0" d="M323.2,236.7l2.8-2.9c0.7,0.8,1.4,1.3,2.4,1.6c1.9,0.5,3.5-0.2,3.9-1.6c0,0,0,0,0-0.1c-1,0.7-2.5,0.9-3.8,0.5
			c-2.6-0.8-4.6-3.2-3.7-6.3c0.9-3.2,4.1-4.5,7.6-3.5c4.8,1.4,6,5.3,4.7,9.5c-1.4,4.9-5.3,6.6-9.8,5.3
			C325.7,238.8,324.1,237.8,323.2,236.7z M333.3,231c0.2-1-0.2-2.1-1.7-2.5c-1.1-0.3-2,0-2.2,0.6c-0.3,0.9,0.8,1.6,1.7,1.9
			C331.8,231.2,332.5,231.2,333.3,231z"/>
	</g>
</g>
</svg>
