<?xml version="1.0" encoding="utf-8"?>
<!-- Generator: Adobe Illustrator 22.0.0, SVG Export Plug-In . SVG Version: 6.00 Build 0)  -->
<svg version="1.1" id="Layer_1" xmlns="http://www.w3.org/2000/svg" xmlns:xlink="http://www.w3.org/1999/xlink" x="0px" y="0px"
	 width="1094px" height="600px" viewBox="0 0 1094 600" style="enable-background:new 0 0 1094 600;" xml:space="preserve">
<style type="text/css">
	.st0{fill:#FFFFFF;stroke:#000000;stroke-width:20;stroke-miterlimit:10;}
	.st1{fill:#FFFFFF;stroke:url(#SVGID_1_);stroke-width:20;stroke-miterlimit:10;}
	.st2{fill:#252525;}
	.st3{fill:url(#SVGID_2_);stroke:#252525;stroke-width:20;stroke-miterlimit:10;}
	.st4{fill:url(#SVGID_3_);stroke:#252525;stroke-width:20;stroke-miterlimit:10;}
	.st5{fill:url(#SVGID_4_);stroke:#252525;stroke-width:20;stroke-miterlimit:10;}
	.st6{fill:#FFFFFF;}
	.st7{fill:url(#SVGID_5_);}
	.st8{fill:url(#SVGID_6_);}
	.st9{fill:url(#SVGID_7_);}
	.st10{fill:url(#SVGID_8_);}
	.st11{fill:url(#SVGID_9_);}
	.st12{fill:url(#SVGID_10_);}
	.st13{fill:#606060;}
	.st14{fill:#ED1E79;}
	.st15{fill:url(#SVGID_11_);stroke:#252525;stroke-width:20;stroke-miterlimit:10;}
	.st16{fill:url(#SVGID_12_);stroke:#252525;stroke-width:20;stroke-miterlimit:10;}
	.st17{fill:url(#SVGID_13_);stroke:#252525;stroke-width:20;stroke-miterlimit:10;}
	.st18{fill:url(#SVGID_14_);stroke:#FFFFFF;stroke-width:20;stroke-miterlimit:10;}
	.st19{fill:url(#SVGID_15_);stroke:#FFFFFF;stroke-width:20;stroke-miterlimit:10;}
	.st20{fill:url(#SVGID_16_);stroke:#FFFFFF;stroke-width:20;stroke-miterlimit:10;}
	.st21{fill:url(#SVGID_17_);stroke:#FFFFFF;stroke-width:20;stroke-miterlimit:10;}
	.st22{fill:url(#SVGID_18_);stroke:#FFFFFF;stroke-width:20;stroke-miterlimit:10;}
	.st23{fill:url(#SVGID_19_);stroke:#FFFFFF;stroke-width:20;stroke-miterlimit:10;}
	.st24{fill:url(#SVGID_20_);stroke:#252525;stroke-width:20;stroke-miterlimit:10;}
	.st25{fill:url(#SVGID_21_);stroke:#252525;stroke-width:20;stroke-miterlimit:10;}
	.st26{fill:url(#SVGID_22_);stroke:#252525;stroke-width:20;stroke-miterlimit:10;}
	.st27{fill:url(#SVGID_23_);stroke:#252525;stroke-width:20;stroke-miterlimit:10;}
	.st28{fill:url(#SVGID_24_);stroke:#252525;stroke-width:20;stroke-miterlimit:10;}
	.st29{fill:url(#SVGID_25_);stroke:#252525;stroke-width:20;stroke-miterlimit:10;}
	.st30{fill:url(#SVGID_26_);stroke:#252525;stroke-width:20;stroke-miterlimit:10;}
	.st31{fill:url(#SVGID_27_);stroke:#252525;stroke-width:20;stroke-miterlimit:10;}
	.st32{fill:none;stroke:#252525;stroke-width:20;stroke-miterlimit:10;}
	.st33{fill:#FFFFFF;stroke:#252525;stroke-width:20;stroke-miterlimit:10;}
	.st34{fill:url(#SVGID_28_);stroke:#252525;stroke-width:20;stroke-miterlimit:10;}
	.st35{fill:url(#SVGID_29_);stroke:#252525;stroke-width:20;stroke-miterlimit:10;}
	.st36{fill:url(#SVGID_30_);stroke:#252525;stroke-width:20;stroke-miterlimit:10;}
	.st37{fill:url(#SVGID_31_);stroke:#252525;stroke-width:20;stroke-miterlimit:10;}
	.st38{fill:url(#SVGID_32_);stroke:#FFFFFF;stroke-width:20;stroke-miterlimit:10;}
	.st39{fill:url(#SVGID_33_);stroke:#FFFFFF;stroke-width:20;stroke-miterlimit:10;}
	.st40{fill:url(#SVGID_34_);stroke:#FFFFFF;stroke-width:20;stroke-miterlimit:10;}
	.st41{fill:url(#SVGID_35_);stroke:#FFFFFF;stroke-width:20;stroke-miterlimit:10;}
	.st42{fill:url(#SVGID_36_);stroke:#252525;stroke-width:20;stroke-miterlimit:10;}
	.st43{fill:url(#SVGID_37_);stroke:#252525;stroke-width:20;stroke-miterlimit:10;}
	.st44{fill:url(#SVGID_38_);stroke:#252525;stroke-width:20;stroke-miterlimit:10;}
	.st45{fill:url(#SVGID_39_);stroke:#252525;stroke-width:20;stroke-miterlimit:10;}
	.st46{fill:url(#SVGID_40_);stroke:#FFFFFF;stroke-width:20;stroke-miterlimit:10;}
	.st47{fill:url(#SVGID_41_);stroke:#FFFFFF;stroke-width:20;stroke-miterlimit:10;}
	.st48{fill:url(#SVGID_42_);stroke:#FFFFFF;stroke-width:20;stroke-miterlimit:10;}
	.st49{fill:url(#SVGID_43_);stroke:#FFFFFF;stroke-width:20;stroke-miterlimit:10;}
</style>
<g>
	<path class="st6" d="M558.8,217.1c0-1.5,0.3-2.9,0.8-4.3s1.3-2.5,2.3-3.5c1-1,2.1-1.8,3.4-2.3c1.3-0.6,2.7-0.8,4.2-0.8
		c3.1,0,5.6,1.1,7.6,3.2c2,2.1,3,4.7,3,7.7v81.8c1.4-3.2,3.5-6.2,6.1-9c2.6-2.8,5.6-5.1,8.9-7.2c3.3-2,6.9-3.6,10.8-4.7
		c3.9-1.1,7.8-1.7,11.8-1.7c8.1,0,15.7,1.5,22.8,4.6c7.1,3.1,13.3,7.3,18.6,12.6c5.3,5.3,9.5,11.6,12.5,18.7
		c3,7.1,4.6,14.8,4.6,22.9s-1.5,15.7-4.6,22.8s-7.2,13.3-12.5,18.6c-5.3,5.3-11.5,9.5-18.6,12.6c-7.1,3.1-14.8,4.6-22.9,4.6
		s-15.7-1.5-22.9-4.6c-7.1-3.1-13.4-7.3-18.7-12.6c-5.3-5.3-9.5-11.5-12.6-18.6s-4.6-14.7-4.6-22.8V217.1z M580.2,335.2
		c0,5.1,1,9.9,2.9,14.5c2,4.5,4.6,8.5,8,11.8c3.4,3.4,7.3,6,11.9,8c4.6,2,9.4,2.9,14.6,2.9c5.2,0,10.1-1,14.6-2.9s8.5-4.6,11.9-8
		c3.4-3.4,6-7.3,7.9-11.8c1.9-4.5,2.9-9.3,2.9-14.5c0-5.2-1-10.1-2.9-14.6c-1.9-4.5-4.6-8.5-7.9-11.8s-7.3-6-11.9-7.9
		s-9.4-2.9-14.6-2.9c-5.2,0-10.1,1-14.6,2.9c-4.6,1.9-8.5,4.6-11.9,7.9c-3.4,3.4-6,7.3-8,11.8C581.2,325.1,580.2,330,580.2,335.2z"
		/>
	<path class="st6" d="M692.3,250.3c0-1.7,0.3-3.2,1-4.7c0.6-1.4,1.5-2.7,2.6-3.8c1.1-1.1,2.4-1.9,3.8-2.6c1.5-0.6,3.1-1,4.7-1
		s3.2,0.3,4.7,1c1.4,0.6,2.7,1.5,3.8,2.6c1.1,1.1,2,2.3,2.6,3.8c0.6,1.4,1,3,1,4.7s-0.3,3.2-1,4.7c-0.6,1.4-1.5,2.7-2.6,3.8
		c-1.1,1.1-2.4,1.9-3.8,2.6c-1.4,0.6-3,1-4.7,1s-3.3-0.3-4.7-1c-1.5-0.6-2.8-1.5-3.8-2.6c-1.1-1.1-1.9-2.3-2.6-3.8
		C692.6,253.5,692.3,252,692.3,250.3z M693.6,287.2c0-1.4,0.3-2.8,0.8-4.1c0.6-1.3,1.3-2.5,2.3-3.4c1-1,2.2-1.7,3.5-2.3
		c1.3-0.6,2.7-0.8,4.3-0.8c3,0,5.4,1,7.4,3.1c2,2.1,2.9,4.6,2.9,7.6v95.6c0,3-1,5.5-3.1,7.5c-2,2-4.5,3.1-7.4,3.1
		c-3,0-5.5-1-7.6-3.1c-2.1-2-3.2-4.5-3.2-7.5V287.2z"/>
	<path class="st6" d="M738.1,337.9c0-8.4,1.6-16.3,4.8-23.8c3.2-7.5,7.6-14,13.2-19.5c5.6-5.6,12-10,19.4-13.2
		c7.4-3.2,15.3-4.9,23.7-4.9h0.6c3.6,0,6.3,1,8.2,3c1.9,2,2.8,4.5,2.8,7.6c0,3-1.1,5.6-3.2,7.6c-2.2,2-4.8,3-7.8,3h-0.6
		c-5.5,0-10.6,1.1-15.4,3.2c-4.8,2.1-9,5-12.7,8.7c-3.6,3.6-6.5,7.9-8.7,12.8c-2.1,4.9-3.2,10.1-3.2,15.6v44c0,3-1,5.6-3,7.6
		c-2,2-4.4,3-7.3,3c-1.5,0-2.8-0.3-4.2-0.8c-1.3-0.5-2.5-1.3-3.5-2.2c-1-1-1.8-2.1-2.4-3.4c-0.6-1.3-0.9-2.7-0.9-4.2V337.9z"/>
	<path class="st6" d="M813.2,335.2c0-8.1,1.5-15.7,4.6-22.9c3.1-7.1,7.3-13.4,12.6-18.7c5.3-5.3,11.5-9.5,18.6-12.6
		c7.1-3.1,14.7-4.6,22.8-4.6c4.8,0,9.1,0.5,13,1.5c3.8,1,7.3,2.4,10.3,4.2c3,1.9,5.7,4.1,8,6.8c2.3,2.7,4.4,5.7,6.1,9.1v-52.6
		c0-3.1,1-5.7,3-7.9c2-2.1,4.5-3.2,7.6-3.2c3,0,5.6,1.1,7.6,3.2c2,2.1,3.1,4.7,3.1,7.9v90v0.7c-0.1,8-1.7,15.5-4.7,22.5
		c-3.1,7-7.3,13.1-12.6,18.4c-5.3,5.2-11.5,9.4-18.6,12.4c-7.1,3-14.7,4.6-22.8,4.6c-8.1,0-15.7-1.5-22.8-4.6
		c-7.1-3.1-13.3-7.3-18.6-12.6c-5.3-5.3-9.5-11.5-12.6-18.6C814.8,350.9,813.2,343.3,813.2,335.2z M834.5,335.2
		c0,5.1,1,9.9,2.9,14.5c2,4.5,4.6,8.5,8,11.9c3.4,3.4,7.3,6.1,11.8,8c4.5,2,9.4,2.9,14.6,2.9c5.3,0,10.2-1,14.7-2.9
		c4.5-2,8.5-4.6,11.8-8c3.4-3.4,6-7.4,7.9-11.9c1.9-4.5,2.9-9.3,2.9-14.5c0-5.1-1-9.9-2.9-14.5c-1.9-4.5-4.6-8.5-7.9-11.8
		c-3.4-3.4-7.3-6-11.8-8c-4.5-2-9.4-2.9-14.7-2.9c-5.2,0-10.1,1-14.6,2.9c-4.5,2-8.5,4.6-11.8,8c-3.4,3.4-6,7.3-8,11.8
		C835.5,325.3,834.5,330.1,834.5,335.2z"/>
	<g>
		<path class="st6" d="M203.7,251.2c-3.4-4.3-6.7-8.8-9.8-13.4c-6.5-9.5-15.2-17.6-25.4-23.4l-34.3-19.4
			c-6.9-3.9-10.2-11.7-8.2-19.4c2-7.7,8.7-12.8,16.7-12.8c0,0,0,0,0.1,0c54.9,0.2,177.4,0.6,236.6,0.8l-0.1,20
			c-55.7-0.2-167.3-0.5-226.1-0.8l25.2,14.2c12.9,7.3,24,17.5,32.1,29.6c2.9,4.2,5.9,8.4,9,12.3L203.7,251.2z"/>
	</g>
	<g>
		<path class="st6" d="M160.1,527.4c-5.6,0-11.1-2.3-15.1-6.8c-6.4-7-7.2-17.1-2-25c16.3-25.1,45.2-67.7,85.7-126.4l16.5,11.4
			c-40.4,58.6-69.2,101-85.4,125.9c-0.1,0.2-0.2,0.3-0.2,0.3c0,0.2,0.3,0.5,0.5,0.6l93.5-69.4l0.7-0.4c11.1-5.8,22.8-7.8,34.1-9.8
			c7.9-1.3,15.3-2.6,22.2-5.1c148.4-53,193.2-84.9,204.2-193.9c2.2-22.1,7.7-46.2,31.2-58.2c4.3-2.2,8.6-4.5,12.7-6.7
			c-26.8-39.3-54.1-64.5-73.1-67.5c-31.9-5.1-56.8,16.9-68.5,37.3c-0.3,0.5-0.3,0.5-12.2,17.5c-10.2,14.6-26.5,37.8-46.1,65.8
			l-16.4-11.5c19.6-28,35.9-51.2,46.1-65.8c6-8.6,10.5-14.9,11.4-16.3C414.9,97.6,447,70,488.8,76.7c33.8,5.4,68.7,50,86.6,76.2
			c3.2,4.6,4.2,10.4,2.9,15.8c-1.3,5.4-4.9,10.1-9.8,12.8c-4.3,2.4-8.8,4.8-13.4,7.1c-14.1,7.2-18.3,22.1-20.4,42.4
			c-6.2,61.4-23.7,100.9-58.4,131.8c-34.4,30.7-84.3,52.1-159,78.8c-8.6,3.1-17.2,4.5-25.6,6c-10,1.7-19.4,3.3-27.6,7.4l-93.8,69.6
			l-0.7,0.4C166.6,526.6,163.4,527.4,160.1,527.4z"/>
	</g>
	<g>
		<path class="st6" d="M275.7,390.3c-17.6,0-35.7-3.3-54-9.8c-25-8.9-49.2-23.5-72-43.3c-9.7-8.4-21.5-14.7-34.2-18l-42.1-11
			c-8-2.1-13.5-9.1-13.5-17.4c0-8.3,5.4-15.3,13.5-17.4c175.6-45.9,282.8-73.9,288-75.3c22.3-7.1,55.5-6.1,76.4,19.9
			c16.8,21,13.6,64.6,10.2,88.8c-0.7,4.9-3.4,9.3-7.5,12c-4.1,2.8-9.1,3.7-13.9,2.5c-3.7-0.9-7.4-1.9-11.2-2.9
			c-11.1-3.1-22.9,1.3-29.2,10.9c-22.2,33.9-53.9,54.5-91.7,59.7C288.3,389.9,282,390.3,275.7,390.3z M85.9,290.8l34.7,9.1
			c15.6,4.1,30.2,11.8,42.2,22.2c40.9,35.6,87.9,52.8,128.9,47.1c31.8-4.4,58.7-22,77.7-50.9c11.1-16.8,31.6-24.6,51.1-19.2
			c2.7,0.7,5.3,1.4,7.9,2.1c4.4-33.3,2-60.3-6.4-70.7c-14.5-18.2-38.6-18.5-54.8-13.3C366.9,217.4,366.1,217.6,85.9,290.8z
			 M431.2,301.9L431.2,301.9C431.2,301.9,431.2,301.9,431.2,301.9z"/>
	</g>
	<g>
		<path class="st6" d="M482.8,141.9c0.1-1.7,0.5-3.2,1.2-4.6c0.7-1.4,1.6-2.6,2.8-3.6c1.1-1,2.5-1.8,4-2.4c1.5-0.6,3.1-0.8,4.8-0.7
			s3.2,0.5,4.6,1.2c1.4,0.7,2.6,1.6,3.7,2.8c1.1,1.1,1.9,2.4,2.4,3.9c0.6,1.5,0.8,3.1,0.7,4.7c-0.1,1.7-0.5,3.2-1.2,4.6
			c-0.7,1.4-1.7,2.6-2.8,3.6c-1.2,1-2.5,1.8-4,2.4c-1.5,0.6-3.1,0.8-4.7,0.7c-1.7-0.1-3.2-0.5-4.7-1.2c-1.4-0.7-2.7-1.6-3.7-2.8
			c-1-1.1-1.8-2.4-2.4-3.9C482.9,145.1,482.7,143.6,482.8,141.9z"/>
	</g>
	<g>
		<path class="st6" d="M570.2,445.3v-26.2h-8.9c-1.4,0-2.5-1-2.5-2.4s1.1-2.4,2.5-2.4h23.2c1.4,0,2.5,1.1,2.5,2.4s-1.1,2.4-2.5,2.4
			h-9v26.2c0,1.6-1.2,2.7-2.7,2.7C571.4,448,570.2,446.8,570.2,445.3z"/>
		<path class="st6" d="M591.7,444.9v-28c0-1.5,1.1-2.6,2.6-2.6h17c1.4,0,2.5,1.1,2.5,2.4s-1.1,2.4-2.5,2.4H597v8.5h10.3
			c1.4,0,2.4,1,2.4,2.3c0,1.3-1,2.3-2.4,2.3H597v10.5h14.8c1.4,0,2.5,1,2.5,2.4s-1.1,2.4-2.5,2.4h-17.6
			C592.8,447.4,591.7,446.3,591.7,444.9z"/>
		<path class="st6" d="M617.5,430.9c0-9.6,7.6-17.1,17.4-17.1c5.1,0,9.9,2.2,12.9,5.8c0.6,0.8,0.9,1.4,0.9,2.1
			c0,1.3-1.1,2.4-2.5,2.4c-0.8,0-1.5-0.4-2.1-1.1c-2.4-2.9-5.5-4.4-9.1-4.4c-6.9,0-11.9,5.2-11.9,12.2c0,7,5.1,12.2,11.9,12.2
			c3.6,0,6.7-1.5,9.1-4.4c0.6-0.7,1.3-1.1,2.2-1.1c1.4,0,2.5,1.1,2.5,2.4c0,0.7-0.3,1.3-0.9,2.1c-2.9,3.6-7.7,5.8-12.8,5.8
			C625.1,448,617.5,440.5,617.5,430.9z"/>
		<path class="st6" d="M655.4,445.3v-28.8c0-1.6,1.1-2.7,2.7-2.7c1.6,0,2.7,1.2,2.7,2.7v11h16.7v-11c0-1.6,1.1-2.7,2.7-2.7
			c1.6,0,2.7,1.2,2.7,2.7v28.8c0,1.6-1.2,2.7-2.7,2.7s-2.7-1.2-2.7-2.7v-13h-16.7v13c0,1.6-1.2,2.7-2.7,2.7S655.4,446.8,655.4,445.3
			z"/>
		<path class="st6" d="M718.3,416.5v28.9c0,1.5-1.1,2.6-2.6,2.6c-1.1,0-1.8-0.6-2.5-1.5l-16.9-22.2v21c0,1.6-1.2,2.7-2.7,2.7
			c-1.5,0-2.7-1.2-2.7-2.7v-28.9c0-1.5,1.2-2.6,2.6-2.6c1.2,0,1.8,0.6,2.7,1.8l16.8,21.9l-0.1-21c0-1.6,1.2-2.7,2.7-2.7
			C717.2,413.8,718.3,414.9,718.3,416.5z"/>
		<path class="st6" d="M759.4,430.9c0,9.6-7.7,17.1-17.4,17.1c-9.7,0-17.4-7.5-17.4-17.1c0-9.6,7.6-17.1,17.4-17.1
			C751.8,413.8,759.4,421.4,759.4,430.9z M730.2,430.8c0,7.1,5,12.3,11.9,12.3c6.8,0,11.9-5.2,11.9-12.3c0-7-5.1-12.2-11.9-12.2
			C735.2,418.7,730.2,423.8,730.2,430.8z"/>
		<path class="st6" d="M765.8,444.7v-28.2c0-1.5,1.1-2.7,2.7-2.7c1.6,0,2.7,1.2,2.7,2.7v26.2h13c1.4,0,2.4,1,2.4,2.4s-1,2.4-2.4,2.4
			h-15.6C767,447.4,765.8,446.3,765.8,444.7z"/>
		<path class="st6" d="M823.6,430.9c0,9.6-7.7,17.1-17.4,17.1c-9.7,0-17.4-7.5-17.4-17.1c0-9.6,7.6-17.1,17.4-17.1
			C816,413.8,823.6,421.4,823.6,430.9z M794.4,430.8c0,7.1,5,12.3,11.9,12.3c6.8,0,11.9-5.2,11.9-12.3c0-7-5.1-12.2-11.9-12.2
			C799.4,418.7,794.4,423.8,794.4,430.8z"/>
		<path class="st6" d="M828,430.9c0-9.7,7.6-17.1,17.5-17.1c4.9,0,9.7,2.1,12.4,5.4c0.9,0.9,1.3,1.7,1.3,2.5c0,1.3-1.1,2.4-2.5,2.4
			c-0.9,0-1.5-0.3-2.3-1.3c-2.7-2.9-5.4-4.2-9-4.2c-6.9,0-11.9,5.1-11.9,12.2c0,7.2,5.1,12.4,12.2,12.4c4.1,0,7.8-1.8,9.9-4.8v-3.8
			h-7.9c-1.5,0-2.6-1.1-2.6-2.4c0-1.3,1.1-2.4,2.6-2.4h10.5c1.6,0,2.7,1.2,2.7,2.8v4.8c0,1.3-0.3,2.3-0.9,3.3
			c-3.1,4.4-8.7,7.2-14.5,7.2C835.6,448,828,440.6,828,430.9z"/>
		<path class="st6" d="M867.4,445.3v-28.8c0-1.6,1.1-2.7,2.7-2.7c1.6,0,2.7,1.2,2.7,2.7v28.8c0,1.6-1.1,2.7-2.7,2.7
			C868.5,448,867.4,446.8,867.4,445.3z"/>
		<path class="st6" d="M881.1,444.9v-28c0-1.5,1.1-2.6,2.6-2.6h17c1.4,0,2.5,1.1,2.5,2.4s-1.1,2.4-2.5,2.4h-14.2v8.5h10.3
			c1.4,0,2.4,1,2.4,2.3c0,1.3-1,2.3-2.4,2.3h-10.3v10.5h14.8c1.4,0,2.5,1,2.5,2.4s-1.1,2.4-2.5,2.4h-17.6
			C882.2,447.4,881.1,446.3,881.1,444.9z"/>
		<path class="st6" d="M908.8,442.9c-0.5-0.6-0.8-1.2-0.8-1.9c0-1.4,1.2-2.4,2.5-2.4c0.6,0,1.2,0.2,1.6,0.7c1.8,2.2,4.4,3.9,7.7,3.9
			c3.5,0,5.7-1.9,5.7-4.6c0-2.2-1.2-3.3-4.9-5l-3.7-1.7c-5.3-2.5-7.7-5.2-7.7-9.2c0-5.2,4.5-9,10.4-9c4.3-0.1,7.3,1.8,9.2,3.9
			c0.6,0.7,0.8,1.3,0.8,1.9c0,1.3-1.2,2.4-2.5,2.4c-0.6,0-1.1-0.3-1.6-0.7c-1.6-1.6-3.6-2.7-6-2.7c-3,0-5,1.6-5,4c0,2.1,1,3,4.6,4.7
			l3.7,1.7c5.5,2.6,7.9,5.2,7.9,9.4c0,5.8-4.7,9.6-11.1,9.6C915.6,448,911.3,446,908.8,442.9z"/>
	</g>
</g>
</svg>
