<?xml version="1.0" encoding="utf-8"?>
<!-- Generator: Adobe Illustrator 22.0.1, SVG Export Plug-In . SVG Version: 6.00 Build 0)  -->
<svg version="1.1" id="Layer_1" xmlns="http://www.w3.org/2000/svg" xmlns:xlink="http://www.w3.org/1999/xlink" x="0px" y="0px"
	 width="470px" height="470px" viewBox="0 0 470 470" style="enable-background:new 0 0 470 470;" xml:space="preserve">
<style type="text/css">
	.st0{fill:#FFFFFF;}
</style>
<g>
	<path class="st0" d="M253.5,306.4c4.1,0,7.5-3.4,7.5-7.5s-3.4-7.5-7.5-7.5H16.1c-0.6,0-1.1-0.5-1.1-1.1V16.1c0-0.6,0.5-1.1,1.1-1.1
		h361.8c0.6,0,1.1,0.5,1.1,1.1v132c0,4.1,3.4,7.5,7.5,7.5s7.5-3.4,7.5-7.5v-132C394,7.2,386.8,0,377.9,0H16.1C7.2,0,0,7.2,0,16.1
		v274.2c0,8.9,7.2,16.1,16.1,16.1h135.2v45.3H93.6c-4.1,0-7.5,3.4-7.5,7.5s3.4,7.5,7.5,7.5h159.9c4.1,0,7.5-3.4,7.5-7.5
		s-3.4-7.5-7.5-7.5h-10.8v-45.3L253.5,306.4L253.5,306.4z M227.7,351.7h-61.4v-45.3h61.4V351.7z"/>
	<path class="st0" d="M253.5,240.6h-216c-4.1,0-7.5,3.4-7.5,7.5s3.4,7.5,7.5,7.5h216c4.1,0,7.5-3.4,7.5-7.5S257.6,240.6,253.5,240.6
		z"/>
	<path class="st0" d="M453.9,170.6H292.1c-8.9,0-16.1,7.2-16.1,16.1v267.2c0,8.9,7.2,16.1,16.1,16.1h161.8c8.9,0,16.1-7.2,16.1-16.1
		V186.7C470,177.8,462.8,170.6,453.9,170.6z M291,215.6h164V395H291V215.6z M292.1,185.6h161.8c0.6,0,1.1,0.5,1.1,1.1v13.9H291
		v-13.9C291,186.1,291.5,185.6,292.1,185.6z M453.9,455H292.1c-0.6,0-1.1-0.5-1.1-1.1V410h164v43.9C455,454.5,454.5,455,453.9,455z"
		/>
	<path class="st0" d="M388,425h-30c-4.1,0-7.5,3.4-7.5,7.5s3.4,7.5,7.5,7.5h30c4.1,0,7.5-3.4,7.5-7.5S392.1,425,388,425z"/>
</g>
</svg>
