<?xml version="1.0" encoding="utf-8"?>
<!-- Generator: Adobe Illustrator 22.0.1, SVG Export Plug-In . SVG Version: 6.00 Build 0)  -->
<svg version="1.1" id="Layer_1" xmlns="http://www.w3.org/2000/svg" xmlns:xlink="http://www.w3.org/1999/xlink" x="0px" y="0px"
	 width="234.3px" height="50px" viewBox="0 0 234.3 50" style="enable-background:new 0 0 234.3 50;" xml:space="preserve">
<style type="text/css">
	.st0{fill:#FFFFFF;}
</style>
<g>
	<path class="st0" d="M25.1,9.3c-0.3,0.4-0.6,0.8-0.9,1c-0.3,0.2-0.7,0.3-1.2,0.3c-0.4,0-0.9-0.1-1.4-0.4c-0.5-0.3-1-0.6-1.6-0.9
		C19.4,9,18.7,8.7,18,8.5c-0.8-0.3-1.7-0.4-2.7-0.4c-1.7,0-3,0.4-3.9,1.1c-0.8,0.7-1.3,1.7-1.3,3c0,0.8,0.3,1.5,0.8,2
		c0.5,0.5,1.2,1,2,1.4c0.8,0.4,1.8,0.7,2.8,1.1c1.1,0.3,2.2,0.7,3.3,1.1c1.1,0.4,2.2,0.9,3.3,1.4c1.1,0.5,2,1.2,2.8,2
		c0.8,0.8,1.5,1.8,2,3c0.5,1.2,0.8,2.6,0.8,4.2c0,1.8-0.3,3.6-1,5.2c-0.6,1.6-1.6,3-2.8,4.2c-1.2,1.2-2.7,2.1-4.5,2.8
		c-1.8,0.7-3.8,1-6,1c-1.2,0-2.5-0.1-3.8-0.4c-1.3-0.3-2.5-0.6-3.7-1.1c-1.2-0.5-2.3-1-3.4-1.7c-1.1-0.6-2-1.3-2.8-2.1l2.7-4.3
		c0.2-0.3,0.5-0.6,0.8-0.8c0.4-0.2,0.8-0.3,1.2-0.3c0.5,0,1.1,0.2,1.7,0.5c0.6,0.3,1.2,0.7,1.9,1.1c0.7,0.4,1.5,0.8,2.4,1.1
		c0.9,0.3,2,0.5,3.2,0.5c1.7,0,3-0.4,3.9-1.1c0.9-0.7,1.4-1.9,1.4-3.5c0-0.9-0.3-1.7-0.8-2.3c-0.5-0.6-1.2-1.1-2-1.4
		c-0.8-0.4-1.8-0.7-2.8-1c-1.1-0.3-2.1-0.6-3.2-1c-1.1-0.4-2.2-0.8-3.2-1.3c-1.1-0.5-2-1.2-2.8-2c-0.8-0.8-1.5-1.9-2-3.2
		c-0.5-1.3-0.8-2.8-0.8-4.7c0-1.5,0.3-2.9,0.9-4.4s1.5-2.7,2.6-3.8c1.2-1.1,2.6-2,4.3-2.7c1.7-0.7,3.6-1,5.8-1
		c1.2,0,2.4,0.1,3.6,0.3C19.9,1.3,21,1.6,22,2c1,0.4,2,0.8,2.9,1.3c0.9,0.5,1.7,1.1,2.4,1.8L25.1,9.3z"/>
	<path class="st0" d="M42.2,5c0,0.7-0.1,1.3-0.4,1.9c-0.3,0.6-0.6,1.1-1.1,1.6c-0.5,0.4-1,0.8-1.7,1.1c-0.6,0.3-1.3,0.4-2,0.4
		c-0.7,0-1.3-0.1-1.9-0.4c-0.6-0.3-1.1-0.6-1.6-1.1c-0.5-0.4-0.8-1-1.1-1.6C32.1,6.3,32,5.6,32,5c0-0.7,0.1-1.3,0.4-1.9
		c0.3-0.6,0.6-1.1,1.1-1.6c0.5-0.5,1-0.8,1.6-1.1C35.7,0.1,36.3,0,37,0c0.7,0,1.4,0.1,2,0.4c0.6,0.3,1.2,0.6,1.7,1.1
		c0.5,0.5,0.8,1,1.1,1.6C42.1,3.6,42.2,4.3,42.2,5z M41.2,12.7V41h-8.5V12.7H41.2z"/>
	<path class="st0" d="M48,41V12.7h5.2c0.5,0,1,0.1,1.3,0.4c0.4,0.2,0.6,0.6,0.8,1.1l0.5,1.5c0.5-0.5,1-0.9,1.5-1.4
		c0.5-0.4,1.1-0.8,1.7-1.1c0.6-0.3,1.2-0.5,1.9-0.7c0.7-0.2,1.4-0.3,2.3-0.3c1.7,0,3.1,0.4,4.2,1.3c1.1,0.9,2,2.1,2.6,3.5
		c0.5-0.9,1.1-1.6,1.7-2.2c0.7-0.6,1.4-1.1,2.2-1.5c0.8-0.4,1.6-0.7,2.5-0.8c0.9-0.2,1.8-0.3,2.6-0.3c1.6,0,3.1,0.2,4.3,0.7
		c1.3,0.5,2.3,1.2,3.2,2.1c0.8,0.9,1.5,2,1.9,3.4c0.4,1.3,0.7,2.9,0.7,4.5v18h-8.5V23c0-2.9-1.3-4.4-3.8-4.4c-1.1,0-2.1,0.4-2.9,1.1
		c-0.8,0.8-1.1,1.8-1.1,3.3v18h-8.5V23c0-1.6-0.3-2.8-1-3.4c-0.6-0.7-1.6-1-2.8-1c-0.8,0-1.5,0.2-2.2,0.5c-0.7,0.3-1.3,0.8-1.9,1.4
		V41H48z"/>
	<path class="st0" d="M95,50V12.7h5.2c0.5,0,1,0.1,1.3,0.4c0.4,0.2,0.6,0.6,0.8,1.1l0.6,2.1c0.5-0.6,1.1-1.1,1.8-1.6
		c0.6-0.5,1.3-0.9,2-1.3c0.7-0.4,1.5-0.6,2.3-0.8c0.8-0.2,1.7-0.3,2.7-0.3c1.5,0,2.8,0.3,4.1,1c1.3,0.7,2.3,1.6,3.2,2.8
		c0.9,1.2,1.6,2.8,2.1,4.5c0.5,1.8,0.8,3.8,0.8,6.1c0,2.1-0.3,4.1-0.9,5.9c-0.6,1.8-1.4,3.4-2.5,4.7c-1.1,1.3-2.3,2.4-3.8,3.1
		c-1.5,0.7-3.1,1.1-4.9,1.1c-1.5,0-2.7-0.2-3.7-0.6c-1-0.4-1.9-1-2.7-1.7V50H95z M108.8,18.6c-0.6,0-1.2,0.1-1.7,0.2
		c-0.5,0.1-1,0.3-1.4,0.5s-0.8,0.5-1.2,0.8c-0.4,0.3-0.7,0.7-1.1,1.2v12c0.6,0.7,1.3,1.2,2.1,1.5c0.7,0.3,1.5,0.4,2.3,0.4
		c0.8,0,1.5-0.2,2.2-0.5c0.7-0.3,1.2-0.8,1.7-1.5c0.5-0.7,0.9-1.6,1.1-2.7c0.3-1.1,0.4-2.4,0.4-4c0-1.5-0.1-2.7-0.3-3.8
		c-0.2-1-0.5-1.8-0.9-2.5c-0.4-0.6-0.9-1.1-1.4-1.4C110.1,18.8,109.5,18.6,108.8,18.6z"/>
	<path class="st0" d="M136.3,5c0,0.7-0.1,1.3-0.4,1.9c-0.3,0.6-0.6,1.1-1.1,1.6s-1,0.8-1.7,1.1c-0.6,0.3-1.3,0.4-2,0.4
		c-0.7,0-1.3-0.1-1.9-0.4c-0.6-0.3-1.1-0.6-1.6-1.1c-0.5-0.4-0.8-1-1.1-1.6c-0.3-0.6-0.4-1.2-0.4-1.9c0-0.7,0.1-1.3,0.4-1.9
		s0.6-1.1,1.1-1.6c0.5-0.5,1-0.8,1.6-1.1c0.6-0.3,1.2-0.4,1.9-0.4c0.7,0,1.4,0.1,2,0.4c0.6,0.3,1.2,0.6,1.7,1.1
		c0.5,0.5,0.8,1,1.1,1.6C136.2,3.6,136.3,4.3,136.3,5z M135.3,12.7V41h-8.5V12.7H135.3z"/>
	<path class="st0" d="M154.7,12.3c2.1,0,4.1,0.3,5.9,1c1.8,0.7,3.3,1.6,4.5,2.9c1.3,1.3,2.2,2.8,2.9,4.6c0.7,1.8,1.1,3.8,1.1,6
		c0,2.3-0.4,4.3-1.1,6.1c-0.7,1.8-1.7,3.3-2.9,4.6c-1.3,1.3-2.8,2.2-4.5,2.9c-1.8,0.7-3.7,1-5.9,1c-2.2,0-4.1-0.3-5.9-1
		s-3.3-1.7-4.6-2.9c-1.3-1.3-2.3-2.8-3-4.6c-0.7-1.8-1.1-3.8-1.1-6.1c0-2.2,0.3-4.3,1.1-6c0.7-1.8,1.7-3.3,3-4.6
		c1.3-1.3,2.8-2.2,4.6-2.9C150.6,12.6,152.6,12.3,154.7,12.3z M154.7,35.2c1.9,0,3.4-0.7,4.3-2.1c0.9-1.4,1.4-3.5,1.4-6.3
		c0-2.8-0.5-4.9-1.4-6.3c-0.9-1.4-2.4-2-4.3-2c-2,0-3.5,0.7-4.4,2c-0.9,1.4-1.4,3.4-1.4,6.3c0,2.8,0.5,4.9,1.4,6.3
		C151.3,34.5,152.7,35.2,154.7,35.2z"/>
	<path class="st0" d="M172.2,36.7c0-0.7,0.1-1.3,0.4-1.8c0.2-0.6,0.6-1.1,1-1.5c0.4-0.4,0.9-0.8,1.5-1c0.6-0.2,1.2-0.4,1.9-0.4
		c0.7,0,1.3,0.1,1.9,0.4c0.6,0.2,1.1,0.6,1.5,1c0.4,0.4,0.8,0.9,1,1.5c0.2,0.6,0.4,1.2,0.4,1.8c0,0.7-0.1,1.3-0.4,1.8
		c-0.2,0.6-0.6,1.1-1,1.5c-0.4,0.4-0.9,0.7-1.5,1c-0.6,0.2-1.2,0.4-1.9,0.4c-0.7,0-1.3-0.1-1.9-0.4c-0.6-0.2-1.1-0.6-1.5-1
		c-0.4-0.4-0.8-0.9-1-1.5C172.3,38,172.2,37.4,172.2,36.7z"/>
	<path class="st0" d="M186.7,41V12.7h5c0.4,0,0.8,0,1.1,0.1c0.3,0.1,0.5,0.2,0.7,0.3c0.2,0.2,0.3,0.4,0.4,0.6
		c0.1,0.3,0.2,0.6,0.3,0.9l0.5,2.6c1-1.6,2.2-2.9,3.5-3.8c1.3-0.9,2.7-1.4,4.2-1.4c1.3,0,2.3,0.3,3.1,0.9l-1.1,6.2
		c-0.1,0.4-0.2,0.7-0.4,0.8c-0.2,0.2-0.5,0.2-0.9,0.2c-0.3,0-0.7,0-1.1-0.1c-0.4-0.1-0.9-0.1-1.6-0.1c-2.2,0-4,1.2-5.2,3.5V41H186.7
		z"/>
	<path class="st0" d="M217.1,12.7v18c0,1.4,0.3,2.5,1,3.2s1.6,1.1,2.8,1.1c0.9,0,1.8-0.2,2.6-0.6c0.8-0.4,1.6-0.9,2.4-1.6V12.7h8.5
		V41h-5.2c-1.1,0-1.7-0.5-2.1-1.4l-0.5-1.6c-0.5,0.5-1.1,1-1.7,1.4c-0.6,0.4-1.2,0.8-1.9,1.1c-0.7,0.3-1.4,0.5-2.1,0.7
		c-0.8,0.2-1.6,0.3-2.5,0.3c-1.5,0-2.9-0.3-4.1-0.8s-2.2-1.3-3-2.3c-0.8-1-1.4-2.1-1.9-3.4c-0.4-1.3-0.6-2.7-0.6-4.3v-18H217.1z"/>
</g>
</svg>
