<?xml version="1.0" encoding="utf-8"?>
<!-- Generator: Adobe Illustrator 22.0.1, SVG Export Plug-In . SVG Version: 6.00 Build 0)  -->
<svg version="1.1" id="Layer_1" xmlns="http://www.w3.org/2000/svg" xmlns:xlink="http://www.w3.org/1999/xlink" x="0px" y="0px"
	 width="470px" height="470px" viewBox="0 0 470 470" style="enable-background:new 0 0 470 470;" xml:space="preserve">
<style type="text/css">
	.st0{fill:#FFFFFF;}
</style>
<g>
	<path class="st0" d="M156.2,280.2h157.7c4.1,0,7.5-3.4,7.5-7.5V109.5c0-4.1-3.4-7.5-7.5-7.5h-36.3v-3.2c0-23.4-19.1-42.5-42.5-42.5
		s-42.5,19.1-42.5,42.5v3.2h-36.3c-4.1,0-7.5,3.4-7.5,7.5v163.2C148.7,276.9,152,280.2,156.2,280.2z M207.5,98.9
		c0-15.2,12.3-27.5,27.5-27.5s27.5,12.3,27.5,27.5v3.2h-55V98.9z M163.7,117h28.8v12.5c0,4.1,3.4,7.5,7.5,7.5s7.5-3.4,7.5-7.5V117
		h55v12.5c0,4.1,3.4,7.5,7.5,7.5s7.5-3.4,7.5-7.5V117h28.8v148.2H163.7L163.7,117L163.7,117z"/>
	<path class="st0" d="M452.2,16.4H17.8C8,16.4,0,24.4,0,34.2v329.2c0,9.8,8,17.8,17.8,17.8h163.8v57.4h-70.7c-4.1,0-7.5,3.4-7.5,7.5
		s3.4,7.5,7.5,7.5h248.2c4.1,0,7.5-3.4,7.5-7.5s-3.4-7.5-7.5-7.5h-70.7v-57.4h163.8c9.8,0,17.8-8,17.8-17.8V34.2
		C470,24.4,462,16.4,452.2,16.4z M273.4,438.6h-76.7v-57.4h76.7V438.6z M455,363.4c0,1.5-1.3,2.8-2.8,2.8H17.8
		c-1.5,0-2.8-1.3-2.8-2.8V34.2c0-1.5,1.3-2.8,2.8-2.8h434.3c1.5,0,2.8,1.3,2.8,2.8V363.4z"/>
	<path class="st0" d="M431.5,305.2h-393c-4.1,0-7.5,3.4-7.5,7.5s3.4,7.5,7.5,7.5h393c4.1,0,7.5-3.4,7.5-7.5S435.6,305.2,431.5,305.2
		z"/>
</g>
</svg>
