<?xml version="1.0" encoding="utf-8"?>
<!-- Generator: Adobe Illustrator 22.0.1, SVG Export Plug-In . SVG Version: 6.00 Build 0)  -->
<svg version="1.1" id="Layer_1" xmlns="http://www.w3.org/2000/svg" xmlns:xlink="http://www.w3.org/1999/xlink" x="0px" y="0px"
	 width="470px" height="470px" viewBox="0 0 470 470" style="enable-background:new 0 0 470 470;" xml:space="preserve">
<style type="text/css">
	.st0{fill:#FFFFFF;}
</style>
<g>
	<path class="st0" d="M441.3,0H28.8c-4.1,0-7.5,3.4-7.5,7.5v120c0,4.1,3.4,7.5,7.5,7.5h412.5c4.1,0,7.5-3.4,7.5-7.5V7.5
		C448.8,3.4,445.4,0,441.3,0z M36.3,15h277.5v105H36.3V15z M433.8,120h-105V15h105V120z"/>
	<path class="st0" d="M148.8,370H280c4.1,0,7.5-3.4,7.5-7.5s-3.4-7.5-7.5-7.5H148.8c-4.1,0-7.5,3.4-7.5,7.5S144.6,370,148.8,370z"/>
	<path class="st0" d="M411.3,315H148.8c-4.1,0-7.5,3.4-7.5,7.5s3.4,7.5,7.5,7.5h262.5c4.1,0,7.5-3.4,7.5-7.5S415.4,315,411.3,315z"
		/>
	<path class="st0" d="M148.8,250H280c4.1,0,7.5-3.4,7.5-7.5s-3.4-7.5-7.5-7.5H148.8c-4.1,0-7.5,3.4-7.5,7.5S144.6,250,148.8,250z"/>
	<path class="st0" d="M148.8,210h262.5c4.1,0,7.5-3.4,7.5-7.5s-3.4-7.5-7.5-7.5H148.8c-4.1,0-7.5,3.4-7.5,7.5S144.6,210,148.8,210z"
		/>
	<path class="st0" d="M441.3,155H28.8c-4.1,0-7.5,3.4-7.5,7.5v120c0,4.1,3.4,7.5,7.5,7.5h412.5c4.1,0,7.5-3.4,7.5-7.5v-120
		C448.8,158.4,445.4,155,441.3,155z M433.8,275H36.3V170h397.5V275z"/>
	<path class="st0" d="M352.7,82.3c5.8,5.8,13.5,9,21.7,9c5.6,0,11-1.5,15.7-4.3l15.9,15.8c1.5,1.5,3.4,2.2,5.3,2.2s3.8-0.7,5.3-2.2
		c2.9-2.9,2.9-7.7,0-10.6l-15.9-15.8c2.8-4.7,4.3-10.1,4.3-15.7c0-8.2-3.2-15.9-9-21.7c-5.8-5.8-13.5-9-21.7-9
		c-8.2,0-15.9,3.2-21.7,9C340.8,50.9,340.8,70.4,352.7,82.3L352.7,82.3z M363.3,49.6c3-3,6.9-4.6,11.1-4.6s8.1,1.6,11.1,4.6
		c3,3,4.6,6.9,4.6,11.1s-1.6,8.1-4.6,11.1s-6.9,4.6-11.1,4.6s-8.1-1.6-11.1-4.6C357.2,65.6,357.2,55.7,363.3,49.6z"/>
	<path class="st0" d="M118.8,305h-60c-4.1,0-7.5,3.4-7.5,7.5v60c0,4.1,3.4,7.5,7.5,7.5h60c4.1,0,7.5-3.4,7.5-7.5v-60
		C126.3,308.4,122.9,305,118.8,305z M111.3,365h-45v-45h45V365z"/>
	<path class="st0" d="M280,445H148.8c-4.1,0-7.5,3.4-7.5,7.5s3.4,7.5,7.5,7.5H280c4.1,0,7.5-3.4,7.5-7.5S284.1,445,280,445z"/>
	<path class="st0" d="M411.3,405H148.8c-4.1,0-7.5,3.4-7.5,7.5s3.4,7.5,7.5,7.5h262.5c4.1,0,7.5-3.4,7.5-7.5S415.4,405,411.3,405z"
		/>
	<path class="st0" d="M118.8,395h-60c-4.1,0-7.5,3.4-7.5,7.5v60c0,4.1,3.4,7.5,7.5,7.5h60c4.1,0,7.5-3.4,7.5-7.5v-60
		C126.3,398.4,122.9,395,118.8,395z M111.3,455h-45v-45h45V455z"/>
	<path class="st0" d="M58.8,260h60c4.1,0,7.5-3.4,7.5-7.5v-60c0-4.1-3.4-7.5-7.5-7.5h-60c-4.1,0-7.5,3.4-7.5,7.5v60
		C51.3,256.6,54.6,260,58.8,260z M66.3,200h45v45h-45V200z"/>
</g>
</svg>
