<?xml version="1.0" encoding="utf-8"?>
<!-- Generator: Adobe Illustrator 22.0.1, SVG Export Plug-In . SVG Version: 6.00 Build 0)  -->
<svg version="1.1" xmlns="http://www.w3.org/2000/svg" xmlns:xlink="http://www.w3.org/1999/xlink" x="0px" y="0px" width="218.2px"
	 height="92.3px" viewBox="0 0 218.2 92.3" style="enable-background:new 0 0 218.2 92.3;" xml:space="preserve">
<style type="text/css">
	.st0{fill:none;}
	.st1{fill:url(#SVGID_1_);}
	.st2{fill:#FFCA28;}
	.st3{fill:none;stroke:#424242;stroke-width:4.2292;stroke-miterlimit:10;}
	.st4{fill:none;stroke:#424242;stroke-width:2.5375;stroke-miterlimit:10;}
	.st5{fill:#E53935;}
	.st6{fill:#43A047;}
	.st7{fill:none;stroke:#424242;stroke-width:2.6719;stroke-miterlimit:10;}
	.st8{fill:none;stroke:#424242;stroke-width:4.4532;stroke-miterlimit:10;}
	.st9{fill:none;stroke:#424242;stroke-width:4.2985;stroke-miterlimit:10;}
	.st10{fill:#424242;}
	.st11{fill:#FBB03B;}
	.st12{fill:#D74177;}
	.st13{fill:none;stroke:#FFFFFF;stroke-width:2.6719;stroke-miterlimit:10;}
	.st14{fill:none;stroke:#FFFFFF;stroke-width:4.4532;stroke-miterlimit:10;}
	.st15{fill:#FFFFFF;}
	.st16{fill:none;stroke:#424242;stroke-width:5.0686;stroke-miterlimit:10;}
	.st17{fill:none;stroke:#424242;stroke-width:2.6104;stroke-miterlimit:10;}
	.st18{opacity:0.56;}
	.st19{fill:#757575;}
</style>
<g id="BACKGROUND">
</g>
<g id="OBJECTS">
	<g>
		<rect x="68.3" y="16.7" class="st11" width="149.9" height="58.7"/>
		<g>
			<path class="st7" d="M60.6,1.3c-11.5,0-23.2,2.9-33.9,9C16,16.5,7.6,25.2,1.8,35.2l58.7,34L60.6,1.3z"/>
		</g>
		<g>
			<path class="st7" d="M60.6,7.5c-10.5,0-21.1,2.6-30.8,8.2C20,21.4,12.4,29.2,7.2,38.3l53.3,30.9L60.6,7.5z"/>
		</g>
		
			<ellipse transform="matrix(8.155785e-03 -1 1 8.155785e-03 -1.9646 65.3083)" class="st12" cx="31.9" cy="33.6" rx="9.8" ry="9.8"/>
		<path class="st6" d="M54.9,44.6c1.5,2.7,0.6,6-2,7.6c-2.7,1.5-6,0.6-7.6-2c-1.5-2.7-0.6-6,2-7.6C50,41,53.4,42,54.9,44.6z"/>
		<path class="st11" d="M53.2,24.6c0.9,1.6,0.4,3.7-1.3,4.6c-1.6,0.9-3.7,0.4-4.6-1.3c-0.9-1.6-0.4-3.7,1.3-4.6
			C50.1,22.4,52.2,22.9,53.2,24.6z"/>
		<polyline class="st8" points="70.9,7.5 206.9,7.5 206.9,90 36.8,90 36.8,64 		"/>
		<g>
			<g>
				<path class="st10" d="M97.5,27.7c2.5,0,4.4,0.6,5.8,1.9c1.4,1.3,2.1,2.9,2.1,5c0,2.1-0.7,3.7-2.1,5c-1.4,1.3-3.4,1.9-5.8,1.9
					h-3.6v4.8l2.3,0.4v2.6h-8.9v-2.6l2.3-0.4V30.8l-2.3-0.4v-2.6h2.3H97.5z M93.9,38.1h3.6c1.2,0,2.1-0.3,2.7-1s0.9-1.5,0.9-2.5
					c0-1-0.3-1.9-0.9-2.6c-0.6-0.7-1.5-1-2.7-1h-3.6V38.1z"/>
				<path class="st10" d="M106.9,30.3v-2.6h8.9v2.6l-2.3,0.4v15.5l2.3,0.4v2.6h-8.9v-2.6l2.3-0.4V30.8L106.9,30.3z"/>
				<path class="st10" d="M133.5,27.7v2.2L123,46h7.5l0.4-2.6h3.3l-0.3,5.9h-16.1V47l10.5-16h-6.8l-0.3,2.6h-3.3l0.3-5.9H133.5z"/>
				<path class="st10" d="M151.7,27.7v2.2L141.1,46h7.5l0.4-2.6h3.3l-0.3,5.9h-16.1V47l10.5-16h-6.8l-0.3,2.6h-3.3l0.3-5.9H151.7z"
					/>
				<path class="st10" d="M153.5,46.7l1.5-0.2l6.6-18.7h4.4l6.5,18.7l1.5,0.2v2.6h-7.3v-2.6l1.5-0.3l-0.9-3h-7l-0.9,3l1.5,0.3v2.6
					h-7.3V46.7z M161.3,40.3h4.9l-2.4-7.6h-0.1L161.3,40.3z"/>
			</g>
		</g>
		<g>
			<path class="st10" d="M81.4,56.6c1.2,0,2.2,0.3,2.8,0.8c0.7,0.5,1,1.3,1,2.3c0,0.5-0.2,1-0.5,1.5c-0.3,0.4-0.7,0.8-1.3,1
				c0.6,0.2,1.1,0.5,1.3,1c0.3,0.5,0.4,1,0.4,1.7v0.9c0,0.3,0,0.6,0.1,0.8s0.2,0.3,0.4,0.3l0.4,0v1h-0.8c-0.6,0-1-0.2-1.3-0.6
				c-0.3-0.4-0.4-0.9-0.4-1.5v-0.9c0-0.6-0.2-1.1-0.5-1.5c-0.4-0.4-0.8-0.6-1.4-0.6h-2.4v3.8l1.3,0.2v1h-4v-1l1.3-0.2v-8.9l-1.3-0.2
				v-1h1.3H81.4z M79.2,61.6h2c0.9,0,1.5-0.2,1.9-0.5s0.6-0.8,0.6-1.4c0-0.6-0.2-1.1-0.6-1.4c-0.4-0.3-0.9-0.5-1.7-0.5h-2.2V61.6z"
				/>
			<path class="st10" d="M88.8,67.9v-1l1.3-0.2v-8.9l-1.3-0.2v-1h8.6v2.7h-1.3L96,57.8h-4.4v3.6h4.3v1.2h-4.3v4h4.5l0.1-1.5h1.3v2.7
				H88.8z"/>
			<path class="st10" d="M108.6,59.9h-1.2l-0.3-1.6c-0.2-0.2-0.5-0.4-0.9-0.5s-0.8-0.2-1.3-0.2c-0.8,0-1.4,0.2-1.9,0.5
				c-0.4,0.3-0.6,0.8-0.6,1.3c0,0.5,0.2,0.9,0.7,1.2c0.4,0.3,1.2,0.6,2.1,0.9c1.2,0.3,2.1,0.7,2.7,1.3c0.6,0.6,0.9,1.3,0.9,2.1
				c0,0.9-0.4,1.6-1.1,2.2S106,68,104.8,68c-0.9,0-1.6-0.1-2.3-0.4c-0.7-0.3-1.2-0.7-1.6-1.1v-2.1h1.1l0.3,1.6
				c0.3,0.2,0.6,0.4,1.1,0.6c0.4,0.2,0.9,0.2,1.5,0.2c0.8,0,1.4-0.2,1.8-0.5c0.4-0.3,0.7-0.8,0.7-1.3c0-0.5-0.2-0.9-0.6-1.3
				c-0.4-0.3-1.1-0.6-2-0.9c-1.2-0.3-2.1-0.7-2.8-1.3c-0.7-0.6-1-1.2-1-2.1c0-0.9,0.4-1.6,1.1-2.2c0.7-0.6,1.7-0.9,2.9-0.9
				c0.8,0,1.5,0.1,2.2,0.4c0.6,0.3,1.2,0.6,1.6,1V59.9z"/>
			<path class="st10" d="M120.8,56.6v2.5h-1.3l-0.1-1.3h-2.5v8.9l1.3,0.2v1h-4v-1l1.3-0.2v-8.9h-2.5l-0.1,1.3h-1.3v-2.5H120.8z"/>
			<path class="st10" d="M121.7,66.9l0.8-0.1l3.9-10.2h1.3l3.9,10.2l0.8,0.1v1h-3.2v-1l0.9-0.1l-0.7-2.1h-4.5l-0.8,2.1l0.9,0.1v1
				h-3.2V66.9z M125.3,63.4h3.6l-1.7-4.8h0L125.3,63.4z"/>
			<path class="st10" d="M138.5,56.6v1l-1.3,0.2v6.4c0,0.9,0.2,1.5,0.7,1.9c0.5,0.4,1.1,0.7,1.9,0.7c0.8,0,1.5-0.2,2-0.7
				s0.8-1.1,0.8-1.9v-6.4l-1.3-0.2v-1h2.8h1.3v1l-1.3,0.2v6.4c0,1.2-0.4,2.2-1.2,2.8s-1.8,1-3.1,1c-1.2,0-2.2-0.3-3-1
				s-1.2-1.6-1.2-2.8v-6.4l-1.3-0.2v-1h1.3H138.5z"/>
			<path class="st10" d="M153,56.6c1.2,0,2.2,0.3,2.8,0.8c0.7,0.5,1,1.3,1,2.3c0,0.5-0.2,1-0.5,1.5c-0.3,0.4-0.7,0.8-1.3,1
				c0.6,0.2,1.1,0.5,1.3,1c0.3,0.5,0.4,1,0.4,1.7v0.9c0,0.3,0,0.6,0.1,0.8s0.2,0.3,0.4,0.3l0.4,0v1h-0.8c-0.6,0-1-0.2-1.3-0.6
				c-0.3-0.4-0.4-0.9-0.4-1.5v-0.9c0-0.6-0.2-1.1-0.5-1.5c-0.4-0.4-0.8-0.6-1.4-0.6h-2.4v3.8l1.3,0.2v1h-4v-1l1.3-0.2v-8.9l-1.3-0.2
				v-1h1.3H153z M150.8,61.6h2c0.9,0,1.5-0.2,1.9-0.5s0.6-0.8,0.6-1.4c0-0.6-0.2-1.1-0.6-1.4c-0.4-0.3-0.9-0.5-1.7-0.5h-2.2V61.6z"
				/>
			<path class="st10" d="M160.2,66.9l0.8-0.1l3.9-10.2h1.3l3.9,10.2l0.8,0.1v1h-3.2v-1l0.9-0.1l-0.7-2.1h-4.5l-0.8,2.1l0.9,0.1v1
				h-3.2V66.9z M163.8,63.4h3.6l-1.7-4.8h0L163.8,63.4z"/>
			<path class="st10" d="M184.6,56.6v1l-1.3,0.2v10.1h-1.5l-5.4-8.7l0,0v7.5l1.3,0.2v1h-4v-1l1.3-0.2v-8.9l-1.3-0.2v-1h1.3h1.5
				l5.4,8.7l0,0v-7.5l-1.3-0.2v-1h2.8H184.6z"/>
			<path class="st10" d="M196.3,56.6v2.5H195l-0.1-1.3h-2.5v8.9l1.3,0.2v1h-4v-1l1.3-0.2v-8.9h-2.5l-0.1,1.3h-1.3v-2.5H196.3z"/>
		</g>
	</g>
</g>
<g id="TEXTURE">
</g>
<g id="DESIGNED_BY_FREEPIK">
</g>
</svg>
