<?xml version="1.0" encoding="utf-8"?>
<!-- Generator: Adobe Illustrator 22.0.0, SVG Export Plug-In . SVG Version: 6.00 Build 0)  -->
<svg version="1.1" id="Capa_1" xmlns="http://www.w3.org/2000/svg" xmlns:xlink="http://www.w3.org/1999/xlink" x="0px" y="0px"
	 width="433.4px" height="433.4px" viewBox="0 0 433.4 433.4" style="enable-background:new 0 0 433.4 433.4;" xml:space="preserve"
	>
<style type="text/css">
	.st0{fill:#FFFFFF;}
</style>
<g>
	<path class="st0" d="M231.7,344.2c-15.1,6.4-32.6-0.6-39.1-15.7c-1.7-4.1-6.4-6-10.5-4.2c-4.1,1.7-6,6.4-4.2,10.5
		c7.4,17.4,24.4,27.8,42.2,27.8c6,0,12-1.2,17.9-3.7c4.1-1.7,6-6.4,4.2-10.5C240.4,344.3,235.7,342.4,231.7,344.2z"/>
	<path class="st0" d="M406.3,256.2c0-11-4-21.4-11.2-29.5c2.9-60,4.5-100.1-14.5-137c-12.9-25.2-33.9-46.2-62.2-62.5
		c-33-19-70.7-28.4-109-27C175.8,1.3,144.5,17,123,43.4C95.1,45,69.7,60.1,56.1,83.5c-1.2,2-2.3,4.1-3.4,6.1
		c-19,37-17.4,77.1-14.5,137.1c-7,7.9-11.2,18.2-11.2,29.5c0,23.3,18,42.5,40.9,44.4c9.5,30.7,34.7,65.4,75.3,103.7
		c20.6,19.4,47,29.1,73.4,29.1c26.4,0,52.9-9.7,73.4-29.1c40.6-38.3,65.8-73,75.3-103.7C388.3,298.7,406.3,279.5,406.3,256.2z
		 M210,16.1c35.3-1.3,70,7.3,100.5,24.9c25.6,14.8,44.4,33.6,55.9,56c16,31.1,15.8,65,12.9,125.2l-17.9,1
		c-120.4,3.9-187-52-206.7-72l-19.3-97.7C154.1,30.7,181.1,17.2,210,16.1z M67,96.9c0.9-1.8,1.9-3.6,3-5.4
		c10.4-17.8,29.3-29.7,50.4-31.9l18.6,94.5c-12.7,29.2-34.5,44.6-68.3,48.2c-4.1,0.4-7.1,3.9-7.1,8v2.1c-3.4,0.6-6.7,1.6-9.8,3
		C51.2,159.4,51.6,126.9,67,96.9z M43.1,256.2c0-13,8.7-23.9,20.5-27.4V274c0,3.2,0.2,6.5,0.6,9.8C52.1,280.5,43.1,269.4,43.1,256.2
		z M279.2,392.6c-35,33-89.9,33-124.9,0c-48.8-46-74.6-87.1-74.6-118.7l0-56.6c32.6-5.2,55.7-21.3,70.2-48.7
		c12.3,11.3,32.5,27,61.1,40.8c42.5,20.5,90.6,30.5,142.9,29.9V274C353.8,305.6,328,346.6,279.2,392.6z M369.2,283.8
		c0.4-3.3,0.6-6.6,0.6-9.8v-35.3l13.9-0.8c4.3,5.1,6.6,11.5,6.6,18.3C390.3,269.4,381.3,280.5,369.2,283.8z"/>
	<path class="st0" d="M118.1,258c-3.1,3.1-3.1,8.2,0,11.3c3.1,3.1,8.2,3.1,11.3,0c5.7-5.7,15.1-5.7,20.8,0c1.6,1.6,3.6,2.3,5.7,2.3
		s4.1-0.8,5.7-2.3c3.1-3.1,3.1-8.2,0-11.3C149.6,246,130.1,246,118.1,258z"/>
	<circle class="st0" cx="294.6" cy="260.3" r="15"/>
</g>
</svg>
