<?xml version="1.0" encoding="utf-8"?>
<!-- Generator: Adobe Illustrator 22.0.0, SVG Export Plug-In . SVG Version: 6.00 Build 0)  -->
<svg version="1.1" id="Capa_1" xmlns="http://www.w3.org/2000/svg" xmlns:xlink="http://www.w3.org/1999/xlink" x="0px" y="0px"
	 width="510.9px" height="510.9px" viewBox="0 0 510.9 510.9" style="enable-background:new 0 0 510.9 510.9;" xml:space="preserve"
	>
<style type="text/css">
	.st0{fill:#FFFFFF;}
</style>
<g>
	<path class="st0" d="M479.7,389.7c-10.7-15.7-25.7-26.6-43.2-31.5c-0.2-0.1-0.4-0.1-0.6-0.2l-74.3-13.9l-25-33.1
		c23.7-26.9,38.5-64.6,38.5-103.9v-86l32.8-11.3v83.1c-9.3,3.1-16,11.9-16,22.3v28.5c0,4.1,3.4,7.5,7.5,7.5h32
		c4.1,0,7.5-3.4,7.5-7.5v-28.5c0-10.3-6.7-19.1-16-22.3v-88.3l18.3-6.3c8.3-2.8,13.7-10.4,13.7-19.1s-5.4-16.3-13.7-19.1L278.5,4.5
		c-17.5-6-36.8-6-54.4,0L61.5,60.3c-8.3,2.8-13.7,10.4-13.7,19.1s5.4,16.3,13.7,19.1l74.2,25.4v83.1c0,39.3,14.9,77,38.6,103.9
		l-25,33.1L75,358c-0.2,0-0.4,0.1-0.6,0.2c-17.6,4.9-32.5,15.8-43.2,31.5c-9.8,14.4-15.2,31.7-15.2,48.8v43.8
		c0,15.7,14.1,28.5,31.5,28.5h176c0,0,0,0,0,0c0,0,0,0,0,0h63.9c0,0,0,0,0,0s0,0,0,0h176c17.4,0,31.5-12.8,31.5-28.5v-43.8
		C494.9,421.4,489.5,404.1,479.7,389.7z M423.9,236.4h-17v-21c0-4.7,3.8-8.5,8.5-8.5s8.5,3.8,8.5,8.5V236.4z M453.2,383l-24.3,24.3
		c-13.5,13.5-20.9,31.5-20.9,50.6v38H293.6l-2.8-13.9c0,0,0,0,0,0l-11.5-57.3c1.5-1.4,2.8-3,3.9-4.7l7.5,9.3
		c0.2,0.2,0.3,0.4,0.5,0.6c2.9,2.9,6.9,4.5,10.9,4.5c0.5,0,1,0,1.5-0.1c4.6-0.4,8.8-2.9,11.4-6.7l46.2-68.2l71.5,13.4
		C440.5,374.9,447.3,378.5,453.2,383z M266.5,495.9l-28.3-28.3l3.1-15.7l35.2,35.2l1.8,8.8H266.5z M238.9,310.9H272
		c-0.1,13.7-2.2,44.7-16.6,67.8C241,355.6,239,324.6,238.9,310.9z M249.7,396.2c1.4,1.7,3.5,2.7,5.7,2.7s4.3-1,5.7-2.7
		c0.5-0.6,1-1.2,1.5-1.8l9.4,11.7c-0.1,0.4-0.1,0.9-0.1,1.3c0,4.7-3.8,8.5-8.5,8.5h-16c-4.7,0-8.5-3.8-8.5-8.5c0-0.5,0-0.9-0.1-1.3
		l9.4-11.7C248.7,395,249.2,395.6,249.7,396.2z M247.4,430.9h16c0.6,0,1.2,0,1.8-0.1l6,29.8l-26.3-26.3l0.7-3.4
		C246.2,430.8,246.8,430.9,247.4,430.9z M234.7,485.3l10.6,10.6h-12.7L234.7,485.3z M302.7,419.1c0,0.1-0.1,0.2-0.4,0.2
		c-0.1,0-0.2,0-0.3,0l-30.7-38.2c6-11.1,9.7-23.2,12.1-34.5c15.6-4.8,30-13.4,42.6-24.8l22.5,29.7L302.7,419.1z M303.4,167.9
		c-14.8,0-27.7,8.2-34.5,20.3c-3.8-2.7-8.5-4.3-13.5-4.3s-9.7,1.6-13.5,4.3c-6.8-12.1-19.7-20.3-34.5-20.3c-16.3,0-30.3,9.9-36.3,24
		h-20.4v-14.6c0.2-0.6,0.3-1.2,0.3-1.9c0-2.1,4.9-9,27.4-15.4c20.5-5.9,47.9-9.1,77.1-9.1s56.6,3.2,77.1,9.1
		c22.4,6.4,27.4,13.3,27.4,15.4c0,0.6,0.1,1.1,0.2,1.7v14.8h-20.4C333.7,177.8,319.7,167.9,303.4,167.9z M327.9,207.4
		c0,13.5-11,24.5-24.5,24.5s-24.5-11-24.5-24.5s11-24.5,24.5-24.5S327.9,193.9,327.9,207.4z M207.4,182.9c13.5,0,24.5,11,24.5,24.5
		s-11,24.5-24.5,24.5s-24.5-11-24.5-24.5S193.9,182.9,207.4,182.9z M150.7,145.3c0.2-0.6,0.3-1.2,0.3-1.9c0-2.1,4.9-9,27.4-15.4
		c20.5-5.9,47.9-9.1,77.1-9.1s56.6,3.2,77.1,9.1c22.4,6.4,27.4,13.3,27.4,15.4c0,0.6,0.1,1.1,0.2,1.7v9.9c-6-3.5-13.8-6.7-23.4-9.4
		c-21.8-6.2-50.7-9.7-81.3-9.7s-59.5,3.4-81.3,9.7c-9.6,2.8-17.5,5.9-23.5,9.5L150.7,145.3L150.7,145.3z M360.1,114.3
		c-0.2,1.1-0.3,2.2,0,3.4v5.3c-6-3.5-13.8-6.7-23.4-9.4c-21.8-6.2-50.7-9.7-81.3-9.7s-59.5,3.4-81.3,9.7c-9.6,2.8-17.5,5.9-23.5,9.5
		v-2.2c0.4-1.4,0.4-2.8,0-4.1V89.3c0.2-0.6,0.3-1.2,0.3-1.9c0-2.1,4.9-9,27.4-15.4c20.5-5.9,47.9-9.1,77.1-9.1s56.6,3.2,77.1,9.1
		c22.4,6.4,27.4,13.3,27.4,15.4c0,0.6,0.1,1.1,0.2,1.7L360.1,114.3L360.1,114.3z M66.3,84.4c-3.2-1.1-3.5-3.8-3.5-4.9
		s0.3-3.8,3.5-4.9l162.7-55.8c14.4-4.9,30.2-4.9,44.6,0l162.7,55.8c3.2,1.1,3.5,3.8,3.5,4.9s-0.3,3.8-3.5,4.9l-61.3,21v-18
		c0-0.8-0.1-1.5-0.3-2.2c-1.4-11.5-14.2-20.8-38.1-27.7c-21.8-6.2-50.7-9.7-81.3-9.7s-59.5,3.4-81.3,9.7
		c-23.7,6.8-36.5,16-38.1,27.4c-0.3,0.8-0.4,1.6-0.4,2.5v20.8L66.3,84.4z M150.7,206.9h17.3c0,0.2,0,0.3,0,0.5
		c0,21.8,17.7,39.5,39.5,39.5s39.5-17.7,39.5-39.5c0-4.7,3.8-8.5,8.5-8.5c4.7,0,8.5,3.8,8.5,8.5c0,21.8,17.7,39.5,39.5,39.5
		s39.5-17.7,39.5-39.5c0-0.2,0-0.3,0-0.5h17.2v0.3c0,28.1-8.5,56.5-24,79.8c-13.4,20.2-30.9,35.1-50.1,42.9c1.6-14.9,1-25.9,0.9-27
		c-0.3-4-3.5-7-7.5-7h-47.9c-4,0-7.2,3.1-7.5,7c-0.1,1-0.7,12,0.9,26.9c-19.2-7.8-36.8-22.7-50.2-42.9
		c-15.5-23.4-24.1-51.7-24.1-79.8V206.9z M184.9,321.8c12.6,11.4,27,20,42.6,24.8c2.3,11.3,6.1,23.4,12.1,34.5l-30.7,38.2
		c-0.1,0-0.1,0.1-0.3,0c-0.2,0-0.3-0.2-0.4-0.2l-45.8-67.5L184.9,321.8z M78.1,372.7l71.5-13.4l46.2,68.2c2.6,3.8,6.7,6.3,11.4,6.7
		c0.5,0,1,0.1,1.5,0.1c4.1,0,8-1.6,10.9-4.5c0.2-0.2,0.4-0.4,0.5-0.6l7.5-9.3c1.1,1.7,2.4,3.3,3.9,4.7l-14.2,71.2H102.9v-38
		c0-19.1-7.4-37.1-20.9-50.6L57.7,383C63.6,378.5,70.4,374.9,78.1,372.7z M30.9,482.4v-43.8c0-15.1,5.5-31.8,16.1-45l24.4,24.4
		c10.7,10.7,16.5,24.9,16.5,40v38H47.4C38.3,495.9,30.9,489.8,30.9,482.4z M479.9,482.4c0,7.5-7.4,13.5-16.5,13.5h-40.5v-38
		c0-15.1,5.9-29.3,16.5-40l24.4-24.4c10.6,13.1,16.1,29.9,16.1,45L479.9,482.4L479.9,482.4z"/>
	<path class="st0" d="M221.4,281.6c4.6,0,9.3-1.6,13.2-2.9c7.7-2.6,12.6-4,16.5-1.2c0,0,0.1,0.1,0.1,0.1c0.1,0.1,0.3,0.2,0.4,0.3
		c0.1,0.1,0.2,0.1,0.3,0.1c0.1,0.1,0.2,0.1,0.4,0.2c0.1,0.1,0.2,0.1,0.3,0.1c0.1,0,0.2,0.1,0.3,0.1c0.1,0,0.3,0.1,0.4,0.1
		c0.1,0,0.2,0.1,0.3,0.1c0.1,0,0.3,0.1,0.4,0.1c0.1,0,0.2,0,0.3,0.1c0.1,0,0.3,0,0.4,0c0.1,0,0.2,0,0.3,0c0.1,0,0.2,0,0.4,0
		c0.1,0,0.3,0,0.4,0c0.1,0,0.2,0,0.3,0c0.1,0,0.3,0,0.4,0c0.1,0,0.2,0,0.3,0c0.1,0,0.3-0.1,0.4-0.1c0.1,0,0.2,0,0.3-0.1
		c0.1,0,0.3-0.1,0.4-0.1c0.1,0,0.2-0.1,0.3-0.1c0.1,0,0.2-0.1,0.4-0.2c0.1-0.1,0.2-0.1,0.4-0.2c0.1,0,0.2-0.1,0.3-0.2
		c0.1-0.1,0.3-0.2,0.4-0.3c0.1,0,0.1-0.1,0.2-0.1c3.9-2.8,8.9-1.4,16.5,1.2c3.9,1.3,8.6,2.9,13.2,2.9c4.2,0,8.4-1.4,11.7-5.5
		c2.6-3.2,2.1-7.9-1.1-10.5c-3.2-2.6-7.9-2.1-10.5,1c-1.4,0.2-5.8-1.2-8.5-2.1c-7.1-2.4-16.5-5.6-25.7-1.7c-9.2-4-18.6-0.8-25.7,1.7
		c-2.6,0.9-7,2.4-8.5,2.1c-2.6-3.2-7.3-3.7-10.5-1.1c-3.2,2.6-3.7,7.3-1.1,10.5C213,280.3,217.1,281.6,221.4,281.6z"/>
	<path class="st0" d="M207.4,222.9c8.5,0,15.5-7,15.5-15.5c0-4.1-3.4-7.5-7.5-7.5s-7.5,3.4-7.5,7.5c0,0.3-0.2,0.5-0.5,0.5
		c-4.1,0-7.5,3.4-7.5,7.5S203.3,222.9,207.4,222.9z"/>
	<path class="st0" d="M295.9,215.4c0,4.1,3.4,7.5,7.5,7.5c8.5,0,15.5-7,15.5-15.5c0-4.1-3.4-7.5-7.5-7.5s-7.5,3.4-7.5,7.5
		c0,0.3-0.2,0.5-0.5,0.5C299.3,207.9,295.9,211.2,295.9,215.4z"/>
</g>
</svg>
