<?xml version="1.0" encoding="utf-8"?>
<!-- Generator: Adobe Illustrator 22.0.0, SVG Export Plug-In . SVG Version: 6.00 Build 0)  -->
<svg version="1.1" id="Layer_1" xmlns="http://www.w3.org/2000/svg" xmlns:xlink="http://www.w3.org/1999/xlink" x="0px" y="0px"
	 width="44px" height="44px" viewBox="0 0 44 44" style="enable-background:new 0 0 44 44;" xml:space="preserve">
<style type="text/css">
	.st0{fill:#FFFFFF;}
</style>
<g>
	<g>
		<path class="st0" d="M42,2h-1c0-1.1-0.9-2-2-2h-4c-1.1,0-2,0.9-2,2h-1c-1.1,0-2,0.9-2,2v14c0,1.1,0.9,2,2,2h10c1.1,0,2-0.9,2-2V4
			C44,2.9,43.1,2,42,2z M35,2h4v6h-4V2z M42,18H32V4h1v4c0,1.1,0.9,2,2,2h4c1.1,0,2-0.9,2-2V4h1V18z M3,29c0,0.6,0.4,1,1,1h30v-2H4
			C3.4,28,3,28.4,3,29z"/>
	</g>
</g>
<g>
	<g>
		<path class="st0" d="M38,20v24h2V20H38z M34,32H2V6h28V4H2C0.9,4,0,4.9,0,6v26c0,1.1,0.9,2,2,2h11v5h-2c-0.6,0-1,0.4-1,1
			s0.4,1,1,1h17c0.6,0,1-0.4,1-1s-0.4-1-1-1h-2v-5h8v10h2V20h-2V32z M24,39h-9v-5h9V39z"/>
	</g>
</g>
</svg>
