<?xml version="1.0" encoding="utf-8"?>
<!-- Generator: Adobe Illustrator 22.0.1, SVG Export Plug-In . SVG Version: 6.00 Build 0)  -->
<svg version="1.1" id="Cart" xmlns="http://www.w3.org/2000/svg" xmlns:xlink="http://www.w3.org/1999/xlink" x="0px" y="0px"
	 width="51px" height="35px" viewBox="0 0 51 35" style="enable-background:new 0 0 51 35;" xml:space="preserve">
<style type="text/css">
	.st0{fill:#FFFFFF;}
	.st1{enable-background:new    ;}
	.st2{fill:#141414;}
</style>
<path id="Cart-2" class="st0" d="M9.4,23H29c2.2,0,4-1.8,4-4v-8.2c0,0,0,0,0,0v-0.1c0,0,0,0,0,0c0,0,0,0,0,0c0,0,0,0,0,0
	c0,0,0,0,0,0c0,0,0,0,0,0c0,0,0,0,0,0c0,0,0,0,0,0c0,0,0,0,0,0c0,0,0,0,0,0c0,0,0,0,0,0s0,0,0,0s0,0,0,0c0,0,0,0,0,0c0,0,0,0,0,0
	c0,0,0,0,0,0s0,0-0.1,0l0,0c0,0,0,0-0.1,0c0,0,0,0,0,0s0,0,0,0s0,0-0.1,0s0,0,0,0c0,0,0,0-0.1,0c0,0,0,0,0,0c0,0,0,0-0.1,0
	c0,0,0,0,0,0L7.3,6.6V3.1c0,0,0,0,0,0c0,0,0,0,0-0.1c0,0,0,0,0-0.1c0,0,0,0,0,0s0,0,0-0.1s0,0,0,0c0,0,0,0,0-0.1c0,0,0,0,0,0l0,0
	c0,0,0,0,0,0c0,0,0,0,0,0s0,0,0,0l0,0c0,0,0,0,0,0s0,0,0,0s0,0-0.1,0l0,0l-0.1,0l-0.1,0c0,0,0,0,0,0l-0.1,0L1.4,0.1
	c-0.5-0.2-1.1,0-1.3,0.5c-0.2,0.5,0,1.1,0.5,1.3c0,0,0,0,0,0l4.8,2v21.3c0,2,1.5,3.7,3.5,3.9c-0.4,0.6-0.6,1.3-0.6,2
	c0,2.2,1.8,4,4,4c2.2,0,4-1.8,4-4c0-0.7-0.2-1.4-0.5-2h8.9c-0.4,0.6-0.6,1.3-0.6,2c0,2.2,1.7,4,3.9,4c2.2,0,4-1.7,4-3.9
	c0-2.2-1.7-4-3.9-4c0,0,0,0,0,0H9.4c-1.1,0-2.1-0.9-2.1-2v-2.6C8,22.9,8.7,23,9.4,23z M14.3,31.1c0,1.1-0.9,2-2,2c-1.1,0-2-0.9-2-2
	s0.9-2,2-2c0,0,0,0,0,0C13.4,29.1,14.3,30,14.3,31.1z M30,31.1c0,1.1-0.9,2-2,2c-1.1,0-2-0.9-2-2s0.9-2,2-2c0,0,0,0,0,0
	C29.1,29.1,30,30,30,31.1z M29,21.1H9.4c-1.1,0-2.1-0.9-2.1-2V8.6L31,11.8v7.3C31,20.2,30.1,21.1,29,21.1L29,21.1z"/>
<circle class="st0" cx="43.5" cy="7.5" r="7.5"/>
<g class="st1">
	<path class="st2" d="M46.5,8c0.4,0.4,0.6,1,0.6,1.6c0,0.5-0.1,0.9-0.4,1.4c-0.3,0.4-0.6,0.7-1.2,1c-0.5,0.2-1.2,0.4-1.9,0.4
		c-0.6,0-1.2-0.1-1.7-0.2c-0.6-0.2-1.1-0.4-1.5-0.7l0.8-1.5c0.3,0.2,0.7,0.4,1.1,0.6c0.4,0.1,0.9,0.2,1.3,0.2c0.5,0,0.9-0.1,1.2-0.3
		c0.3-0.2,0.4-0.5,0.4-0.8c0-0.7-0.5-1-1.6-1h-0.9V7.3l1.7-2h-3.6V3.8h5.9v1.3l-1.9,2.2C45.6,7.3,46.1,7.6,46.5,8z"/>
</g>
</svg>
