<?xml version="1.0" encoding="utf-8"?>
<!-- Generator: Adobe Illustrator 22.0.0, SVG Export Plug-In . SVG Version: 6.00 Build 0)  -->
<svg version="1.1" id="Layer_1" xmlns="http://www.w3.org/2000/svg" xmlns:xlink="http://www.w3.org/1999/xlink" x="0px" y="0px"
	 width="409.6px" height="334.6px" viewBox="0 0 409.6 334.6" style="enable-background:new 0 0 409.6 334.6;" xml:space="preserve"
	>
<style type="text/css">
	.st0{fill:#FFFFFF;}
	.st1{fill:none;}
</style>
<g>
	<path class="st0" d="M94.4,277.7c-9.8,0-17.8,8-17.8,17.8c0,9.8,8,17.8,17.8,17.8c9.8,0,17.8-8,17.8-17.8
		C112.2,285.7,104.2,277.7,94.4,277.7L94.4,277.7z M94.4,301.4c-3.2,0-5.8-2.6-5.8-5.8s2.6-5.8,5.8-5.8c3.2,0,5.8,2.6,5.8,5.8
		C100.2,298.7,97.6,301.4,94.4,301.4L94.4,301.4z M94.4,301.4"/>
	<g>
		<path class="st1" d="M279.4,121.4c0-1.8,0.8-3.4,2-4.5c-14.5,2.9-30.8,10.9-40.6,20.7c-9.7,9.7-20.7,20.7-26.8,26.8
			c-4.1,4.1-9.6,6.4-15.4,6.4h-0.2c-9.5,0-20.1-8.4-22.7-17.9c-0.1-0.5-0.2-1-0.2-1.5l0-61.3c0-1.8,0.8-3.4,2.1-4.5l22.6-18.6
			c0.8-0.7,1.8-1.1,2.8-1.3l22.2-3.4c4.4-11.9,11-22.6,19.7-31.9c-14.5-1.7-36.8-4.2-42.6-4.9c-6.4-0.8-13,1.2-18,5.3L127.1,78
			c-7.4,6.1-12.6,14.2-15.2,23.4c-6.6,23.8-18.9,66.1-27.6,82.8c-0.3,0.5-0.6,1-1,1.4l-25.8,25.8l32.8,32.8l32.8,32.8l3.7-3.7
			c4.5-4.5,10.1-7.9,16.3-9.7l42.8-14.4c12.4-4.3,23.3-12,31.5-22.3l21.7-27.5c0.1-0.2,0.3-0.3,0.5-0.5l26.4-26.4l-5.5-5.5
			c-3.2-3.2-5-7.5-5-12c0-4.5,1.8-8.8,5-12l9.6-9.6c3.5-3.5,7.7-5.8,12.1-7C280.5,125.4,279.4,123.5,279.4,121.4z"/>
		<path class="st1" d="M289.5,137.2c-4,0-8.1,1.5-11.1,4.6l-9.6,9.6c-1,1-1.5,2.3-1.5,3.7c0,1.4,0.5,2.7,1.5,3.7l5.5,5.5l17.3-17.3
			v-9.6C290.9,137.3,290.2,137.2,289.5,137.2z"/>
		<path class="st1" d="M303.8,129.5c0.9,0.6,1.9,1.2,2.8,1.9c1-1.5,1.6-2.8,1.9-3.9h-4.6V129.5z"/>
		<path class="st1" d="M348.4,68.6c0-12.2-9.9-22.2-22.1-22.3c-0.1,0-0.1,0-0.2,0h-22.3v44.7h22.3C338.4,90.9,348.4,80.9,348.4,68.6
			z"/>
		<path class="st0" d="M381.8,27.8c-16.7-16.7-39-26.6-62.6-27.7c-22.6-1.1-44.7,5.8-62.5,19.5l-4.5-0.5
			c-13.5-1.6-41.7-4.8-48.3-5.6c-9.6-1.2-19.4,1.7-26.9,7.9l-57.3,47.4c-9.2,7.6-15.8,17.8-19,29.4c-6.3,22.9-18.1,63.4-26.3,79.7
			l-25.2,25.2l-1.7-1.7c-2.6-2.6-6.2-4.1-9.9-4.1c-3.7,0-7.2,1.5-9.9,4.1L4.1,225.1c-5.5,5.5-5.5,14.3,0,19.8l6.3,6.3
			c2.3,2.3,6,2.3,8.3,0c2.3-2.3,2.3-6,0-8.3l-6.3-6.3c-0.6-0.6-0.7-1.2-0.7-1.6c0-0.4,0.1-1,0.7-1.6L36,209.8
			c0.6-0.6,1.3-0.7,1.6-0.7c0.3,0,1,0.1,1.6,0.7l5.8,5.8c0,0,0,0,0,0l37,37l42.8,42.8c0.6,0.6,0.7,1.2,0.7,1.6c0,0.3-0.1,1-0.7,1.6
			l-23.6,23.6c-0.6,0.6-1.2,0.7-1.6,0.7c-0.3,0-1-0.1-1.6-0.7l-52.8-52.8c-2.3-2.3-6-2.3-8.3,0c-2.3,2.3-2.3,6,0,8.3l52.8,52.8
			c2.7,2.7,6.3,4.1,9.9,4.1c3.6,0,7.2-1.4,9.9-4.1l23.6-23.6c2.6-2.6,4.1-6.2,4.1-9.9c0-3.7-1.5-7.2-4.1-9.9l-1.7-1.7l3.7-3.7
			c3.2-3.2,7.1-5.5,11.4-6.7c0.1,0,0.2,0,0.2-0.1l43-14.5c14.6-5,27.3-14,36.9-26.1l21.5-27.2c0,0,25.1-26.1,43.6-44.2
			c0.4,3,3,5.2,6,5.2c3.4,0,6.1-2.7,6.1-6.1v-10.7c0.6-0.6,1.2-1.1,1.8-1.6c5-4.5,9.1-13.6,10.6-22.2h14c3.4,0,6.1-2.7,6.1-6.1
			c0-3.4-2.7-6.1-6.1-6.1h-14.2c-0.3-1.1-0.7-2.1-1.3-3c-2.1-3.5-6.1-5.7-10.9-7v-2.2h22.3c19,0,34.5-15.5,34.5-34.5
			s-15.5-34.5-34.5-34.5c-0.1,0-0.1,0-0.2,0h-28.2c0,0,0,0,0,0c-3.4,0-6.1,2.7-6.1,6.1V104c-19.5,0.3-44.7,10.9-59,25.3
			c-9.7,9.7-20.7,20.7-26.8,26.8c-1.9,1.9-4.4,2.9-7.1,2.9h-0.2c-4,0-9.6-4.4-11.2-8.6l0-57.7l19.2-15.8l15.2-2.3
			c-3,13.5-3,27.6,0,41.2c0.6,2.7,3,4.6,5.7,4.6c0.4,0,0.8,0,1.3-0.1c3.2-0.7,5.2-3.8,4.5-7c-3.2-14.5-2.5-29.7,2.1-43.8
			c0,0,0-0.1,0-0.2c0,0,0,0,0-0.1c4.1-12.5,10.9-23.6,20.3-33c2-2,4.1-3.9,6.3-5.7c0,0,0.1-0.1,0.1-0.1c0,0,0,0,0,0
			c15.9-12.9,36-19.5,56.5-18.5c20.7,1,40.2,9.6,54.9,24.3c15.7,15.7,24.4,36.7,24.4,58.9c0,22.3-8.7,43.2-24.4,58.9
			c-20.8,20.8-51.3,29.1-79.8,21.8c-3.1-0.8-6.3,1.1-7.1,4.2c-0.8,3.1,1.1,6.3,4.2,7.1c7.8,2,15.8,3,23.8,3c8.2,0,16.3-1,24.3-3.1
			c16.2-4.3,31-12.8,42.9-24.7c18-18,27.8-41.8,27.8-67.2C409.6,69.7,399.7,45.8,381.8,27.8z M303.8,46.3h22.3c0.1,0,0.1,0,0.2,0
			c12.2,0.1,22.1,10.1,22.1,22.3c0,12.3-10,22.3-22.3,22.3h-22.3V46.3z M291.6,147l-17.3,17.3l-5.5-5.5c-1-1-1.5-2.3-1.5-3.7
			c0-1.4,0.5-2.7,1.5-3.7l9.6-9.6c3.1-3.1,7.1-4.6,11.1-4.6c0.7,0,1.4,0.1,2.1,0.2c2.4,0.3,4.8,1.2,6.9,2.7L291.6,147z M225.3,62.1
			l-22.2,3.4c-1,0.2-2,0.6-2.8,1.3l-22.6,18.6c-1.4,1.1-2.1,2.8-2.1,4.5l0,61.3c0,0.5,0.1,1,0.2,1.5c2.5,9.5,13.2,17.9,22.7,17.9
			h0.2c5.8,0,11.3-2.3,15.4-6.4c6.1-6.1,17.1-17.1,26.8-26.8c9.8-9.8,26-17.8,40.6-20.7c4.6-0.9,9-1.3,13-1.1
			c3.8,0.2,8.9,1.1,11.3,4.2c0.1,0.2,0.3,0.3,0.4,0.5c1,1,3.2,3.2,2.2,7.1c-0.3,1.2-0.9,2.5-1.9,3.9c-0.9-0.7-1.8-1.3-2.8-1.9
			c-6.5-4-14.4-5-21.6-3c-4.4,1.2-8.6,3.5-12.1,7l-9.6,9.6c-3.2,3.2-5,7.5-5,12c0,4.5,1.8,8.8,5,12l5.5,5.5L239.5,199
			c-0.2,0.2-0.3,0.3-0.5,0.5L217.4,227c-8.2,10.3-19.1,18-31.5,22.3L143,263.8c-6.1,1.8-11.8,5.1-16.3,9.7l-3.7,3.7l-32.8-32.8
			l-32.8-32.8l25.8-25.8c0.4-0.4,0.8-0.9,1-1.4c8.8-16.7,21.1-59.1,27.6-82.8c2.6-9.2,7.8-17.3,15.2-23.4l57.3-47.4
			c5-4.1,11.6-6.1,18-5.3c5.8,0.7,28.1,3.3,42.6,4.9C236.4,39.5,229.7,50.2,225.3,62.1z"/>
	</g>
</g>
</svg>
