<svg xmlns="http://www.w3.org/2000/svg" width="67.531" height="75" viewBox="0 0 67.531 75">
  <metadata><?xpacket begin="﻿" id="W5M0MpCehiHzreSzNTczkc9d"?>
<x:xmpmeta xmlns:x="adobe:ns:meta/" x:xmptk="Adobe XMP Core 5.6-c138 79.159824, 2016/09/14-01:09:01        ">
   <rdf:RDF xmlns:rdf="http://www.w3.org/1999/02/22-rdf-syntax-ns#">
      <rdf:Description rdf:about=""/>
   </rdf:RDF>
</x:xmpmeta>
                                                                                                    
                                                                                                    
                                                                                                    
                                                                                                    
                                                                                                    
                                                                                                    
                                                                                                    
                                                                                                    
                                                                                                    
                                                                                                    
                                                                                                    
                                                                                                    
                                                                                                    
                                                                                                    
                                                                                                    
                                                                                                    
                                                                                                    
                                                                                                    
                                                                                                    
                                                                                                    
                           
<?xpacket end="w"?></metadata>
<defs>
    <style>
      .cls-1 {
        fill: #fff;
        fill-rule: evenodd;
      }
    </style>
  </defs>
  <path id="Jewel" class="cls-1" d="M599.824,1424.56a16.775,16.775,0,1,0,16.741,16.78A16.781,16.781,0,0,0,599.824,1424.56Zm0,31.35a14.575,14.575,0,1,1,14.548-14.57A14.578,14.578,0,0,1,599.824,1455.91Zm7.778-36.92,6.831-8.51-5.579-8.41H590.795l-5.579,8.41,6.831,8.51A23.618,23.618,0,1,0,607.6,1418.99Zm-2.277-.67c-0.393-.09-0.79-0.18-1.19-0.25l2.327-6.55h4.324Zm3.24-12.72,2.466,3.72h-3.789Zm-1.853-1.34-1.4,3.95-3.188-3.95h4.589Zm-3.323,5.06h-7.13l3.565-4.41Zm0.745,2.2-2.219,6.25a21.9,21.9,0,0,0-4.181,0l-2.219-6.25h8.619Zm-6.608-7.26-3.188,3.95-1.4-3.95h4.589Zm-6.442,1.34,1.323,3.72h-3.789Zm-2.221,5.92h4.324l2.327,6.55c-0.4.07-.8,0.16-1.19,0.25Zm10.961,51.28a21.465,21.465,0,1,1,21.425-21.46A21.468,21.468,0,0,1,599.824,1462.8Zm-13.847-10.32-1.708,1.38a20.028,20.028,0,0,0,11.31,7.02l0.466-2.14A17.829,17.829,0,0,1,585.977,1452.48Zm-2.067-3.23-1.963.98a19.511,19.511,0,0,0,1.03,1.83l1.85-1.18A17.878,17.878,0,0,1,583.91,1449.25Zm19.136-27.66-0.352,2.17a17.754,17.754,0,0,1,12.546,8.73l1.9-1.1A19.9,19.9,0,0,0,603.046,1421.59Zm13.774,14.54,2.1-.64a18.965,18.965,0,0,0-.738-2.02l-2.015.86A18.285,18.285,0,0,1,616.82,1436.13ZM598.728,1390h2.193v8.57h-2.193V1390Zm-11.933.48,6.049,6.06-1.551,1.55-6.048-6.06Zm26.056,0,1.551,1.55-6.049,6.06-1.55-1.55Zm-36.49,28.89h2.193v-2.16H580.7v-2.19h-2.149v-2.16h-2.193v2.16h-2.148v2.19h2.148v2.16Zm53.929,23.22H628.1v2.15h-2.148v2.2H628.1v2.15h2.193v-2.15h2.149v-2.2H630.29v-2.15Zm-6.848-43.65h-2.193v2.15H619.1v2.2h2.148v2.15h2.193v-2.15h2.149v-2.2h-2.149v-2.15Zm-44.743,3.5h2.193v1.95H578.7v-1.95Zm-12.647,28.55h2.194v1.95h-2.194v-1.95Zm60.015,0h2.193v1.95h-2.193v-1.95ZM618,1417.46H620.2v1.95H618v-1.95Zm-47.931,30.09h2.193v1.95h-2.193v-1.95Zm61.33-43.08H633.6v1.95H631.4v-1.95Zm-63.231-6.87h2.193v1.94h-2.193v-1.94Z" transform="translate(-566.063 -1390)"/>
</svg>
