<?xml version="1.0" encoding="utf-8"?>
<!-- Generator: Adobe Illustrator 21.0.2, SVG Export Plug-In . SVG Version: 6.00 Build 0)  -->
<svg version="1.1" id="Layer_1" xmlns="http://www.w3.org/2000/svg" xmlns:xlink="http://www.w3.org/1999/xlink" x="0px" y="0px"
	 viewBox="0 0 764 186" enable-background="new 0 0 764 186" xml:space="preserve">
<g>
	<g>
		<g>
			
				<linearGradient id="SVGID_1_" gradientUnits="userSpaceOnUse" x1="1436.1077" y1="-373.5995" x2="1614.1791" y2="-373.5995" gradientTransform="matrix(-1 0 0 -1 1614.1182 -262.9956)">
				<stop  offset="0.1946" style="stop-color:#FECB37"/>
				<stop  offset="0.3113" style="stop-color:#FDC537"/>
				<stop  offset="0.4594" style="stop-color:#FBB636"/>
				<stop  offset="0.6245" style="stop-color:#F79C34"/>
				<stop  offset="0.8018" style="stop-color:#F27831"/>
				<stop  offset="0.9872" style="stop-color:#EB492E"/>
				<stop  offset="1" style="stop-color:#EB462E"/>
			</linearGradient>
			<path fill="url(#SVGID_1_)" d="M0.315,81.575C0.901,86.34,2.257,90.962,3.97,95.46c1.374,3.606,2.976,7.134,4.598,10.59
				c3.925,8.351,8.591,16.331,13.565,24.096c6.433,10.043,13.592,19.658,21.848,28.284c1.413,1.477,2.868,2.905,4.342,4.309
				c6.65,6.336,13.893,11.955,21.664,16.915c5.179,3.305,10.923,6.416,17.208,6.605c8.271,0.249,15.827-4.107,22.364-8.728
				c5.597-3.957,10.905-8.282,15.943-12.916c1.297-1.192,2.587-2.392,3.846-3.627c12.313-12.072,23.2-25.599,32.146-40.347
				c5-8.243,9.396-16.853,13.114-25.748c0.121-0.29,0.229-0.582,0.344-0.873c4.345-11.018,4.129-23.535-1.1-34.217
				c-5.38-10.992-15.564-18.996-27.155-22.624c-11.61-3.634-24.405-2.797-35.516,2.115c-11.723,5.182-21.075,15.014-27.885,25.688
				c-3.477,5.45-6.311,11.296-8.565,17.351c-1.079,2.899-2.068,5.853-2.859,8.845c-0.556,2.104-1.2,4.538-0.925,6.725
				c0.175,1.392,1.182,1.684,2.203,0.742c2.335-2.152,4.429-4.358,6.447-6.812c1.745-2.122,3.454-4.274,5.234-6.368
				c3.289-3.868,6.766-7.584,10.502-11.024c7.303-6.723,15.718-12.454,25.237-15.497c5.775-1.846,12.054-2.755,18.117-2.434
				c4.138,0.219,8.25,1.283,10.558,4.569c2.265,3.225,1.749,7.564,1.371,11.253c-0.467,4.56-1.391,9.06-2.699,13.453
				c-2.636,8.855-6.721,17.291-11.7,25.059c-9.805,15.298-23.29,27.952-38.266,38.123c-3.617,2.456-7.725,4.668-12.175,4.883
				c-0.185,0.168-0.374,0.333-0.568,0.496c-0.163-0.16-0.344-0.304-0.501-0.47c-4.6-0.124-8.78-2.491-12.246-5.364
				c-12.295-10.19-23.068-22.185-31.512-35.757c-7.043-11.32-12.884-23.872-15.571-36.997c-0.695-3.395-1.179-6.871-1.105-10.343
				c0.063-2.983,0.53-6.163,2.207-8.703c0.172-0.26,0.366-0.5,0.561-0.74c1.867-2.293,4.807-3.607,9.257-3.317
				c7.122,0.463,14.09,2.595,20.456,5.777c2.884,1.441,5.564,3.101,8.133,5.04c2.125,1.604,4.823,3.736,7.676,3.294
				c1.621-0.252,1.728-2.534,1.095-4.131c-4.986-12.584-15.994-22.831-29.235-26.1c-10.528-2.599-22.066-0.494-30.511,6.447
				C6.955,48.705,2.644,57.085,0.888,65.832C-0.15,71.002-0.329,76.343,0.315,81.575z"/>
			
				<linearGradient id="SVGID_2_" gradientUnits="userSpaceOnUse" x1="1540.0973" y1="-314.6766" x2="1587.0743" y2="-314.6766" gradientTransform="matrix(-1 0 0 -1 1614.1182 -262.9956)">
				<stop  offset="0" style="stop-color:#EB462E"/>
				<stop  offset="0.051" style="stop-color:#ED562F"/>
				<stop  offset="0.2038" style="stop-color:#F38032"/>
				<stop  offset="0.3527" style="stop-color:#F8A034"/>
				<stop  offset="0.4949" style="stop-color:#FBB836"/>
				<stop  offset="0.6274" style="stop-color:#FDC637"/>
				<stop  offset="0.7405" style="stop-color:#FECB37"/>
			</linearGradient>
			<path fill="url(#SVGID_2_)" d="M27.044,55.973c1.867-2.293,4.807-3.607,9.257-3.317c7.122,0.463,14.09,2.595,20.456,5.777
				c2.884,1.441,5.564,3.101,8.133,5.04c2.125,1.604,4.823,3.736,7.676,3.294c1.621-0.252,1.728-2.534,1.095-4.131
				c-4.986-12.584-15.994-22.831-29.235-26.1C37.415,41.866,30.214,48.693,27.044,55.973z"/>
			
				<linearGradient id="SVGID_3_" gradientUnits="userSpaceOnUse" x1="1436.1077" y1="-330.0605" x2="1543.2356" y2="-330.0605" gradientTransform="matrix(-1 0 0 -1 1614.1182 -262.9956)">
				<stop  offset="0" style="stop-color:#EB462E"/>
				<stop  offset="0.773" style="stop-color:#FECB37"/>
			</linearGradient>
			<path fill="url(#SVGID_3_)" d="M174.953,94.021c4.345-11.018,4.129-23.535-1.1-34.217c-5.38-10.992-15.564-18.996-27.155-22.624
				c-11.61-3.634-24.405-2.797-35.516,2.115C99.46,44.476,90.107,54.308,83.297,64.982c-3.477,5.45-6.311,11.296-8.565,17.351
				c-1.079,2.899-2.068,5.853-2.859,8.845c-0.556,2.104-1.2,4.538-0.925,6.725c0.175,1.392,1.182,1.684,2.204,0.742
				c2.335-2.152,4.429-4.358,6.447-6.812c1.745-2.122,3.454-4.274,5.234-6.368c3.289-3.868,6.765-7.584,10.502-11.024
				c7.303-6.723,15.718-12.454,25.237-15.497c5.775-1.846,12.054-2.755,18.117-2.434C152.633,56.169,166.423,77.558,174.953,94.021z
				"/>
			
				<linearGradient id="SVGID_4_" gradientUnits="userSpaceOnUse" x1="1614.1791" y1="-328.4566" x2="1569.692" y2="-328.4566" gradientTransform="matrix(-1 0 0 -1 1614.1182 -262.9956)">
				<stop  offset="0" style="stop-color:#EB462E"/>
				<stop  offset="0.3248" style="stop-color:#F16E31"/>
				<stop  offset="1" style="stop-color:#FECB37"/>
			</linearGradient>
			<path fill="url(#SVGID_4_)" d="M0.315,81.575C0.901,86.34,2.257,90.962,3.97,95.46c2.511-11.692,8.799-32.509,22.512-38.748
				c0.172-0.26,0.366-0.5,0.561-0.74c3.17-7.28,10.372-14.107,17.382-19.437c-10.528-2.599-22.066-0.494-30.511,6.447
				C6.955,48.705,2.644,57.085,0.888,65.832C-0.15,71.002-0.329,76.343,0.315,81.575z"/>
			
				<linearGradient id="SVGID_5_" gradientUnits="userSpaceOnUse" x1="1488.6151" y1="-433.3042" x2="1565.7948" y2="-433.3042" gradientTransform="matrix(-1 0 0 -1 1614.1182 -262.9956)">
				<stop  offset="0" style="stop-color:#B82B29"/>
				<stop  offset="1" style="stop-color:#EB6431"/>
			</linearGradient>
			<path fill="url(#SVGID_5_)" d="M85.211,154.347c-9.439,7.918-28.724,8.521-36.888,8.393c6.65,6.336,13.893,11.955,21.664,16.915
				c5.179,3.305,10.923,6.416,17.209,6.605c8.271,0.249,15.827-4.107,22.364-8.728c5.597-3.957,10.905-8.282,15.943-12.916
				C112.971,164.955,94.612,163.63,85.211,154.347z"/>
			
				<linearGradient id="SVGID_6_" gradientUnits="userSpaceOnUse" x1="1610.1477" y1="-372.729" x2="1528.9067" y2="-372.729" gradientTransform="matrix(-1 0 0 -1 1614.1182 -262.9956)">
				<stop  offset="0.1946" style="stop-color:#FECB37"/>
				<stop  offset="0.3113" style="stop-color:#FDC537"/>
				<stop  offset="0.4594" style="stop-color:#FBB636"/>
				<stop  offset="0.6245" style="stop-color:#F79C34"/>
				<stop  offset="0.8018" style="stop-color:#F27831"/>
				<stop  offset="0.9872" style="stop-color:#EB492E"/>
				<stop  offset="1" style="stop-color:#EB462E"/>
			</linearGradient>
			<path fill="url(#SVGID_6_)" d="M8.569,106.051c3.925,8.351,8.591,16.331,13.565,24.096c6.433,10.043,13.592,19.658,21.848,28.284
				c1.414,1.477,2.868,2.905,4.342,4.309c8.164,0.128,27.449-0.476,36.888-8.393c-0.163-0.16-0.344-0.304-0.501-0.47
				c-4.6-0.124-8.78-2.491-12.246-5.364c-12.294-10.19-23.068-22.185-31.512-35.757c-7.043-11.32-12.884-23.872-15.571-36.997
				c-0.695-3.395-1.179-6.871-1.105-10.343c0.063-2.983,0.53-6.163,2.207-8.703C12.769,62.951,6.481,83.769,3.97,95.46
				C5.344,99.067,6.946,102.594,8.569,106.051z"/>
			
				<linearGradient id="SVGID_7_" gradientUnits="userSpaceOnUse" x1="1439.1648" y1="-373.5803" x2="1528.9067" y2="-373.5803" gradientTransform="matrix(-1 0 0 -1 1614.1182 -262.9956)">
				<stop  offset="0.1946" style="stop-color:#FECB37"/>
				<stop  offset="0.3113" style="stop-color:#FDC537"/>
				<stop  offset="0.4594" style="stop-color:#FBB636"/>
				<stop  offset="0.6245" style="stop-color:#F79C34"/>
				<stop  offset="0.8018" style="stop-color:#F27831"/>
				<stop  offset="0.9872" style="stop-color:#EB492E"/>
				<stop  offset="1" style="stop-color:#EB462E"/>
			</linearGradient>
			<path fill="url(#SVGID_7_)" d="M125.503,164.616c1.297-1.192,2.587-2.392,3.846-3.627c12.313-12.072,23.2-25.599,32.146-40.347
				c5-8.243,9.396-16.853,13.114-25.748c0.121-0.29,0.229-0.582,0.343-0.873c-8.53-16.463-22.32-37.852-36.264-37.51
				c4.138,0.219,8.25,1.283,10.558,4.569c2.265,3.225,1.749,7.564,1.371,11.253c-0.467,4.56-1.391,9.06-2.699,13.453
				c-2.636,8.855-6.721,17.291-11.7,25.059c-9.805,15.298-23.29,27.952-38.266,38.123c-3.617,2.456-7.725,4.668-12.175,4.883
				c-0.185,0.168-0.374,0.333-0.568,0.496C94.612,163.63,112.971,164.955,125.503,164.616z"/>
		</g>
		<g>
			
				<linearGradient id="SVGID_8_" gradientUnits="userSpaceOnUse" x1="149.1781" y1="187.6922" x2="129.2174" y2="259.8083" gradientTransform="matrix(0.9702 0.2422 -0.2422 0.9702 11.7033 -243.2141)">
				<stop  offset="0.0324" style="stop-color:#B82B29"/>
				<stop  offset="1" style="stop-color:#EB6431"/>
			</linearGradient>
			<path fill="url(#SVGID_8_)" d="M96.268,19.402c1.005-7.624,1.007-15.46,1.189-19.673c-8.074,5.054-27.418,15.138-28.559,25.921
				c-0.401,3.791,1.443,7.669,6.825,11.444C89.746,45.252,94.522,32.648,96.268,19.402z"/>
			<g>
				
					<linearGradient id="SVGID_9_" gradientUnits="userSpaceOnUse" x1="139.6382" y1="215.402" x2="127.8555" y2="257.9719" gradientTransform="matrix(0.9702 0.2422 -0.2422 0.9702 11.7033 -243.2141)">
					<stop  offset="0" style="stop-color:#FECB37"/>
					<stop  offset="0.1853" style="stop-color:#FEC837"/>
					<stop  offset="0.3388" style="stop-color:#FCBD36"/>
					<stop  offset="0.481" style="stop-color:#FAAC35"/>
					<stop  offset="0.6164" style="stop-color:#F69433"/>
					<stop  offset="0.7469" style="stop-color:#F27531"/>
					<stop  offset="0.8722" style="stop-color:#EC4F2F"/>
					<stop  offset="0.8973" style="stop-color:#EB462E"/>
				</linearGradient>
				<path fill="url(#SVGID_9_)" d="M96.268,19.402c1.005-7.624,1.007-15.46,1.189-19.673c-8.074,5.054-27.418,15.138-28.559,25.921
					C75.314,30.66,85.066,33.284,96.268,19.402z"/>
				
					<linearGradient id="SVGID_10_" gradientUnits="userSpaceOnUse" x1="141.8226" y1="216.0066" x2="130.0399" y2="258.5764" gradientTransform="matrix(0.9702 0.2422 -0.2422 0.9702 11.7033 -243.2141)">
					<stop  offset="0.0324" style="stop-color:#B82B29"/>
					<stop  offset="1" style="stop-color:#EB6431"/>
				</linearGradient>
				<path fill="url(#SVGID_10_)" d="M68.898,25.651c-0.401,3.791,1.443,7.669,6.825,11.444c14.023,8.156,18.799-4.448,20.545-17.693
					C85.066,33.284,75.314,30.66,68.898,25.651z"/>
			</g>
		</g>
	</g>
	<g>
		<g>
			<linearGradient id="SVGID_11_" gradientUnits="userSpaceOnUse" x1="215.8323" y1="103.5129" x2="300.0849" y2="103.5129">
				<stop  offset="0" style="stop-color:#FECB37"/>
				<stop  offset="0.4505" style="stop-color:#F48832"/>
				<stop  offset="0.8179" style="stop-color:#EE582F"/>
				<stop  offset="1" style="stop-color:#EB462E"/>
			</linearGradient>
			<path fill="url(#SVGID_11_)" d="M215.832,103.513l20.544-20.543c3.595-3.596,4.979-4.703,7.4-5.533
				c3.251-1.107,7.192,0,10.168,2.975c2.973,2.973,4.08,6.916,2.973,10.167c-0.829,2.421-2.005,3.873-5.533,7.401l-5.533,5.533
				l5.533,5.533c3.528,3.528,4.704,4.98,5.533,7.401c1.107,3.251,0,7.193-2.973,10.167c-2.976,2.975-6.917,4.081-10.168,2.975
				c-2.421-0.831-3.805-1.937-7.4-5.533L215.832,103.513z M258.58,103.513l20.542-20.543c3.597-3.596,4.981-4.703,7.4-5.533
				c3.251-1.107,7.195,0,10.168,2.975c2.973,2.973,4.083,6.916,2.973,10.167c-0.829,2.421-2.005,3.873-5.531,7.401l-5.536,5.533
				l5.536,5.533c3.525,3.528,4.701,4.98,5.531,7.401c1.109,3.251,0,7.193-2.973,10.167c-2.973,2.975-6.917,4.081-10.168,2.975
				c-2.419-0.831-3.803-1.937-7.4-5.533L258.58,103.513z"/>
			<g>
				<path fill="#FFFFFF" d="M337.129,53.92c1.728-4.496,3.043-6.433,5.048-8.024c2.421-1.936,4.981-2.697,8.579-2.697
					c3.595,0,6.155,0.761,8.576,2.697c2.005,1.591,3.32,3.528,5.048,8.024l26.283,69.791c2.283,6.085,3.805,10.859-0.829,15.494
					c-2.144,2.144-5.395,3.597-8.715,3.597c-2.696,0-5.117-0.901-6.848-2.491c-2.075-1.868-2.973-3.736-4.771-8.716l-1.453-4.012
					h-34.585l-1.451,4.012c-1.8,4.98-2.699,6.848-4.773,8.716c-1.731,1.589-4.149,2.491-6.848,2.491
					c-3.32,0-6.571-1.453-8.715-3.597c-4.635-4.635-3.112-9.408-0.829-15.494L337.129,53.92z M350.756,79.995l-9.96,27.391h19.92
					L350.756,79.995z"/>
				<path fill="#FFFFFF" d="M463.124,65.332h-17.155v25.73c0,41.225-10.235,51.185-31.678,51.185c-5.949,0-7.816-0.139-10.237-1.315
					c-3.043-1.452-5.256-5.256-5.256-9.544c0-3.113,1.176-6.019,3.043-7.885c2.144-2.144,4.496-2.767,7.955-2.905
					c12.451-0.623,12.795-16.531,12.795-31.333V58.623c0-3.596,0-8.092,3.389-11.482c3.389-3.389,7.885-3.389,11.483-3.389h35.137
					c3.597,0,8.093,0,11.483,3.389c3.389,3.389,3.389,7.885,3.389,11.482v67.853c0,5.533-0.069,7.471-1.523,10.376
					c-1.728,3.459-5.811,5.949-10.651,5.949c-4.843,0-8.923-2.491-10.653-5.949c-1.451-2.905-1.52-4.843-1.52-10.376V65.332z"/>
				<path fill="#FFFFFF" d="M521.956,142.247c-3.597,0-8.093,0-11.483-3.389c-3.389-3.389-3.389-7.885-3.389-11.482V59.523
					c0-5.533,0.069-7.471,1.523-10.376c1.728-3.459,5.811-5.948,10.651-5.948c4.843,0,8.923,2.489,10.654,5.948
					c1.451,2.905,1.52,4.843,1.52,10.376v19.366h14.803c21.856,0,33.614,15.494,33.614,31.679s-11.758,31.679-33.614,31.679H521.956
					z M545.127,120.667c6.64,0,10.512-4.911,10.512-10.099c0-5.187-3.872-10.098-10.512-10.098h-13.696v20.196H545.127z"/>
				<path fill="#FFFFFF" d="M593.795,59.523c0-5.533,0.069-7.471,1.523-10.376c1.728-3.459,5.811-5.948,10.651-5.948
					c4.843,0,8.923,2.489,10.653,5.948c1.451,2.905,1.52,4.843,1.52,10.376v20.819h2.144L645.119,50.6
					c4.08-4.912,6.571-7.401,11.275-7.401c2.765,0,5.187,1.037,7.331,2.836c2.629,2.213,4.219,4.98,4.219,8.231
					c0,3.735-1.176,6.087-5.395,10.859l-22.894,25.8l25.038,29.95c4.08,4.841,5.395,7.124,5.395,10.859
					c0,3.251-1.589,6.017-4.219,8.231c-2.144,1.797-4.565,2.837-7.331,2.837c-4.704,0-7.195-2.491-11.275-7.403l-26.977-32.231
					h-2.144v23.308c0,5.533-0.069,7.471-1.52,10.376c-1.731,3.459-5.811,5.949-10.653,5.949c-4.84,0-8.923-2.491-10.651-5.949
					c-1.453-2.905-1.523-4.843-1.523-10.376V59.523z"/>
			</g>
			<linearGradient id="SVGID_12_" gradientUnits="userSpaceOnUse" x1="679.8094" y1="103.5129" x2="764.0609" y2="103.5129">
				<stop  offset="0" style="stop-color:#EB462E"/>
				<stop  offset="0.1821" style="stop-color:#EE582F"/>
				<stop  offset="0.5495" style="stop-color:#F48832"/>
				<stop  offset="1" style="stop-color:#FECB37"/>
			</linearGradient>
			<path fill="url(#SVGID_12_)" d="M700.772,124.056c-3.595,3.596-4.979,4.703-7.4,5.533c-3.251,1.107-7.192,0-10.168-2.975
				c-2.973-2.973-4.08-6.916-2.973-10.167c0.829-2.421,2.005-3.873,5.533-7.401l5.533-5.533l-5.533-5.533
				c-3.528-3.528-4.704-4.98-5.533-7.401c-1.107-3.251,0-7.193,2.973-10.167c2.976-2.975,6.917-4.081,10.168-2.975
				c2.421,0.831,3.805,1.937,7.4,5.533l20.544,20.543L700.772,124.056z M743.519,124.056c-3.597,3.596-4.981,4.703-7.403,5.533
				c-3.251,1.107-7.192,0-10.166-2.975c-2.976-2.973-4.083-6.916-2.976-10.167c0.832-2.421,2.005-3.873,5.533-7.401l5.533-5.533
				l-5.533-5.533c-3.528-3.528-4.701-4.98-5.533-7.401c-1.107-3.251,0-7.193,2.976-10.167c2.973-2.975,6.915-4.081,10.166-2.975
				c2.421,0.831,3.805,1.937,7.403,5.533l20.542,20.543L743.519,124.056z"/>
		</g>
	</g>
</g>
</svg>
