<svg xmlns="http://www.w3.org/2000/svg" width="67.57" height="68.19" viewBox="0 0 67.57 68.19">
  <metadata><?xpacket begin="﻿" id="W5M0MpCehiHzreSzNTczkc9d"?>
<x:xmpmeta xmlns:x="adobe:ns:meta/" x:xmptk="Adobe XMP Core 5.6-c138 79.159824, 2016/09/14-01:09:01        ">
   <rdf:RDF xmlns:rdf="http://www.w3.org/1999/02/22-rdf-syntax-ns#">
      <rdf:Description rdf:about=""/>
   </rdf:RDF>
</x:xmpmeta>
                                                                                                    
                                                                                                    
                                                                                                    
                                                                                                    
                                                                                                    
                                                                                                    
                                                                                                    
                                                                                                    
                                                                                                    
                                                                                                    
                                                                                                    
                                                                                                    
                                                                                                    
                                                                                                    
                                                                                                    
                                                                                                    
                                                                                                    
                                                                                                    
                                                                                                    
                                                                                                    
                           
<?xpacket end="w"?></metadata>
<defs>
    <style>
      .cls-1 {
        fill: #fff;
        fill-rule: evenodd;
      }
    </style>
  </defs>
  <path id="Refresh" class="cls-1" d="M1345.88,1393.78a1.39,1.39,0,0,0,0,2.78,31.067,31.067,0,1,1-14.26,3.49,1.388,1.388,0,0,0,.59-1.87,1.368,1.368,0,0,0-1.85-.59A33.721,33.721,0,1,0,1345.88,1393.78Zm13.24,16.53a21.51,21.51,0,0,0-13.24-4.5,22.066,22.066,0,0,0,0,44.13,21.609,21.609,0,0,0,15.46-6.46,1.407,1.407,0,0,0,0-1.96,1.359,1.359,0,0,0-1.95,0,18.912,18.912,0,0,1-13.51,5.65,19.3,19.3,0,1,1,18.36-24.69,1.357,1.357,0,0,0,1.7.94,1.383,1.383,0,0,0,.94-1.71A22.252,22.252,0,0,0,1359.12,1410.31Zm2.88,13.36a1.376,1.376,0,0,0-1.95,0,1.419,1.419,0,0,0,0,1.97l5.17,5.22a1.388,1.388,0,0,0,1.95,0l5.17-5.22a1.419,1.419,0,0,0,0-1.97,1.376,1.376,0,0,0-1.95,0l-4.2,4.24Z" transform="translate(-1312.09 -1393.78)"/>
</svg>
