<svg xmlns="http://www.w3.org/2000/svg" width="77" height="68.19" viewBox="0 0 77 68.19">
  <metadata><?xpacket begin="﻿" id="W5M0MpCehiHzreSzNTczkc9d"?>
<x:xmpmeta xmlns:x="adobe:ns:meta/" x:xmptk="Adobe XMP Core 5.6-c138 79.159824, 2016/09/14-01:09:01        ">
   <rdf:RDF xmlns:rdf="http://www.w3.org/1999/02/22-rdf-syntax-ns#">
      <rdf:Description rdf:about=""/>
   </rdf:RDF>
</x:xmpmeta>
                                                                                                    
                                                                                                    
                                                                                                    
                                                                                                    
                                                                                                    
                                                                                                    
                                                                                                    
                                                                                                    
                                                                                                    
                                                                                                    
                                                                                                    
                                                                                                    
                                                                                                    
                                                                                                    
                                                                                                    
                                                                                                    
                                                                                                    
                                                                                                    
                                                                                                    
                                                                                                    
                           
<?xpacket end="w"?></metadata>
<defs>
    <style>
      .cls-1 {
        fill: #fff;
        fill-rule: evenodd;
      }
    </style>
  </defs>
  <path id="Technology" class="cls-1" d="M993.22,1438.91l-2.14-1a9.753,9.753,0,0,1-4.911,5.21l-0.868.36,0.142,0.94a5.208,5.208,0,0,1,.064.8,5.054,5.054,0,0,1-3.876,4.91l-0.772.18-0.132.79a3.546,3.546,0,0,1-7.048-.61v-3.95h-2.357v3.95a3.547,3.547,0,0,1-7.049.61l-0.133-.79-0.771-.18a5.054,5.054,0,0,1-3.876-4.91,5.331,5.331,0,0,1,.063-0.8l0.143-.94-0.868-.36a9.753,9.753,0,0,1-4.911-5.21l-2.141,1a12.5,12.5,0,0,0,5.362,6.05c0,0.09,0,.17,0,0.26a7.378,7.378,0,0,0,4.991,7.04,26.654,26.654,0,0,1,15.1,4.22,5.906,5.906,0,0,0,5.645-4.22,7.379,7.379,0,0,0,4.99-7.04c0-.09,0-0.17,0-0.26A12.5,12.5,0,0,0,993.22,1438.91Zm-5.6-31.08a8.922,8.922,0,0,0-15.121-5.79,5.868,5.868,0,0,0-10.146,1.2,5.8,5.8,0,0,0-3.226,1.54l1.6,1.75a3.491,3.491,0,0,1,2.4-.96h0.98l0.234-.88a3.545,3.545,0,0,1,6.978.94v3.95h2.357v-3.95a3.545,3.545,0,0,1,6.978-.94l0.234,0.88h0.972a3.6,3.6,0,0,1,3.534,3.28l0.071,0.8,0.767,0.23a9.207,9.207,0,0,1,6.419,7.93l2.347-.22A11.465,11.465,0,0,0,987.621,1407.83ZM965.9,1421.37v13.38h13.2v-13.38H965.9Zm10.843,10.99h-8.486v-8.6h8.486v8.6Zm31.507,11.57v-14.68H983.971v-2.39h24.279v-5.6a3.93,3.93,0,1,0-2.36,0v3.21H983.971v-2.39h16.659v-19.14a3.93,3.93,0,1,0-2.359,0v16.75h-14.3v-3.26H980.75v-2.87h-2.357v2.87h-2.358v-2.87h-2.357v2.87h-2.357v-2.87h-2.357v2.87h-2.357v-2.87H964.25v2.87h-3.221v3.26h-3.222v-18.82a3.929,3.929,0,1,0-2.357,0v7.91a11.65,11.65,0,0,0-4.764,13.97l2.2-.85a9.261,9.261,0,0,1,2.561-10.18v10.36h5.579v2.39H946.807v-8.04h-5.131a3.985,3.985,0,1,0,0,2.39h2.774v8.04h16.578v2.39H941.676a3.985,3.985,0,1,0,0,2.39h19.352v2.39h-18.15v10.86a3.929,3.929,0,1,0,2.357,0v-8.47h15.793v3.27h3.222v2.86h2.357v-2.86h2.357v2.86h2.357v-2.86h2.357v2.86h2.357v-2.86h2.357v2.86h2.357v-2.86h3.221v-3.27h14.3v10.12h-8.642v6.95a3.929,3.929,0,1,0,2.357,0v-4.56h8.645v-14.9H983.971v-2.39h21.919v12.29A3.93,3.93,0,1,0,1008.25,1443.93Zm-2.75-26.47a1.57,1.57,0,1,1,1.57,1.6A1.583,1.583,0,0,1,1005.5,1417.46Zm-7.622-18.32a1.571,1.571,0,1,1,1.572,1.6A1.587,1.587,0,0,1,997.878,1399.14Zm-41.25-.47a1.6,1.6,0,1,1,1.572-1.6A1.589,1.589,0,0,1,956.628,1398.67Zm-18.7,20.55a1.6,1.6,0,1,1,1.572-1.6A1.589,1.589,0,0,1,937.928,1419.22Zm0,12.82a1.6,1.6,0,1,1,1.572-1.59A1.58,1.58,0,0,1,937.928,1432.04Zm7.7,16.65a1.571,1.571,0,1,1-1.571-1.6A1.58,1.58,0,0,1,945.628,1448.69Zm35.986-11.39H963.386v-18.48h18.228v18.48Zm10.764,19.99a1.571,1.571,0,1,1-1.571-1.59A1.58,1.58,0,0,1,992.378,1457.29Zm14.692-7.97a1.59,1.59,0,1,1,1.57-1.59A1.577,1.577,0,0,1,1007.07,1449.32Z" transform="translate(-934 -1393.09)"/>
</svg>
