<svg xmlns="http://www.w3.org/2000/svg" width="30.03" height="35" viewBox="0 0 30.03 35">
  <metadata><?xpacket begin="﻿" id="W5M0MpCehiHzreSzNTczkc9d"?>
<x:xmpmeta xmlns:x="adobe:ns:meta/" x:xmptk="Adobe XMP Core 5.6-c138 79.159824, 2016/09/14-01:09:01        ">
   <rdf:RDF xmlns:rdf="http://www.w3.org/1999/02/22-rdf-syntax-ns#">
      <rdf:Description rdf:about=""/>
   </rdf:RDF>
</x:xmpmeta>
                                                                                                    
                                                                                                    
                                                                                                    
                                                                                                    
                                                                                                    
                                                                                                    
                                                                                                    
                                                                                                    
                                                                                                    
                                                                                                    
                                                                                                    
                                                                                                    
                                                                                                    
                                                                                                    
                                                                                                    
                                                                                                    
                                                                                                    
                                                                                                    
                                                                                                    
                                                                                                    
                           
<?xpacket end="w"?></metadata>
<defs>
    <style>
      .cls-1 {
        fill: #fff;
        fill-rule: evenodd;
      }
    </style>
  </defs>
  <path id="User" class="cls-1" d="M1439.89,38.859h0.24a6.768,6.768,0,0,0,5.15-2.211c2.81-3.145,2.35-8.538,2.3-9.053-0.19-3.863-2.03-5.711-3.55-6.574A8.15,8.15,0,0,0,1440.1,20h-0.13a8.2,8.2,0,0,0-3.93.993c-1.53.862-3.4,2.711-3.59,6.6-0.05.515-.51,5.907,2.3,9.053A6.731,6.731,0,0,0,1439.89,38.859Zm-5.48-11.082V27.719c0.24-5.2,3.96-5.755,5.56-5.755h0.08c1.98,0.043,5.33.84,5.56,5.755a0.106,0.106,0,0,0,.01.058c0,0.051.52,4.979-1.81,7.574a4.807,4.807,0,0,1-3.76,1.551h-0.08a4.785,4.785,0,0,1-3.75-1.551C1433.9,32.771,1434.4,27.82,1434.41,27.777ZM1455.03,47.8V47.781c0-.058-0.01-0.116-0.01-0.181-0.04-1.435-.14-4.791-3.31-5.863-0.02-.008-0.05-0.015-0.07-0.022a21.167,21.167,0,0,1-6.07-2.74,0.986,0.986,0,0,0-1.37.239,0.963,0.963,0,0,0,.24,1.362,22.73,22.73,0,0,0,6.67,3.022c1.71,0.6,1.9,2.406,1.95,4.059v0.181a12.5,12.5,0,0,1-.15,2.239,27.029,27.029,0,0,1-12.88,2.972,27.311,27.311,0,0,1-12.9-2.979,13.5,13.5,0,0,1-.15-2.24c0-.058.01-0.116,0.01-0.181,0.05-1.653.24-3.457,1.94-4.059a22.954,22.954,0,0,0,6.67-3.022,0.974,0.974,0,0,0,.25-1.363,1,1,0,0,0-1.38-.239,20.882,20.882,0,0,1-6.06,2.74c-0.03.007-.06,0.015-0.08,0.022-3.17,1.08-3.26,4.436-3.31,5.864a1.057,1.057,0,0,1-.01.181V47.8a11.236,11.236,0,0,0,.38,3.283,0.894,0.894,0,0,0,.38.457c0.22,0.145,5.47,3.465,14.26,3.465s14.05-3.327,14.27-3.465a0.945,0.945,0,0,0,.38-0.457A11.664,11.664,0,0,0,1455.03,47.8Z" transform="translate(-1425 -20)"/>
</svg>
