<?xml version="1.0" encoding="utf-8"?>
<!-- Generator: Adobe Illustrator 22.0.1, SVG Export Plug-In . SVG Version: 6.00 Build 0)  -->
<svg version="1.1" id="Layer_1" xmlns="http://www.w3.org/2000/svg" xmlns:xlink="http://www.w3.org/1999/xlink" x="0px" y="0px"
	 width="27.9px" height="22px" viewBox="0 0 27.9 22" style="enable-background:new 0 0 27.9 22;" xml:space="preserve">
<style type="text/css">
	.st0{fill:#FFFFFF;}
</style>
<g>
	<path class="st0" d="M27.9,3.5H0.1c0,0-0.1,0-0.1-0.1V0.1C0,0,0,0,0.1,0h27.8c0,0,0.1,0,0.1,0.1L27.9,3.5
		C27.9,3.4,27.9,3.5,27.9,3.5z"/>
	<path class="st0" d="M27.9,12.7H0.1c0,0-0.1,0-0.1-0.1V9.3c0,0,0-0.1,0.1-0.1h27.8c0,0,0.1,0,0.1,0.1L27.9,12.7
		C27.9,12.7,27.9,12.7,27.9,12.7z"/>
	<path class="st0" d="M27.9,22H0.1C0,22,0,22,0,21.9v-3.3c0,0,0-0.1,0.1-0.1h27.8c0,0,0.1,0,0.1,0.1L27.9,22
		C27.9,22,27.9,22,27.9,22z"/>
</g>
</svg>
