<?xml version="1.0" encoding="utf-8"?>
<!-- Generator: Adobe Illustrator 22.0.1, SVG Export Plug-In . SVG Version: 6.00 Build 0)  -->
<svg version="1.1" id="Layer_1" xmlns="http://www.w3.org/2000/svg" xmlns:xlink="http://www.w3.org/1999/xlink" x="0px" y="0px"
	 width="27.9px" height="22px" viewBox="0 0 27.9 22" style="enable-background:new 0 0 27.9 22;" xml:space="preserve">
<style type="text/css">
	.st0{fill:#2C3E50;}
</style>
<g>
	<path class="st0" d="M28.5,3.5H-0.7c0,0-0.1,0-0.1-0.1V0.1c0,0,0-0.1,0.1-0.1h29.2c0,0,0.1,0,0.1,0.1L28.5,3.5
		C28.6,3.4,28.5,3.5,28.5,3.5z"/>
	<path class="st0" d="M28.5,12.7H-0.7c0,0-0.1,0-0.1-0.1V9.3c0,0,0-0.1,0.1-0.1h29.2c0,0,0.1,0,0.1,0.1L28.5,12.7
		C28.6,12.7,28.5,12.7,28.5,12.7z"/>
	<path class="st0" d="M28.5,22H-0.7c0,0-0.1,0-0.1-0.1v-3.3c0,0,0-0.1,0.1-0.1h29.2c0,0,0.1,0,0.1,0.1L28.5,22
		C28.6,22,28.5,22,28.5,22z"/>
</g>
</svg>
