<?xml version="1.0" encoding="utf-8"?>
<!-- Generator: Adobe Illustrator 22.0.1, SVG Export Plug-In . SVG Version: 6.00 Build 0)  -->
<svg version="1.1" id="Layer_1" xmlns="http://www.w3.org/2000/svg" xmlns:xlink="http://www.w3.org/1999/xlink" x="0px" y="0px"
	 width="28px" height="21.9px" viewBox="0 0 28 21.9" style="enable-background:new 0 0 28 21.9;" xml:space="preserve">
<style type="text/css">
	.st0{fill:#F7C100;}
</style>
<g>
	<path class="st0" d="M29.8,3.5H-1.6c0,0-0.1,0-0.1-0.1V0.1c0,0,0-0.1,0.1-0.1h31.4c0,0,0.1,0,0.1,0.1L29.8,3.5
		C29.8,3.5,29.8,3.5,29.8,3.5z"/>
	<path class="st0" d="M29.8,12.8H-1.6c0,0-0.1,0-0.1-0.1V9.4c0,0,0-0.1,0.1-0.1h31.4c0,0,0.1,0,0.1,0.1L29.8,12.8
		C29.8,12.7,29.8,12.8,29.8,12.8z"/>
	<path class="st0" d="M29.8,22H-1.6c0,0-0.1,0-0.1-0.1v-3.3c0,0,0-0.1,0.1-0.1h31.4c0,0,0.1,0,0.1,0.1L29.8,22
		C29.8,22,29.8,22,29.8,22z"/>
</g>
</svg>
