<?xml version="1.0" encoding="utf-8"?>
<!-- Generator: Adobe Illustrator 22.0.0, SVG Export Plug-In . SVG Version: 6.00 Build 0)  -->
<svg version="1.1" id="Layer_1" xmlns="http://www.w3.org/2000/svg" xmlns:xlink="http://www.w3.org/1999/xlink" x="0px" y="0px"
	 width="512px" height="512px" viewBox="0 0 512 512" style="enable-background:new 0 0 512 512;" xml:space="preserve">
<style type="text/css">
	.st0{fill:#FFFFFF;}
</style>
<g>
	<g>
		<g>
			<path class="st0" d="M473.7,184.5c4.5,0,8.1-3.6,8.1-8.1v-30.1c0-4.5-3.6-8.1-8.1-8.1H328.6c-4.5,0-8.1,3.6-8.1,8.1v128.1H183.4
				c-4.5,0-8.1,3.6-8.1,8.1v118.4H38.3c-4.5,0-8.1,3.6-8.1,8.1v94.9c0,4.5,3.6,8.1,8.1,8.1h145.1h145.1h145.1c4.5,0,8.1-3.6,8.1-8.1
				V208.2c0-4.5-3.6-8.1-8.1-8.1c-4.5,0-8.1,3.6-8.1,8.1v287.6h-129V282.5V154.4h129v22C465.6,180.9,469.2,184.5,473.7,184.5z
				 M175.3,495.8h-129v-78.7h129L175.3,495.8L175.3,495.8z M320.5,495.8h-129V409V290.6h129L320.5,495.8L320.5,495.8z"/>
			<path class="st0" d="M69.5,454.8h80.8c4.5,0,8.1-3.6,8.1-8.1c0-4.5-3.6-8.1-8.1-8.1H69.5c-4.5,0-8.1,3.6-8.1,8.1
				C61.4,451.2,65.1,454.8,69.5,454.8z"/>
			<path class="st0" d="M215.2,328.3H296c4.5,0,8.1-3.6,8.1-8.1s-3.6-8.1-8.1-8.1h-80.8c-4.5,0-8.1,3.6-8.1,8.1
				S210.7,328.3,215.2,328.3z"/>
			<path class="st0" d="M360.7,176c-4.5,0-8.1,3.6-8.1,8.1c0,4.5,3.6,8.1,8.1,8.1h80.8c4.5,0,8.1-3.6,8.1-8.1s-3.6-8.1-8.1-8.1
				H360.7z"/>
			<path class="st0" d="M38.7,373.5c2.1,0,4.1-0.8,5.7-2.4L388,27.6v43.6c0,4.5,3.6,8.1,8.1,8.1s8.1-3.6,8.1-8.1V8.1
				c0-4.5-3.6-8.1-8.1-8.1l-63.1,0c-4.5,0-8.1,3.6-8.1,8.1s3.6,8.1,8.1,8.1l43.6,0L33,359.7c-3.2,3.2-3.2,8.3,0,11.4
				C34.6,372.7,36.7,373.5,38.7,373.5z"/>
		</g>
	</g>
</g>
</svg>
