<?xml version="1.0" encoding="utf-8"?>
<!-- Generator: Adobe Illustrator 22.0.0, SVG Export Plug-In . SVG Version: 6.00 Build 0)  -->
<svg version="1.1" id="Layer_1" xmlns="http://www.w3.org/2000/svg" xmlns:xlink="http://www.w3.org/1999/xlink" x="0px" y="0px"
	 width="99px" height="29px" viewBox="0 0 99 29" style="enable-background:new 0 0 99 29;" xml:space="preserve">
<style type="text/css">
	.st0{fill:#FFFFFF;}
</style>
<title>8217FB19-245B-4ACB-9897-B0F60186A5EE</title>
<desc>Created with sketchtool.</desc>
<g id="concept7.6">
	<g id="FrontFace" transform="translate(-30.000000, -14.000000)">
		<path id="logo" class="st0" d="M31.2,31.9c0,0,1.7,2.3,4.8,2.3c1.7,0,3.3-0.8,3.3-2.5c0-3.4-8.6-2.8-8.6-7.8
			c0-2.8,2.4-4.2,5.5-4.2c1.6,0,4.7,0.6,4.7,2.8v1.3h-2v-0.7c0-1.1-1.7-1.6-2.7-1.6c-2.1,0-3.4,0.7-3.4,2.2c0,3.5,8.6,2.7,8.6,7.8
			c0,2.6-2.3,4.3-5.4,4.3c-4,0-5.9-2.7-5.9-2.7L31.2,31.9z M45.2,16.5c0-0.4-0.2-0.7-0.7-0.7h-1.3V14h2.2c1.3,0,1.9,0.5,1.9,1.8
			v10.3h1.6c0.6,0,1.3-0.2,1.7-0.7l4-5.2h2.5l-4.4,5.7c-0.8,1-1.2,1.1-1.2,1.1V27c0,0,0.5,0.2,1,1.1l2.8,5c0.3,0.5,0.6,0.7,1.4,0.7
			h0.8v1.8H56c-1.5,0-2-0.2-2.7-1.5l-3.1-5.5c-0.3-0.6-1.1-0.7-1.6-0.7h-1.4v7.8h-2.1L45.2,16.5L45.2,16.5z M61.1,40.2
			c1.3,0,2.3-1.1,2.9-2.5l0.9-2.1l-5.4-12.9c-0.2-0.6-0.5-0.7-1.1-0.7H58v-1.8h1c1.4,0,1.8,0.3,2.4,1.7l4,9.7
			c0.3,0.8,0.6,1.7,0.6,1.7h0.1c0,0,0.2-0.9,0.5-1.7l3.8-9.7c0.5-1.4,1-1.7,2.4-1.7h1V22h-0.3c-0.6,0-0.9,0.2-1.1,0.7l-6.7,16.2
			c-0.8,2-2.4,3.2-4.4,3.2c-2.1,0-3.3-1.5-3.3-1.5l1-1.5C58.8,39.1,59.7,40.2,61.1,40.2z M83,19.6c4.5,0,6.9,3.3,6.9,7.5
			c0,0.5-0.1,1.4-0.1,1.4H79c0.3,2.8,2.3,4.2,4.7,4.2c2.5,0,4.4-1.8,4.4-1.8l1.6,2.7c0,0-2.4,2.4-6.3,2.4c-5.2,0-8.4-3.8-8.4-8.2
			C75.1,23,78.3,19.6,83,19.6z M85.9,25.8c-0.1-1.9-1.3-3.2-2.9-3.2c-2,0-3.4,1.2-3.8,3.2H85.9z M93.7,23.9c0-0.5-0.2-0.7-0.7-0.7
			h-1.2v-3.3h3.6c1.4,0,2.1,0.6,2.1,1.8v0.5c0,0.3-0.1,0.7-0.1,0.7h0.1c0.7-1.3,2.4-3.3,5.5-3.3c3.5,0,5.5,1.8,5.5,6v6.1
			c0,0.4,0.2,0.7,0.7,0.7h1.2v3.3h-3.7c-1.5,0-2.1-0.6-2.1-2.1v-7.2c0-1.9-0.5-3.2-2.5-3.2c-2.1,0-3.7,1.3-4.2,3.2
			c-0.2,0.6-0.3,1.4-0.3,2.1v7.2h-3.9V23.9L93.7,23.9z M118.8,19.6c3.6,0,4.8,2.2,4.8,2.2h0.1c0,0,0-0.2,0-0.4
			c0-0.7,0.5-1.4,1.7-1.4h3.6v3.3h-1.2c-0.4,0-0.7,0.2-0.7,0.6v10.8c0,5.4-4.2,7.4-8.3,7.4c-2,0-4-0.6-5.6-1.4l1.2-3.1
			c0,0,1.9,1,4.3,1c2.4,0,4.4-1,4.4-3.9v-0.7c0-0.4,0-0.8,0-0.8h-0.1c-0.9,1.3-2.3,2-4.4,2c-4.5,0-7-3.6-7-7.9
			S114.3,19.6,118.8,19.6z M123.4,27.4c0-3.6-1.8-4.5-3.9-4.5c-2.4,0-3.7,1.7-3.7,4.4c0,2.7,1.4,4.8,3.9,4.8
			C121.6,32.1,123.4,31,123.4,27.4z"/>
	</g>
</g>
</svg>
