<?xml version="1.0" encoding="utf-8"?>
<!-- Generator: Adobe Illustrator 22.0.0, SVG Export Plug-In . SVG Version: 6.00 Build 0)  -->
<svg version="1.1" id="Layer_1" xmlns="http://www.w3.org/2000/svg" xmlns:xlink="http://www.w3.org/1999/xlink" x="0px" y="0px"
	 width="512px" height="512px" viewBox="0 0 512 512" style="enable-background:new 0 0 512 512;" xml:space="preserve">
<style type="text/css">
	.st0{fill:#FFFFFF;}
</style>
<g>
	<g>
		<path class="st0" d="M421.2,195.5c-5.1-26.1-17.7-49.8-36.5-68.6c-18.8-18.8-42.5-31.4-68.6-36.5c-11.2-2.2-22.1,5.1-24.3,16.3
			c-2.2,11.2,5.1,22.1,16.3,24.3c36.8,7.2,65.3,35.6,72.5,72.5c1.9,9.9,10.6,16.7,20.3,16.7c1.3,0,2.6-0.1,4-0.4
			C416.1,217.6,423.4,206.7,421.2,195.5z"/>
	</g>
</g>
<g>
	<g>
		<path class="st0" d="M511.4,196.9c-5.6-50.1-28.4-97.3-64-132.9c-35.7-35.6-82.9-58.3-133-63.9C303-1.1,292.8,7,291.5,18.4
			c-1.3,11.4,6.9,21.6,18.3,22.8c85,9.4,151,75.4,160.5,160.3c1.2,10.6,10.1,18.4,20.5,18.4c0.8,0,1.6,0,2.3-0.1
			C504.5,218.5,512.7,208.3,511.4,196.9z"/>
	</g>
</g>
<g>
	<g>
		<path class="st0" d="M432.6,312.6c-0.1,0-0.1,0-0.2,0c-20-2.6-39.8-7.6-58.6-14.6c-23.9-9-51.1-3.2-69.3,14.8c0,0-0.1,0.1-0.1,0.1
			l-17.1,17.1c-42.6-26.9-78.8-63-105.7-105.7l17.1-17.1c0,0,0.1-0.1,0.1-0.1c18-18.2,23.8-45.4,14.8-69.2
			c-7.1-18.9-12-38.7-14.6-58.7c0-0.1,0-0.1,0-0.2c-4.6-32.5-32.8-56.7-65.5-56.5H66.1c-1.9,0-3.9,0.1-5.9,0.3
			C24.1,26-2.5,58,0.7,94.1c0,0.1,0,0.2,0,0.3c7.7,72.4,32.6,142.9,72.2,204c35.9,56.5,84.7,105.3,141.2,141.2
			c60.8,39.4,131,64.4,203,72.2c0.1,0,0.3,0,0.4,0c2,0.2,3.9,0.3,5.9,0.3c0.1,0,0.2,0,0.2,0c36.2-0.1,65.5-29.7,65.4-65.8v-67.2
			C489.7,345.7,465.5,317.2,432.6,312.6z M447.7,378.7v67.5c0.1,13.4-10.8,24.3-24.2,24.4c-0.7,0-1.4,0-2.1-0.1
			c-65.6-7.2-129.5-29.9-184.8-65.8c-0.1,0-0.1-0.1-0.2-0.1c-51.4-32.7-95.9-77.1-128.6-128.6c0-0.1-0.1-0.1-0.1-0.2
			c-36-55.6-58.8-119.8-65.8-185.7c-1.1-13.3,8.7-25,22-26.2c0.7-0.1,1.4-0.1,2.1-0.1h67.5c0.1,0,0.3,0,0.4,0c12,0,22.3,8.9,24,20.8
			c3.1,23.1,8.7,45.8,16.9,67.6c3.3,8.8,1.2,18.9-5.4,25.6l-28.5,28.5c-6.6,6.6-8,16.8-3.4,24.8c33.8,59.5,83.2,108.8,142.7,142.7
			c8.1,4.6,18.3,3.2,24.8-3.4l28.5-28.5c6.7-6.6,16.8-8.8,25.6-5.4c21.8,8.1,44.5,13.8,67.6,16.9c12.2,1.8,21.1,12.3,20.8,24.6
			C447.7,378.4,447.7,378.5,447.7,378.7z"/>
	</g>
</g>
</svg>
